<svg width="24" height="24" viewBox="0 0 24 24" fill="none" xmlns="http://www.w3.org/2000/svg">
<path d="M17.9996 6H8.28711C8.0882 6 7.89743 5.92098 7.75678 5.78033C7.61613 5.63968 7.53711 5.44891 7.53711 5.25C7.53711 5.05109 7.61613 4.86032 7.75678 4.71967C7.89743 4.57902 8.0882 4.5 8.28711 4.5H18.7496C18.9485 4.5 19.1393 4.57902 19.2799 4.71967C19.4206 4.86032 19.4996 5.05109 19.4996 5.25V15.75C19.4996 15.9489 19.4206 16.1397 19.2799 16.2803C19.1393 16.421 18.9485 16.5 18.7496 16.5C18.5507 16.5 18.3599 16.421 18.2193 16.2803C18.0786 16.1397 17.9996 15.9489 17.9996 15.75V6Z" fill="#E4FB2E"/>
<path d="M18.2184 4.71793C18.3595 4.57683 18.5509 4.49756 18.7504 4.49756C18.95 4.49756 19.1414 4.57683 19.2825 4.71793C19.4236 4.85904 19.5029 5.05041 19.5029 5.24996C19.5029 5.44951 19.4236 5.64089 19.2825 5.782L6.53248 18.532C6.39138 18.6731 6.2 18.7524 6.00045 18.7524C5.8009 18.7524 5.60952 18.6731 5.46842 18.532C5.32732 18.3909 5.24805 18.1995 5.24805 18C5.24805 17.8004 5.32732 17.609 5.46842 17.4679L18.2184 4.71793Z" fill="#E4FB2E"/>
</svg>
