<svg width="1751" height="598" viewBox="0 0 1751 598" fill="none" xmlns="http://www.w3.org/2000/svg">
<path d="M1288.5 207.5C1291.81 207.5 1294.5 204.814 1294.5 201.5C1294.5 198.186 1291.81 195.5 1288.5 195.5C1285.19 195.5 1282.5 198.186 1282.5 201.5C1282.5 204.814 1285.19 207.5 1288.5 207.5Z" stroke="#111111" stroke-width="3" stroke-linecap="round" stroke-linejoin="round"/>
<path d="M1302.5 522.5C1305.81 522.5 1308.5 519.814 1308.5 516.5C1308.5 513.186 1305.81 510.5 1302.5 510.5C1299.19 510.5 1296.5 513.186 1296.5 516.5C1296.5 519.814 1299.19 522.5 1302.5 522.5Z" stroke="#111111" stroke-width="3" stroke-linecap="round" stroke-linejoin="round"/>
<path d="M1230.5 417.5C1233.81 417.5 1236.5 414.814 1236.5 411.5C1236.5 408.186 1233.81 405.5 1230.5 405.5C1227.19 405.5 1224.5 408.186 1224.5 411.5C1224.5 414.814 1227.19 417.5 1230.5 417.5Z" stroke="#111111" stroke-width="3" stroke-linecap="round" stroke-linejoin="round"/>
<path d="M1148.5 13.5C1151.81 13.5 1154.5 10.8137 1154.5 7.5C1154.5 4.18629 1151.81 1.5 1148.5 1.5C1145.19 1.5 1142.5 4.18629 1142.5 7.5C1142.5 10.8137 1145.19 13.5 1148.5 13.5Z" stroke="#111111" stroke-width="3" stroke-linecap="round" stroke-linejoin="round"/>
<path d="M1343.5 73.5H1533.5L1575.5 115.5H1725.5" stroke="#111111" stroke-width="1.6" stroke-linecap="round" stroke-linejoin="round"/>
<path d="M1289.5 200.5H1400.5L1435.5 240.5H1649.5V265.5H1743.5" stroke="#111111" stroke-width="1.6" stroke-linecap="round" stroke-linejoin="round"/>
<path d="M1303.5 515.5H1457.5L1505.5 550.5H1743.5" stroke="#111111" stroke-width="1.6" stroke-linecap="round" stroke-linejoin="round"/>
<path d="M1231.5 410.5H1345.5L1380.5 445.5" stroke="#111111" stroke-width="1.6" stroke-linecap="round" stroke-linejoin="round"/>
<path d="M1149.5 6.5H1287.5L1337.5 49.5" stroke="#111111" stroke-width="1.6" stroke-linecap="round" stroke-linejoin="round"/>
<path d="M1343.5 79.5C1346.81 79.5 1349.5 76.8137 1349.5 73.5C1349.5 70.1863 1346.81 67.5 1343.5 67.5C1340.19 67.5 1337.5 70.1863 1337.5 73.5C1337.5 76.8137 1340.19 79.5 1343.5 79.5Z" stroke="#111111" stroke-width="3" stroke-linecap="round" stroke-linejoin="round"/>
<path d="M1575.5 118.5C1577.16 118.5 1578.5 117.157 1578.5 115.5C1578.5 113.843 1577.16 112.5 1575.5 112.5C1573.84 112.5 1572.5 113.843 1572.5 115.5C1572.5 117.157 1573.84 118.5 1575.5 118.5Z" fill="#111111"/>
<path d="M1725.5 121.5C1728.81 121.5 1731.5 118.814 1731.5 115.5C1731.5 112.186 1728.81 109.5 1725.5 109.5C1722.19 109.5 1719.5 112.186 1719.5 115.5C1719.5 118.814 1722.19 121.5 1725.5 121.5Z" stroke="#111111" stroke-width="3" stroke-linecap="round" stroke-linejoin="round"/>
<path d="M1435.5 243.5C1437.16 243.5 1438.5 242.157 1438.5 240.5C1438.5 238.843 1437.16 237.5 1435.5 237.5C1433.84 237.5 1432.5 238.843 1432.5 240.5C1432.5 242.157 1433.84 243.5 1435.5 243.5Z" fill="#111111"/>
<path d="M1649.5 243.5C1651.16 243.5 1652.5 242.157 1652.5 240.5C1652.5 238.843 1651.16 237.5 1649.5 237.5C1647.84 237.5 1646.5 238.843 1646.5 240.5C1646.5 242.157 1647.84 243.5 1649.5 243.5Z" fill="#111111"/>
<path d="M1649.5 268.5C1651.16 268.5 1652.5 267.157 1652.5 265.5C1652.5 263.843 1651.16 262.5 1649.5 262.5C1647.84 262.5 1646.5 263.843 1646.5 265.5C1646.5 267.157 1647.84 268.5 1649.5 268.5Z" fill="#111111"/>
<path d="M1743.5 271.5C1746.81 271.5 1749.5 268.814 1749.5 265.5C1749.5 262.186 1746.81 259.5 1743.5 259.5C1740.19 259.5 1737.5 262.186 1737.5 265.5C1737.5 268.814 1740.19 271.5 1743.5 271.5Z" stroke="#111111" stroke-width="3" stroke-linecap="round" stroke-linejoin="round"/>
<path d="M1743.5 556.5C1746.81 556.5 1749.5 553.814 1749.5 550.5C1749.5 547.186 1746.81 544.5 1743.5 544.5C1740.19 544.5 1737.5 547.186 1737.5 550.5C1737.5 553.814 1740.19 556.5 1743.5 556.5Z" stroke="#111111" stroke-width="3" stroke-linecap="round" stroke-linejoin="round"/>
<path d="M1345.5 413.5C1347.16 413.5 1348.5 412.157 1348.5 410.5C1348.5 408.843 1347.16 407.5 1345.5 407.5C1343.84 407.5 1342.5 408.843 1342.5 410.5C1342.5 412.157 1343.84 413.5 1345.5 413.5Z" fill="#111111"/>
<path d="M1380.5 451.5C1383.81 451.5 1386.5 448.814 1386.5 445.5C1386.5 442.186 1383.81 439.5 1380.5 439.5C1377.19 439.5 1374.5 442.186 1374.5 445.5C1374.5 448.814 1377.19 451.5 1380.5 451.5Z" stroke="#111111" stroke-width="3" stroke-linecap="round" stroke-linejoin="round"/>
<path d="M1337.5 55.5C1340.81 55.5 1343.5 52.8137 1343.5 49.5C1343.5 46.1863 1340.81 43.5 1337.5 43.5C1334.19 43.5 1331.5 46.1863 1331.5 49.5C1331.5 52.8137 1334.19 55.5 1337.5 55.5Z" stroke="#111111" stroke-width="3" stroke-linecap="round" stroke-linejoin="round"/>
<path d="M1437.5 164.5C1439.16 164.5 1440.5 163.157 1440.5 161.5C1440.5 159.843 1439.16 158.5 1437.5 158.5C1435.84 158.5 1434.5 159.843 1434.5 161.5C1434.5 163.157 1435.84 164.5 1437.5 164.5Z" fill="#111111"/>
<path d="M1395.5 312C1396.88 312 1398 310.881 1398 309.5C1398 308.119 1396.88 307 1395.5 307C1394.12 307 1393 308.119 1393 309.5C1393 310.881 1394.12 312 1395.5 312Z" fill="#111111"/>
<path d="M1479.5 203.3C1481.6 203.3 1483.3 201.599 1483.3 199.5C1483.3 197.402 1481.6 195.7 1479.5 195.7C1477.4 195.7 1475.7 197.402 1475.7 199.5C1475.7 201.599 1477.4 203.3 1479.5 203.3Z" fill="#111111"/>
<path d="M1525.5 526.3C1527.05 526.3 1528.3 525.047 1528.3 523.5C1528.3 521.954 1527.05 520.7 1525.5 520.7C1523.95 520.7 1522.7 521.954 1522.7 523.5C1522.7 525.047 1523.95 526.3 1525.5 526.3Z" fill="#111111"/>
<path d="M1525.5 53.5C1529.92 53.5 1533.5 49.9183 1533.5 45.5C1533.5 41.0817 1529.92 37.5 1525.5 37.5C1521.08 37.5 1517.5 41.0817 1517.5 45.5C1517.5 49.9183 1521.08 53.5 1525.5 53.5Z" stroke="#111111" stroke-width="2" stroke-linecap="round" stroke-linejoin="round"/>
<path d="M1465.5 450.5C1468.26 450.5 1470.5 448.261 1470.5 445.5C1470.5 442.739 1468.26 440.5 1465.5 440.5C1462.74 440.5 1460.5 442.739 1460.5 445.5C1460.5 448.261 1462.74 450.5 1465.5 450.5Z" stroke="#111111" stroke-width="2" stroke-linecap="round" stroke-linejoin="round"/>
<path d="M1337.5 596.5C1340.26 596.5 1342.5 594.261 1342.5 591.5C1342.5 588.739 1340.26 586.5 1337.5 586.5C1334.74 586.5 1332.5 588.739 1332.5 591.5C1332.5 594.261 1334.74 596.5 1337.5 596.5Z" stroke="#111111" stroke-width="2" stroke-linecap="round" stroke-linejoin="round"/>
<path d="M7.5 111.5H230.5V68.5H395.5L440.5 113.5" stroke="#111111" stroke-width="1.6" stroke-linecap="round" stroke-linejoin="round"/>
<path d="M7.5 218.5H395.5L445.5 258.5" stroke="#111111" stroke-width="1.6" stroke-linecap="round" stroke-linejoin="round"/>
<path d="M65.5 541.5H373.5L435.5 486.5" stroke="#111111" stroke-width="1.6" stroke-linecap="round" stroke-linejoin="round"/>
<path d="M180.5 381.5H357.5L400.5 349.5" stroke="#111111" stroke-width="1.6" stroke-linecap="round" stroke-linejoin="round"/>
<path d="M263.5 12.5H450.5L487.5 54.5" stroke="#111111" stroke-width="1.6" stroke-linecap="round" stroke-linejoin="round"/>
<path d="M7.5 117.5C10.8137 117.5 13.5 114.814 13.5 111.5C13.5 108.186 10.8137 105.5 7.5 105.5C4.18629 105.5 1.5 108.186 1.5 111.5C1.5 114.814 4.18629 117.5 7.5 117.5Z" stroke="#111111" stroke-width="3" stroke-linecap="round" stroke-linejoin="round"/>
<path d="M440.5 119.5C443.814 119.5 446.5 116.814 446.5 113.5C446.5 110.186 443.814 107.5 440.5 107.5C437.186 107.5 434.5 110.186 434.5 113.5C434.5 116.814 437.186 119.5 440.5 119.5Z" stroke="#111111" stroke-width="3" stroke-linecap="round" stroke-linejoin="round"/>
<path d="M7.5 224.5C10.8137 224.5 13.5 221.814 13.5 218.5C13.5 215.186 10.8137 212.5 7.5 212.5C4.18629 212.5 1.5 215.186 1.5 218.5C1.5 221.814 4.18629 224.5 7.5 224.5Z" stroke="#111111" stroke-width="3" stroke-linecap="round" stroke-linejoin="round"/>
<path d="M445.5 264.5C448.814 264.5 451.5 261.814 451.5 258.5C451.5 255.186 448.814 252.5 445.5 252.5C442.186 252.5 439.5 255.186 439.5 258.5C439.5 261.814 442.186 264.5 445.5 264.5Z" stroke="#111111" stroke-width="3" stroke-linecap="round" stroke-linejoin="round"/>
<path d="M65.5 547.5C68.8137 547.5 71.5 544.814 71.5 541.5C71.5 538.186 68.8137 535.5 65.5 535.5C62.1863 535.5 59.5 538.186 59.5 541.5C59.5 544.814 62.1863 547.5 65.5 547.5Z" stroke="#111111" stroke-width="3" stroke-linecap="round" stroke-linejoin="round"/>
<path d="M373.5 544.5C375.157 544.5 376.5 543.157 376.5 541.5C376.5 539.843 375.157 538.5 373.5 538.5C371.843 538.5 370.5 539.843 370.5 541.5C370.5 543.157 371.843 544.5 373.5 544.5Z" fill="#111111"/>
<path d="M435.5 492.5C438.814 492.5 441.5 489.814 441.5 486.5C441.5 483.186 438.814 480.5 435.5 480.5C432.186 480.5 429.5 483.186 429.5 486.5C429.5 489.814 432.186 492.5 435.5 492.5Z" stroke="#111111" stroke-width="3" stroke-linecap="round" stroke-linejoin="round"/>
<path d="M180.5 387.5C183.814 387.5 186.5 384.814 186.5 381.5C186.5 378.186 183.814 375.5 180.5 375.5C177.186 375.5 174.5 378.186 174.5 381.5C174.5 384.814 177.186 387.5 180.5 387.5Z" stroke="#111111" stroke-width="3" stroke-linecap="round" stroke-linejoin="round"/>
<path d="M357.5 384.5C359.157 384.5 360.5 383.157 360.5 381.5C360.5 379.843 359.157 378.5 357.5 378.5C355.843 378.5 354.5 379.843 354.5 381.5C354.5 383.157 355.843 384.5 357.5 384.5Z" fill="#111111"/>
<path d="M400.5 355.5C403.814 355.5 406.5 352.814 406.5 349.5C406.5 346.186 403.814 343.5 400.5 343.5C397.186 343.5 394.5 346.186 394.5 349.5C394.5 352.814 397.186 355.5 400.5 355.5Z" stroke="#111111" stroke-width="3" stroke-linecap="round" stroke-linejoin="round"/>
<path d="M263.5 18.5C266.814 18.5 269.5 15.8137 269.5 12.5C269.5 9.18629 266.814 6.5 263.5 6.5C260.186 6.5 257.5 9.18629 257.5 12.5C257.5 15.8137 260.186 18.5 263.5 18.5Z" stroke="#111111" stroke-width="3" stroke-linecap="round" stroke-linejoin="round"/>
<path d="M450.5 15.5C452.157 15.5 453.5 14.1569 453.5 12.5C453.5 10.8431 452.157 9.5 450.5 9.5C448.843 9.5 447.5 10.8431 447.5 12.5C447.5 14.1569 448.843 15.5 450.5 15.5Z" fill="#111111"/>
<path d="M487.5 60.5C490.814 60.5 493.5 57.8137 493.5 54.5C493.5 51.1863 490.814 48.5 487.5 48.5C484.186 48.5 481.5 51.1863 481.5 54.5C481.5 57.8137 484.186 60.5 487.5 60.5Z" stroke="#111111" stroke-width="3" stroke-linecap="round" stroke-linejoin="round"/>
<path d="M255.5 399.099C256.936 399.099 258.1 397.935 258.1 396.499C258.1 395.063 256.936 393.899 255.5 393.899C254.064 393.899 252.9 395.063 252.9 396.499C252.9 397.935 254.064 399.099 255.5 399.099Z" fill="#111111"/>
<path d="M299.501 398.7C300.716 398.7 301.701 397.715 301.701 396.5C301.701 395.285 300.716 394.3 299.501 394.3C298.286 394.3 297.301 395.285 297.301 396.5C297.301 397.715 298.286 398.7 299.501 398.7Z" fill="#111111"/>
</svg>
