<svg width="1646" height="912" viewBox="0 0 1646 912" fill="none" xmlns="http://www.w3.org/2000/svg">
<g opacity="0.74">
<path d="M35.4609 674.922H291.829L521 516.295" stroke="black" stroke-width="1.6" stroke-linecap="round" stroke-linejoin="round"/>
<path d="M1174 340.795C1275.35 340.795 1519.5 340.795 1519.5 340.795L1645 224.295" stroke="black" stroke-width="1.6" stroke-linecap="round" stroke-linejoin="round"/>
<path opacity="0.52" d="M407.982 242.083C444.579 176.279 497.524 120.07 562.166 78.3944C626.808 36.7186 701.169 10.851 778.718 3.06387C856.266 -4.72322 934.629 5.80846 1006.92 33.7338C1079.22 61.6591 1143.23 106.124 1193.34 163.221" stroke="black" stroke-width="1.15" stroke-linecap="round" stroke-linejoin="round" stroke-dasharray="1 5"/>
<path opacity="0.52" d="M1256.45 256.291C1308.06 357.375 1318.67 473.14 1286.24 581.259C1253.81 689.378 1180.64 782.19 1080.84 841.796" stroke="black" stroke-width="1.15" stroke-linecap="round" stroke-linejoin="round" stroke-dasharray="1 5"/>
<path opacity="0.52" d="M911.144 904.042C803.695 922.141 693.003 904.428 597.583 853.867C502.163 803.306 427.803 722.963 386.943 626.279" stroke="black" stroke-width="1.15" stroke-linecap="round" stroke-linejoin="round" stroke-dasharray="1 5"/>
<path d="M1036.5 505.295H1372.5L1457.5 727.793H1604" stroke="black" stroke-width="1.6" stroke-linecap="round" stroke-linejoin="round"/>
<path d="M1035.5 510.795C1038.81 510.795 1041.5 508.109 1041.5 504.795C1041.5 501.481 1038.81 498.795 1035.5 498.795C1032.19 498.795 1029.5 501.481 1029.5 504.795C1029.5 508.109 1032.19 510.795 1035.5 510.795Z" fill="black" stroke="black" stroke-width="3" stroke-linecap="round" stroke-linejoin="round"/>
<path d="M1458.5 725.293C1459.88 725.293 1461 726.412 1461 727.793C1461 729.174 1459.88 730.293 1458.5 730.293C1457.12 730.293 1456 729.174 1456 727.793C1456 726.412 1457.12 725.293 1458.5 725.293Z" fill="black" stroke="black"/>
<path d="M1607.5 732.793C1610.81 732.793 1613.5 730.107 1613.5 726.793C1613.5 723.479 1610.81 720.793 1607.5 720.793C1604.19 720.793 1601.5 723.479 1601.5 726.793C1601.5 730.107 1604.19 732.793 1607.5 732.793Z" fill="black" stroke="black" stroke-width="3" stroke-linecap="round" stroke-linejoin="round"/>
<path d="M7.5 222.793H326.5L445.5 262.793" stroke="black" stroke-width="1.6" stroke-linecap="round" stroke-linejoin="round"/>
<path d="M7.5 228.793C10.8137 228.793 13.5 226.107 13.5 222.793C13.5 219.479 10.8137 216.793 7.5 216.793C4.18629 216.793 1.5 219.479 1.5 222.793C1.5 226.107 4.18629 228.793 7.5 228.793Z" stroke="black" stroke-width="3" stroke-linecap="round" stroke-linejoin="round"/>
<path d="M445.5 259.793C447.157 259.793 448.5 261.136 448.5 262.793C448.5 264.45 447.157 265.793 445.5 265.793C443.843 265.793 442.5 264.45 442.5 262.793C442.5 261.136 443.843 259.793 445.5 259.793Z" stroke="black" stroke-width="6" stroke-linecap="round" stroke-linejoin="round"/>
</g>
</svg>
