<svg width="686" height="686" viewBox="0 0 686 686" fill="none" xmlns="http://www.w3.org/2000/svg">
<path opacity="0.25" d="M281.635 304.325C289.018 292.525 299.664 283.119 312.282 277.244C324.901 271.37 338.952 269.279 352.735 271.225" stroke="#111111" stroke-width="1.35" stroke-linecap="round" stroke-linejoin="round"/>
<path opacity="0.25" d="M385.035 284.324C393.537 290.502 400.583 298.465 405.68 307.656C410.776 316.846 413.798 327.041 414.535 337.524" stroke="#111111" stroke-width="1.35" stroke-linecap="round" stroke-linejoin="round"/>
<path opacity="0.25" d="M411.235 364.725C407.591 375.95 401.244 386.108 392.752 394.304C384.26 402.499 373.883 408.482 362.535 411.725" stroke="#111111" stroke-width="1.35" stroke-linecap="round" stroke-linejoin="round"/>
<path opacity="0.25" d="M311.135 407.224C302.072 402.792 294.041 396.505 287.564 388.77C281.086 381.035 276.307 372.025 273.535 362.324" stroke="#111111" stroke-width="1.35" stroke-linecap="round" stroke-linejoin="round"/>
<path opacity="0.25" d="M247.635 329.125C249.513 315.806 254.168 303.03 261.3 291.626C268.432 280.221 277.881 270.443 289.035 262.925" stroke="#111111" stroke-width="1.35" stroke-linecap="round" stroke-linejoin="round"/>
<path opacity="0.25" d="M322.734 248.624C340.329 244.886 358.621 246.166 375.523 252.319C392.426 258.472 407.26 269.25 418.334 283.424" stroke="#111111" stroke-width="1.35" stroke-linecap="round" stroke-linejoin="round"/>
<path opacity="0.25" d="M435.835 319.324C441.313 341.214 438.906 364.333 429.035 384.624" stroke="#111111" stroke-width="1.35" stroke-linecap="round" stroke-linejoin="round"/>
<path opacity="0.25" d="M387.835 427.324C366.876 438.434 342.545 441.391 319.535 435.624" stroke="#111111" stroke-width="1.35" stroke-linecap="round" stroke-linejoin="round"/>
<path opacity="0.25" d="M267.136 401.625C255.33 386.562 248.295 368.314 246.936 349.225" stroke="#111111" stroke-width="1.35" stroke-linecap="round" stroke-linejoin="round"/>
<path opacity="0.31" d="M219.434 355.524C217.612 338.23 219.449 320.745 224.824 304.206C230.199 287.667 238.993 272.444 250.634 259.524" stroke="#111111" stroke-width="1.45" stroke-linecap="round" stroke-linejoin="round"/>
<path opacity="0.31" d="M288.334 231.025C305.276 222.754 323.881 218.455 342.734 218.455C361.587 218.455 380.192 222.754 397.134 231.025" stroke="#111111" stroke-width="1.45" stroke-linecap="round" stroke-linejoin="round"/>
<path opacity="0.31" d="M437.734 262.824C449.363 276.693 457.815 292.939 462.497 310.422C467.179 327.904 467.976 346.2 464.834 364.024" stroke="#111111" stroke-width="1.45" stroke-linecap="round" stroke-linejoin="round"/>
<path opacity="0.31" d="M445.534 411.824C435 427.455 421.041 440.479 404.718 449.905C388.395 459.332 370.138 464.913 351.334 466.224" stroke="#111111" stroke-width="1.45" stroke-linecap="round" stroke-linejoin="round"/>
<path opacity="0.31" d="M284.534 452.025C257.477 437.631 236.708 413.728 226.234 384.925" stroke="#111111" stroke-width="1.45" stroke-linecap="round" stroke-linejoin="round"/>
<path opacity="0.31" d="M191.334 380.224C181.574 341.002 187.417 299.523 207.634 264.524" stroke="#111111" stroke-width="1.45" stroke-linecap="round" stroke-linejoin="round"/>
<path opacity="0.31" d="M238.334 226.624C254.583 211.998 273.724 200.949 294.518 194.196C315.311 187.443 337.292 185.136 359.034 187.424" stroke="#111111" stroke-width="1.45" stroke-linecap="round" stroke-linejoin="round"/>
<path opacity="0.31" d="M415.936 204.824C436.856 215.944 454.968 231.683 468.899 250.846C482.829 270.009 492.212 292.094 496.336 315.424" stroke="#111111" stroke-width="1.45" stroke-linecap="round" stroke-linejoin="round"/>
<path opacity="0.31" d="M494.136 380.225C485.263 415.827 464.124 447.163 434.436 468.725" stroke="#111111" stroke-width="1.45" stroke-linecap="round" stroke-linejoin="round"/>
<path opacity="0.31" d="M380.434 493.925C355.652 500.091 329.735 500.078 304.959 493.888C280.182 487.699 257.305 475.521 238.334 458.425" stroke="#111111" stroke-width="1.45" stroke-linecap="round" stroke-linejoin="round"/>
<path opacity="0.31" d="M205.035 415.724C189.559 386.657 183.679 353.438 188.235 320.824" stroke="#111111" stroke-width="1.45" stroke-linecap="round" stroke-linejoin="round"/>
<path opacity="0.36" d="M174.935 431.724C162.967 409.2 155.658 384.496 153.441 359.086C151.225 333.676 154.148 308.08 162.035 283.824" stroke="#111111" stroke-width="1.45" stroke-linecap="round" stroke-linejoin="round"/>
<path opacity="0.36" d="M185.234 236.324C208.932 201.162 243.711 174.937 284.034 161.824" stroke="#111111" stroke-width="1.45" stroke-linecap="round" stroke-linejoin="round"/>
<path opacity="0.36" d="M362.635 153.524C395.804 157.015 427.47 169.175 454.45 188.782C481.43 208.39 502.773 234.754 516.335 265.224" stroke="#111111" stroke-width="1.45" stroke-linecap="round" stroke-linejoin="round"/>
<path opacity="0.36" d="M532.634 335.925C534.24 382.836 518.424 428.682 488.234 464.625" stroke="#111111" stroke-width="1.45" stroke-linecap="round" stroke-linejoin="round"/>
<path opacity="0.36" d="M426.035 513.324C381.773 534.9 330.863 538.449 284.035 523.224" stroke="#111111" stroke-width="1.45" stroke-linecap="round" stroke-linejoin="round"/>
<path opacity="0.36" d="M225.734 492.225C203.871 475.142 186.016 453.478 173.421 428.756C160.827 404.034 153.8 376.853 152.834 349.125" stroke="#111111" stroke-width="1.45" stroke-linecap="round" stroke-linejoin="round"/>
<path opacity="0.36" d="M159.934 475.325C127.095 430.169 112.134 374.456 117.934 318.925" stroke="#111111" stroke-width="1.45" stroke-linecap="round" stroke-linejoin="round"/>
<path opacity="0.36" d="M133.234 257.825C148.099 221.053 172.379 188.841 203.634 164.425" stroke="#111111" stroke-width="1.45" stroke-linecap="round" stroke-linejoin="round"/>
<path opacity="0.36" d="M265.436 130.125C301.455 117.023 340.214 113.297 378.07 119.297C415.926 125.298 451.633 140.827 481.836 164.425" stroke="#111111" stroke-width="1.45" stroke-linecap="round" stroke-linejoin="round"/>
<path opacity="0.36" d="M542.234 236.425C564.666 278.573 573.173 326.743 566.534 374.025" stroke="#111111" stroke-width="1.45" stroke-linecap="round" stroke-linejoin="round"/>
<path opacity="0.36" d="M538.435 455.524C509.146 506.228 461.321 543.584 405.035 559.724" stroke="#111111" stroke-width="1.45" stroke-linecap="round" stroke-linejoin="round"/>
<path opacity="0.36" d="M319.136 567.324C287.634 564.002 257.182 554.096 229.756 538.246C202.33 522.397 178.542 500.96 159.936 475.324" stroke="#111111" stroke-width="1.45" stroke-linecap="round" stroke-linejoin="round"/>
<path opacity="0.36" d="M127.834 412.324C122.148 394.819 118.622 376.685 117.334 358.324" stroke="#111111" stroke-width="1.45" stroke-linecap="round" stroke-linejoin="round"/>
<path opacity="0.4" d="M146.535 519.225C109.208 477.786 85.9634 425.591 80.1348 370.125" stroke="#111111" stroke-width="1.45" stroke-linecap="round" stroke-linejoin="round"/>
<path opacity="0.4" d="M84.5352 287.625C94.8137 239.239 118.48 194.714 152.835 159.125" stroke="#111111" stroke-width="1.45" stroke-linecap="round" stroke-linejoin="round"/>
<path opacity="0.4" d="M218.834 109.424C252.865 91.3281 290.447 80.9031 328.937 78.8818C367.428 76.8606 405.894 83.292 441.634 97.7243" stroke="#111111" stroke-width="1.45" stroke-linecap="round" stroke-linejoin="round"/>
<path opacity="0.4" d="M526.135 152.625C573.078 197.941 601.578 259.037 606.135 324.125" stroke="#111111" stroke-width="1.45" stroke-linecap="round" stroke-linejoin="round"/>
<path opacity="0.4" d="M593.835 424.125C574.649 483.156 535.277 533.539 482.635 566.425" stroke="#111111" stroke-width="1.45" stroke-linecap="round" stroke-linejoin="round"/>
<path opacity="0.4" d="M406.634 598.725C372.235 607.3 336.462 608.86 301.448 603.311C266.433 597.761 232.895 585.217 202.834 566.425" stroke="#111111" stroke-width="1.45" stroke-linecap="round" stroke-linejoin="round"/>
<path opacity="0.4" d="M123.834 490.124C103.152 459.446 89.1495 424.763 82.7344 388.324" stroke="#111111" stroke-width="1.45" stroke-linecap="round" stroke-linejoin="round"/>
<path opacity="0.4" d="M139.334 568.424C88.9194 523.049 55.1273 462.118 43.334 395.324" stroke="#111111" stroke-width="1.45" stroke-linecap="round" stroke-linejoin="round"/>
<path opacity="0.4" d="M40.4355 310.724C46.0172 257.656 65.4688 206.992 96.8355 163.824" stroke="#111111" stroke-width="1.45" stroke-linecap="round" stroke-linejoin="round"/>
<path opacity="0.4" d="M172.734 90.5243C206.566 67.6888 244.65 51.9003 284.716 44.1003C324.781 36.3003 366.007 36.6486 405.934 45.1243" stroke="#111111" stroke-width="1.45" stroke-linecap="round" stroke-linejoin="round"/>
<path opacity="0.4" d="M494.734 79.2246C562.963 118.629 613.228 182.984 634.934 258.725" stroke="#111111" stroke-width="1.45" stroke-linecap="round" stroke-linejoin="round"/>
<path opacity="0.4" d="M643.735 384.824C633.793 455.594 599.237 520.599 546.135 568.424" stroke="#111111" stroke-width="1.45" stroke-linecap="round" stroke-linejoin="round"/>
<path opacity="0.4" d="M446.736 628.225C408.369 642.182 367.584 648.269 326.814 646.121C286.043 643.974 246.124 633.636 209.436 615.725" stroke="#111111" stroke-width="1.45" stroke-linecap="round" stroke-linejoin="round"/>
<path opacity="0.4" d="M131.534 561.225C100.884 531.632 76.7965 495.926 60.834 456.425" stroke="#111111" stroke-width="1.45" stroke-linecap="round" stroke-linejoin="round"/>
<path opacity="0.4" d="M141.736 619.225C83.2829 576.782 39.7701 516.921 17.4355 448.225" stroke="#111111" stroke-width="1.45" stroke-linecap="round" stroke-linejoin="round"/>
<path opacity="0.4" d="M0.93461 354.425C-1.16867 294.428 12.5579 234.935 40.7346 181.925" stroke="#111111" stroke-width="1.45" stroke-linecap="round" stroke-linejoin="round"/>
<path opacity="0.4" d="M113.936 88.3246C173.692 34.5378 250.486 3.52236 330.836 0.724609" stroke="#111111" stroke-width="1.45" stroke-linecap="round" stroke-linejoin="round"/>
<path opacity="0.4" d="M448.436 17.2246C492.11 31.4212 532.478 54.2683 567.131 84.4033C601.785 114.538 630.014 151.344 650.136 192.625" stroke="#111111" stroke-width="1.45" stroke-linecap="round" stroke-linejoin="round"/>
<path opacity="0.4" d="M682.834 306.824C691.215 386.759 671.177 467.091 626.234 533.724" stroke="#111111" stroke-width="1.45" stroke-linecap="round" stroke-linejoin="round"/>
<path opacity="0.4" d="M523.935 632.524C485.004 656.846 441.575 673.081 396.236 680.262C350.897 687.444 304.577 685.424 260.035 674.324" stroke="#111111" stroke-width="1.45" stroke-linecap="round" stroke-linejoin="round"/>
<path opacity="0.4" d="M141.734 619.225C109.457 595.756 81.5353 566.82 59.2344 533.725" stroke="#111111" stroke-width="1.45" stroke-linecap="round" stroke-linejoin="round"/>
<g opacity="0.52">
<path d="M59.2344 533.724L90.7344 512.524" stroke="#111111" stroke-width="1.45" stroke-linecap="round" stroke-linejoin="round"/>
<path d="M69.5352 475.825L105.435 458.225" stroke="#111111" stroke-width="1.45" stroke-linecap="round" stroke-linejoin="round"/>
<path d="M91.6348 424.124L127.835 412.324" stroke="#111111" stroke-width="1.45" stroke-linecap="round" stroke-linejoin="round"/>
<path d="M120.135 381.724L155.635 375.524" stroke="#111111" stroke-width="1.45" stroke-linecap="round" stroke-linejoin="round"/>
<path d="M152.834 349.125L186.834 347.925" stroke="#111111" stroke-width="1.45" stroke-linecap="round" stroke-linejoin="round"/>
<path d="M200.035 610.925L218.835 575.625" stroke="#111111" stroke-width="1.45" stroke-linecap="round" stroke-linejoin="round"/>
<path d="M272.934 557.425L284.034 523.225" stroke="#111111" stroke-width="1.45" stroke-linecap="round" stroke-linejoin="round"/>
<path d="M269.535 480.224L284.535 452.024" stroke="#111111" stroke-width="1.45" stroke-linecap="round" stroke-linejoin="round"/>
<path d="M312.734 462.825L319.534 435.625" stroke="#111111" stroke-width="1.45" stroke-linecap="round" stroke-linejoin="round"/>
<path d="M626.234 533.724L594.734 512.524" stroke="#111111" stroke-width="1.45" stroke-linecap="round" stroke-linejoin="round"/>
<path d="M546.134 568.425L519.434 538.725" stroke="#111111" stroke-width="1.45" stroke-linecap="round" stroke-linejoin="round"/>
<path d="M482.635 566.425L462.535 534.225" stroke="#111111" stroke-width="1.45" stroke-linecap="round" stroke-linejoin="round"/>
<path d="M405.035 559.725L395.135 525.125" stroke="#111111" stroke-width="1.45" stroke-linecap="round" stroke-linejoin="round"/>
<path d="M356.035 532.025L353.635 498.125" stroke="#111111" stroke-width="1.45" stroke-linecap="round" stroke-linejoin="round"/>
<path d="M434.435 468.724L415.635 442.824" stroke="#111111" stroke-width="1.45" stroke-linecap="round" stroke-linejoin="round"/>
<path d="M445.534 411.825L422.334 396.225" stroke="#111111" stroke-width="1.45" stroke-linecap="round" stroke-linejoin="round"/>
<path d="M40.7344 181.925L74.3344 199.825" stroke="#111111" stroke-width="1.45" stroke-linecap="round" stroke-linejoin="round"/>
<path d="M96.834 163.824L129.134 187.324" stroke="#111111" stroke-width="1.45" stroke-linecap="round" stroke-linejoin="round"/>
<path d="M152.834 159.125L180.134 185.525" stroke="#111111" stroke-width="1.45" stroke-linecap="round" stroke-linejoin="round"/>
<path d="M203.635 164.425L225.735 192.825" stroke="#111111" stroke-width="1.45" stroke-linecap="round" stroke-linejoin="round"/>
<path d="M259.434 171.725L274.334 202.325" stroke="#111111" stroke-width="1.45" stroke-linecap="round" stroke-linejoin="round"/>
<path d="M310.334 189.925L316.934 221.225" stroke="#111111" stroke-width="1.45" stroke-linecap="round" stroke-linejoin="round"/>
<path d="M330.834 0.724609L332.134 38.7246" stroke="#111111" stroke-width="1.45" stroke-linecap="round" stroke-linejoin="round"/>
<path d="M405.935 45.125L397.635 84.325" stroke="#111111" stroke-width="1.45" stroke-linecap="round" stroke-linejoin="round"/>
<path d="M441.634 97.7246L427.434 133.025" stroke="#111111" stroke-width="1.45" stroke-linecap="round" stroke-linejoin="round"/>
<path d="M431.934 174.725L415.934 204.825" stroke="#111111" stroke-width="1.45" stroke-linecap="round" stroke-linejoin="round"/>
<path d="M434.435 216.324L415.635 242.224" stroke="#111111" stroke-width="1.45" stroke-linecap="round" stroke-linejoin="round"/>
<path d="M634.935 258.725L596.535 269.725" stroke="#111111" stroke-width="1.45" stroke-linecap="round" stroke-linejoin="round"/>
<path d="M606.135 324.125L568.135 326.725" stroke="#111111" stroke-width="1.45" stroke-linecap="round" stroke-linejoin="round"/>
<path d="M566.534 374.025L530.934 368.925" stroke="#111111" stroke-width="1.45" stroke-linecap="round" stroke-linejoin="round"/>
<path d="M523.435 401.225L491.135 390.725" stroke="#111111" stroke-width="1.45" stroke-linecap="round" stroke-linejoin="round"/>
<path d="M454.235 396.925L429.035 384.625" stroke="#111111" stroke-width="1.45" stroke-linecap="round" stroke-linejoin="round"/>
<path d="M141.734 619.225L164.034 588.425" stroke="#111111" stroke-width="1.45" stroke-linecap="round" stroke-linejoin="round"/>
<path d="M146.535 519.225L174.735 493.725" stroke="#111111" stroke-width="1.45" stroke-linecap="round" stroke-linejoin="round"/>
<path d="M159.934 475.325L189.034 454.225" stroke="#111111" stroke-width="1.45" stroke-linecap="round" stroke-linejoin="round"/>
<path d="M205.035 415.725L233.235 400.725" stroke="#111111" stroke-width="1.45" stroke-linecap="round" stroke-linejoin="round"/>
<path d="M250.434 369.024L273.534 362.324" stroke="#111111" stroke-width="1.45" stroke-linecap="round" stroke-linejoin="round"/>
</g>
</svg>
