<svg width="504" height="138" viewBox="0 0 504 138" fill="none" xmlns="http://www.w3.org/2000/svg">
<path d="M18 7.5C119.348 7.5 363.5 7.5 363.5 7.5L489 124" stroke="black" stroke-width="1.6" stroke-linecap="round" stroke-linejoin="round"/>
<path d="M9.05876 15.948C13.2334 15.948 16.6175 12.7137 16.6175 8.724C16.6175 4.73429 13.2334 1.5 9.05876 1.5C4.88417 1.5 1.5 4.73429 1.5 8.724C1.5 12.7137 4.88417 15.948 9.05876 15.948Z" stroke="black" stroke-width="3" stroke-linecap="round" stroke-linejoin="round"/>
<path d="M494.059 135.948C498.233 135.948 501.618 132.714 501.618 128.724C501.618 124.734 498.233 121.5 494.059 121.5C489.884 121.5 486.5 124.734 486.5 128.724C486.5 132.714 489.884 135.948 494.059 135.948Z" stroke="black" stroke-width="3" stroke-linecap="round" stroke-linejoin="round"/>
</svg>
