<svg width="1655" height="522" viewBox="0 0 1655 522" fill="none" xmlns="http://www.w3.org/2000/svg">
<path d="M35.4609 462.627H291.829L521 304" stroke="black" stroke-width="1.6" stroke-linecap="round" stroke-linejoin="round"/>
<path d="M1174 128.5C1275.35 128.5 1519.5 128.5 1519.5 128.5L1645 12" stroke="black" stroke-width="1.6" stroke-linecap="round" stroke-linejoin="round"/>
<path d="M1036.5 293H1372.5L1457.5 515.498H1604" stroke="black" stroke-width="1.6" stroke-linecap="round" stroke-linejoin="round"/>
<path d="M1035.5 298.5C1038.81 298.5 1041.5 295.814 1041.5 292.5C1041.5 289.186 1038.81 286.5 1035.5 286.5C1032.19 286.5 1029.5 289.186 1029.5 292.5C1029.5 295.814 1032.19 298.5 1035.5 298.5Z" fill="black" stroke="black" stroke-width="3" stroke-linecap="round" stroke-linejoin="round"/>
<path d="M1607.5 520.498C1610.81 520.498 1613.5 517.812 1613.5 514.498C1613.5 511.184 1610.81 508.498 1607.5 508.498C1604.19 508.498 1601.5 511.184 1601.5 514.498C1601.5 517.812 1604.19 520.498 1607.5 520.498Z" fill="black" stroke="black" stroke-width="3" stroke-linecap="round" stroke-linejoin="round"/>
<path d="M7.5 10.498H326.5L445.5 50.498" stroke="black" stroke-width="1.6" stroke-linecap="round" stroke-linejoin="round"/>
<path d="M7.5 16.498C10.8137 16.498 13.5 13.8118 13.5 10.498C13.5 7.18434 10.8137 4.49805 7.5 4.49805C4.18629 4.49805 1.5 7.18434 1.5 10.498C1.5 13.8118 4.18629 16.498 7.5 16.498Z" stroke="black" stroke-width="3" stroke-linecap="round" stroke-linejoin="round"/>
<path d="M445.5 47.498C447.157 47.498 448.5 48.8412 448.5 50.498C448.5 52.1549 447.157 53.498 445.5 53.498C443.843 53.498 442.5 52.1549 442.5 50.498C442.5 48.8412 443.843 47.498 445.5 47.498Z" stroke="black" stroke-width="6" stroke-linecap="round" stroke-linejoin="round"/>
<path d="M28.5314 469.852C32.706 469.852 36.0902 466.618 36.0902 462.628C36.0902 458.639 32.706 455.404 28.5314 455.404C24.3568 455.404 20.9727 458.639 20.9727 462.628C20.9727 466.618 24.3568 469.852 28.5314 469.852Z" stroke="black" stroke-width="3" stroke-linecap="round" stroke-linejoin="round"/>
<path d="M527.059 307.948C531.233 307.948 534.618 304.714 534.618 300.724C534.618 296.734 531.233 293.5 527.059 293.5C522.884 293.5 519.5 296.734 519.5 300.724C519.5 304.714 522.884 307.948 527.059 307.948Z" stroke="black" stroke-width="3" stroke-linecap="round" stroke-linejoin="round"/>
<path d="M1165.06 134.948C1169.23 134.948 1172.62 131.714 1172.62 127.724C1172.62 123.734 1169.23 120.5 1165.06 120.5C1160.88 120.5 1157.5 123.734 1157.5 127.724C1157.5 131.714 1160.88 134.948 1165.06 134.948Z" stroke="black" stroke-width="3" stroke-linecap="round" stroke-linejoin="round"/>
<path d="M1645.06 15.948C1649.23 15.948 1652.62 12.7137 1652.62 8.724C1652.62 4.73429 1649.23 1.5 1645.06 1.5C1640.88 1.5 1637.5 4.73429 1637.5 8.724C1637.5 12.7137 1640.88 15.948 1645.06 15.948Z" stroke="black" stroke-width="3" stroke-linecap="round" stroke-linejoin="round"/>
</svg>
