<svg width="1787" height="1675" viewBox="0 0 1787 1675" fill="none" xmlns="http://www.w3.org/2000/svg">
<path d="M1728.12 1418.57C1725 1408.36 1710.87 1398.91 1692.75 1389.86C1664.72 1375.85 1640.02 1365.87 1619.88 1352.45C1602.4 1340.8 1591.11 1323.34 1579.29 1312.27C1576.13 1309.89 1573.01 1307.55 1569.45 1304.4C1565.9 1301.24 1562 1297.35 1557.98 1293.33" stroke="black" stroke-width="11" stroke-linecap="round"/>
<path d="M1557.98 1293.33C1560.32 1283.92 1569.75 1268.19 1581.95 1257.53C1596.67 1244.68 1612.23 1233.5 1629.2 1222.49C1646.4 1211.32 1661.1 1205.94 1682.34 1193.34C1702.86 1187.8 1723.29 1181.51 1744.16 1177.94C1752.41 1177.54 1764.88 1177.54 1777.74 1177.54" stroke="black" stroke-width="11" stroke-linecap="round"/>
<path d="M1777.74 1177.54C1780.88 1166.55 1782.47 1090.02 1780.12 1042.52C1776.96 1024 1773.82 1006.7 1767.13 983.494C1765.93 975.223 1765.93 964.306 1763.56 953.059" stroke="black" stroke-width="11" stroke-linecap="round"/>
<path d="M1763.56 953.059C1745.49 953.838 1728.21 958.541 1709.67 964.46C1693.72 969.554 1677.79 975.082 1659.27 979.04C1639.06 983.36 1617.2 991.622 1594.3 1002.24C1567.05 1014.89 1547.02 1021.54 1529.31 1030.61C1508.01 1041.53 1487.94 1051.45 1473.36 1059.76C1459.58 1067.61 1443.09 1081.37 1423.77 1095.17C1396.06 1114.95 1388.7 1136.47 1376.86 1154.24C1372.91 1163.27 1370.53 1171.99 1368.18 1179.46C1366.61 1183.02 1364.27 1186.14 1361.86 1189.36" stroke="black" stroke-width="11" stroke-linecap="round"/>
<path d="M1361.86 1189.36C1343.09 1180.78 1308.36 1158.69 1289.87 1142.56C1268.95 1124.31 1246.97 1119.32 1230.77 1108.27C1208.84 1093.31 1184.73 1083.07 1170.11 1071.64C1153.18 1061.78 1138.98 1054.69 1132.3 1049.98C1128.75 1047.6 1124.85 1045.26 1118.47 1042.85" stroke="black" stroke-width="11" stroke-linecap="round"/>
<path d="M1118.47 1040.49C1121.59 1034.23 1132.6 1020.07 1145.99 1002.75C1161.35 982.867 1179.81 954.758 1192.86 929.912C1205.94 904.985 1223.95 888.548 1235 874.736C1249.1 857.109 1270.41 846.77 1290.1 836.916C1305.12 824.7 1320.79 812.129 1342.09 794.016C1346.85 790.035 1350.75 787.695 1354.77 785.285" stroke="black" stroke-width="11" stroke-linecap="round"/>
<path d="M1354.77 785.286C1351.65 775.881 1332.84 752.346 1309.55 725.904C1295.15 709.552 1271.35 703.385 1254.41 699.061C1231.68 693.259 1202.21 669.642 1177.21 650.655C1160.25 636.442 1143 625.454 1127.58 614.797C1124.02 612.032 1120.12 608.913 1113.74 605.699" stroke="black" stroke-width="11" stroke-linecap="round"/>
<path d="M1099.56 605.699C1079.12 618.27 1055.61 635.52 1037.39 649.367C1018.52 663.713 984.061 699.935 957.454 731.245C940.004 751.779 931.036 766.288 916.102 785.995C901.135 805.746 892.472 821.44 881.815 838.772C866.952 862.945 856.224 889.116 840.486 917.117C824.083 946.303 807.405 978.153 797.527 1001.42C787.393 1025.29 773.519 1055.38 766.797 1073.11C760.926 1088.6 758.538 1105 753.8 1123.9C748.031 1146.92 745.92 1168.75 739.232 1196.74C735.075 1214.14 735.664 1230.24 732.533 1253.84C728.708 1282.69 724.653 1301.13 720.718 1318.86C716.892 1336.11 712.035 1353.87 708.112 1372.42C705.755 1383.56 706.529 1394.11 705.347 1421.85C700.229 1542.05 714.35 1570.46 719.112 1590.6C723.826 1606.78 728.575 1618.59 728.965 1626.84C729.355 1631.19 730.135 1635.87 730.938 1645.41" stroke="black" stroke-width="11" stroke-linecap="round"/>
<path d="M735.666 1652.5C734.106 1650.94 679.498 1650.14 596.025 1650.53C552.896 1650.73 532.544 1654.87 515.577 1657.22C506.551 1658.79 494.712 1660.37 482.129 1661.94C476.564 1662.73 472.665 1663.51 468.648 1664.32" stroke="black" stroke-width="11" stroke-linecap="round"/>
<path d="M459.196 1669.04C457.636 1669.04 452.934 1666.7 445.857 1660.04C426.323 1641.65 429.281 1610.06 422.995 1586.43C416.546 1562.19 406.454 1546.26 399.755 1524.98C392.53 1502.03 389.11 1480.1 385.955 1459.6C383.389 1442.92 379.658 1427.31 375.735 1373.87C374.938 1363.01 366.378 1362.66 358.486 1362.26C315.134 1360.05 269.496 1375.23 245.429 1376.42C240.265 1376.81 236.367 1377.59 226.56 1377.99C216.754 1378.4 201.158 1378.4 185.09 1378.4" stroke="black" stroke-width="11" stroke-linecap="round"/>
<path d="M185.09 1378.4C184.31 1374.5 183.53 1370.6 183.129 1318.29C182.727 1265.99 182.727 1165.4 183.897 1111.24C185.396 1041.81 196.858 1024.8 202.009 1009.44C208.272 990.766 218.125 973.617 226.017 958.623C228.38 955.445 231.499 953.106 233.886 949.951C236.272 946.797 237.832 942.898 241.802 936.518" stroke="black" stroke-width="11" stroke-linecap="round"/>
<path d="M241.799 936.517C236.34 931.035 217.46 921.583 201.687 917.625C185.72 913.619 153.045 906.602 124.925 901.888C90.3405 896.09 75.6807 886.942 52.0627 882.571C46.4978 882.169 42.5989 882.169 36.3015 881.389C30.0042 880.609 21.4265 879.05 5.5 872.717" stroke="black" stroke-width="11" stroke-linecap="round"/>
<path d="M7.86519 875.078C6.28195 865.721 21.9013 793.697 35.004 749.143C43.1177 721.554 53.518 704.235 76.2736 659.881C110.611 592.954 118.878 571.907 131.875 543.587C141.428 522.77 152.716 503.428 161.825 485.635C169.841 469.977 181.119 453.758 192.131 436.024C202.375 419.525 219.636 400.26 233.093 381.664C247.29 362.045 265.383 341.894 277.198 326.925C289.712 311.069 300.828 295.438 314.604 275.743C328.649 255.663 346.481 234.001 355.98 215.877C366.151 196.471 376.443 178.092 387.868 154.852C398.086 134.069 411.888 122.137 421.742 109.129C432.876 94.4303 451.208 74.9718 465.847 53.2205C476.492 38.6054 493.742 26.0579 508.771 14.9873C511.937 12.6125 515.056 10.2732 520.633 5.5" stroke="black" stroke-width="11" stroke-linecap="round"/>
</svg>
