<svg width="910" height="1279" viewBox="0 0 910 1279" fill="none" xmlns="http://www.w3.org/2000/svg">
<path d="M468.658 5.50195C511.071 13.4189 582.533 25.2648 618.844 29.8037C644.127 32.9642 671.883 38.1822 710.59 41.7091C739.534 44.3464 765.161 51.0994 794.464 55.5937C827.342 60.6366 875.286 62.0523 897.192 67.4693C916.953 72.356 888.382 107.59 877.95 135.345C863.283 174.366 850.702 199.857 824.45 227.12C787.914 265.065 756.471 287.183 682.285 324.313C626.63 352.169 601.701 357.663 579.363 363.139C556.78 368.676 531.28 371.592 507.931 379.494C478.942 389.305 438.002 388.438 406.348 394.391C361.862 402.757 295.405 396.385 236.414 396.891C192.562 397.267 173.107 385.521 148.79 385.953C111.022 386.623 85.7812 449.87 69.8875 471.716C56.6517 489.909 40.1241 501.48 20.7928 522.314C12.8807 530.841 7.35459 539.22 5.83666 549.101C1.38684 578.069 41.9694 579.877 73.1317 592.779C136.322 618.942 174.893 620.593 196.724 627.528C228.445 637.604 269.957 649.345 357.372 658.779C420.45 665.588 542.59 660.297 608.769 659.806C696.831 659.153 724.505 652.38 750.815 648.407C763.214 646.535 774.18 644.434 784.076 645.892C808.852 649.543 805.937 688.93 810.923 712.294C816.887 740.247 820.819 770.244 828.275 799.59C834.243 823.081 840.701 846.676 846.624 868.567C848.026 873.75 850.582 878.463 850.121 882.958C847.944 904.161 804.211 922.097 765.429 941.503C733.858 957.3 648.786 961.861 603.174 969.316C573.175 974.22 538.156 974.778 530.224 982.174C519.383 992.283 525.209 1062.52 526.191 1151.78C531.161 1204.88 533.126 1234.61 537.099 1255.49C538.096 1260.48 539.078 1265.39 543.067 1273.42" stroke="#FF0404" stroke-width="11" stroke-linecap="round"/>
</svg>
