<svg width="4377" height="4377" viewBox="0 0 4377 4377" fill="none" xmlns="http://www.w3.org/2000/svg">
<path opacity="0.8" d="M2188.15 4375.59C3396.24 4375.59 4375.59 3396.24 4375.59 2188.15C4375.59 980.052 3396.24 0.699219 2188.15 0.699219C980.052 0.699219 0.699219 980.052 0.699219 2188.15C0.699219 3396.24 980.052 4375.59 2188.15 4375.59Z" stroke="black" stroke-width="1.4" stroke-linecap="round" stroke-linejoin="round" stroke-dasharray="1 7"/>
<path d="M2802.26 2274.46C2818.18 2161.19 2802.47 2045.73 2756.86 1940.85C2711.25 1835.96 2637.52 1745.72 2543.83 1680.12" stroke="black" stroke-width="2.2" stroke-linecap="round" stroke-linejoin="round"/>
<path d="M2400.23 1605.37C2280.65 1561.85 2150.57 1556.18 2027.64 1589.12C1904.72 1622.06 1794.91 1692.01 1713.11 1789.5" stroke="black" stroke-width="2.2" stroke-linecap="round" stroke-linejoin="round"/>
<path d="M1598.32 1996.52C1562.99 2105.29 1558.42 2221.71 1585.12 2332.92C1611.83 2444.12 1668.76 2545.78 1749.64 2626.65" stroke="black" stroke-width="2.2" stroke-linecap="round" stroke-linejoin="round"/>
<path d="M1926.05 2750.17C2049.77 2807.87 2189.07 2823.13 2322.34 2793.59C2455.62 2764.05 2575.43 2691.36 2663.18 2586.79" stroke="black" stroke-width="2.2" stroke-linecap="round" stroke-linejoin="round"/>
<path d="M3059.46 2421.61C3095.61 2286.67 3099.93 2145.18 3072.08 2008.29C3044.22 1871.4 2984.96 1742.85 2898.95 1632.77" stroke="black" stroke-width="2.2" stroke-linecap="round" stroke-linejoin="round"/>
<path d="M2705.52 1449.26C2569.25 1353.84 2409.24 1297.96 2243.2 1287.8C2077.15 1277.64 1911.52 1313.6 1764.64 1391.7" stroke="black" stroke-width="2.2" stroke-linecap="round" stroke-linejoin="round"/>
<path d="M1550.29 1550.29C1428.88 1671.71 1344.64 1825.26 1307.48 1992.89C1270.32 2160.53 1281.78 2335.29 1340.51 2496.64" stroke="black" stroke-width="2.2" stroke-linecap="round" stroke-linejoin="round"/>
<path d="M1477.34 2743.52C1597.93 2897.87 1765.49 3008.77 1954.69 3059.46C2143.9 3110.15 2344.46 3097.88 2526.07 3024.5" stroke="black" stroke-width="2.2" stroke-linecap="round" stroke-linejoin="round"/>
<path d="M2746.28 2898.5C2898.31 2774.03 3008.82 2602.34 3062 2408.02" stroke="black" stroke-width="2.2" stroke-linecap="round" stroke-linejoin="round"/>
<path d="M3363.55 2391.1C3380.65 2221.01 3371.92 2046.01 3338.25 1883.71" stroke="black" stroke-width="2.2" stroke-linecap="round" stroke-linejoin="round"/>
<path d="M3145.94 1492.28C3011.41 1307.11 2826.1 1164.9 2612.42 1082.88C2398.75 1000.85 2165.88 982.515 1942 1030.09" stroke="black" stroke-width="2.2" stroke-linecap="round" stroke-linejoin="round"/>
<path d="M1596.18 1162.8C1397.96 1277.25 1237.16 1446.69 1133.25 1650.63C1029.34 1854.57 986.771 2084.26 1010.7 2311.89" stroke="black" stroke-width="2.2" stroke-linecap="round" stroke-linejoin="round"/>
<path d="M1115.17 2688.49C1210.41 2892.74 1361.97 3065.56 1552.04 3186.65C1742.1 3307.74 1962.78 3372.06 2188.14 3372.07" stroke="black" stroke-width="2.2" stroke-linecap="round" stroke-linejoin="round"/>
<path d="M2514.46 3326.18C2687.35 3276.62 2846.67 3188.31 2980.33 3067.97C3114 2947.63 3218.49 2798.42 3285.87 2631.67" stroke="black" stroke-width="2.2" stroke-linecap="round" stroke-linejoin="round"/>
<path d="M3643.28 2357.28C3656.74 2173.59 3643.18 1988.52 3603.21 1810.42" stroke="black" stroke-width="2.2" stroke-linecap="round" stroke-linejoin="round"/>
<path d="M3457.6 1455.24C3341.94 1254.9 3180.51 1084.79 2986.51 958.795C2792.5 832.804 2571.44 754.517 2341.38 730.336" stroke="black" stroke-width="2.2" stroke-linecap="round" stroke-linejoin="round"/>
<path d="M1984.12 736.592C1677.59 779.678 1392.56 918.698 1169.9 1133.73C947.231 1348.76 798.354 1628.76 744.602 1933.6" stroke="black" stroke-width="2.2" stroke-linecap="round" stroke-linejoin="round"/>
<path d="M736.594 2392.18C769.991 2629.81 861.219 2855.61 1002.27 3049.75C1143.32 3243.89 1329.87 3400.43 1545.55 3505.63" stroke="black" stroke-width="2.2" stroke-linecap="round" stroke-linejoin="round"/>
<path d="M1883.7 3631.42C2130.33 3673.51 2386.93 3656.39 2621.52 3582.2C2856.11 3508.01 3058.32 3380.03 3202.94 3214.21" stroke="black" stroke-width="2.2" stroke-linecap="round" stroke-linejoin="round"/>
<path d="M3918.82 1944.93C3873.25 1620.62 3737.47 1315.64 3526.97 1064.75C3316.46 813.869 3039.7 627.179 2728.24 525.967" stroke="black" stroke-width="2.2" stroke-linecap="round" stroke-linejoin="round"/>
<path d="M2188.14 440.441C1855.45 440.437 1529.67 535.391 1249.09 714.144C968.498 892.896 744.759 1148.02 604.16 1449.54" stroke="black" stroke-width="2.2" stroke-linecap="round" stroke-linejoin="round"/>
<path d="M457.467 1944.93C410.455 2279.51 461.431 2620.54 604.224 2926.75C747.016 3232.96 975.504 3491.21 1262.03 3670.25" stroke="black" stroke-width="2.2" stroke-linecap="round" stroke-linejoin="round"/>
<path d="M1648.05 3850.32C1890.77 3929.18 2147.81 3953.92 2401.12 3922.81C2654.42 3891.7 2897.84 3805.5 3114.26 3670.25" stroke="black" stroke-width="2.2" stroke-linecap="round" stroke-linejoin="round"/>
<path d="M3484.82 3355.16C3684.08 3135.97 3823.76 2870.18 3890.74 2582.79" stroke="black" stroke-width="2.2" stroke-linecap="round" stroke-linejoin="round"/>
<path d="M3448.24 2951.89C3559 2815.04 3622.03 2670.56 3631.41 2532.05" stroke="black" stroke-width="2.2" stroke-linecap="round" stroke-linejoin="round"/>
<path d="M4118.4 1560.94C3963.41 1083.95 3637.29 681.234 3202.94 430.463" stroke="black" stroke-width="2.2" stroke-linecap="round" stroke-linejoin="round"/>
<path d="M2679.14 218.821C2345.1 135.54 1995.36 138.596 1662.83 227.704C1330.3 316.811 1025.9 489.04 778.258 728.192" stroke="black" stroke-width="2.2" stroke-linecap="round" stroke-linejoin="round"/>
<path d="M466.937 1112.63C259.019 1445.38 152.01 1831.27 158.864 2223.57C165.718 2615.88 286.141 2997.79 505.556 3323.08" stroke="black" stroke-width="2.2" stroke-linecap="round" stroke-linejoin="round"/>
<path d="M883.57 3742.92C1147.29 3964.21 1462.97 4114.77 1800.91 4180.45C2138.84 4246.14 2487.93 4224.78 2815.34 4118.4" stroke="black" stroke-width="2.2" stroke-linecap="round" stroke-linejoin="round"/>
<path d="M3323.08 3870.73C3658.37 3644.59 3918.45 3323.43 4069.97 2948.45" stroke="black" stroke-width="2.2" stroke-linecap="round" stroke-linejoin="round"/>
<path d="M2534.3 2139.49C2524.03 2066.39 2490.88 1998.42 2439.6 1945.32C2388.33 1892.22 2321.56 1856.72 2248.86 1843.9" stroke="black" stroke-width="1.4" stroke-linecap="round" stroke-linejoin="round"/>
<path d="M2127.42 1843.9C2056.79 1856.36 1991.69 1890.25 1940.97 1940.97C1890.25 1991.69 1856.36 2056.78 1843.9 2127.42" stroke="black" stroke-width="1.4" stroke-linecap="round" stroke-linejoin="round"/>
<path d="M1859.69 2307.72C1880.67 2365.37 1916.46 2416.48 1963.46 2455.92C2010.46 2495.36 2067.01 2521.73 2127.42 2532.38" stroke="black" stroke-width="1.4" stroke-linecap="round" stroke-linejoin="round"/>
<path d="M2248.86 2532.38C2309.28 2521.73 2365.83 2495.36 2412.83 2455.92C2459.82 2416.48 2495.61 2365.37 2516.6 2307.72" stroke="black" stroke-width="1.4" stroke-linecap="round" stroke-linejoin="round"/>
<path d="M2357.67 2126.47C2346.84 2096.71 2328.37 2070.33 2304.12 2049.97C2279.86 2029.62 2250.67 2016 2219.49 2010.5C2188.31 2005 2156.22 2007.8 2126.47 2018.63C2096.71 2029.45 2070.32 2047.92 2049.96 2072.18" stroke="black" stroke-width="1.4" stroke-linecap="round" stroke-linejoin="round"/>
<path d="M2008.41 2172.41C2005.18 2209.3 2013.37 2246.3 2031.88 2278.37C2050.39 2310.44 2078.32 2336.04 2111.88 2351.69C2145.44 2367.34 2183.01 2372.28 2219.48 2365.85C2255.94 2359.42 2289.55 2341.92 2315.73 2315.73" stroke="black" stroke-width="1.4" stroke-linecap="round" stroke-linejoin="round"/>
<path d="M1767.19 1390.01L1438.32 942.199" stroke="black" stroke-width="2.2" stroke-linecap="round" stroke-linejoin="round"/>
<path d="M1009.8 2315.33L925.289 2316.6" stroke="black" stroke-width="2.2" stroke-linecap="round" stroke-linejoin="round"/>
<path d="M736.114 2393.09L457.357 2408.02" stroke="black" stroke-width="2.2" stroke-linecap="round" stroke-linejoin="round"/>
<path d="M2802.66 2278.35L3078.91 2295.26" stroke="black" stroke-width="2.2" stroke-linecap="round" stroke-linejoin="round"/>
<path d="M3076.26 3140.92L3323.39 3285.44" stroke="black" stroke-width="2.2" stroke-linecap="round" stroke-linejoin="round"/>
<path d="M3338.25 1883.7L3602.8 1808.84" stroke="black" stroke-width="2.2" stroke-linecap="round" stroke-linejoin="round"/>
<path d="M2633.52 789.981L2727.52 525.004" stroke="black" stroke-width="2.2" stroke-linecap="round" stroke-linejoin="round"/>
<path d="M3146.56 1494.2L3222.32 1445.2" stroke="black" stroke-width="2.2" stroke-linecap="round" stroke-linejoin="round"/>
<path d="M2656.08 1516.12L2706.89 1448.51" stroke="black" stroke-width="2.2" stroke-linecap="round" stroke-linejoin="round"/>
<path d="M1600.56 651.434L1558.63 562.984" stroke="black" stroke-width="2.2" stroke-linecap="round" stroke-linejoin="round"/>
<path d="M1150.8 778.706L974.023 558.834" stroke="black" stroke-width="2.2" stroke-linecap="round" stroke-linejoin="round"/>
<path d="M1441.37 2449.21L1235.36 2549.94" stroke="black" stroke-width="2.2" stroke-linecap="round" stroke-linejoin="round"/>
<path d="M2007.83 2173.19L1917.7 2170.08" stroke="black" stroke-width="2" stroke-linecap="round" stroke-linejoin="round"/>
<path d="M1819.49 2582.79L1754.04 2626.87" stroke="black" stroke-width="2.2" stroke-linecap="round" stroke-linejoin="round"/>
<path d="M2188.31 3372.07L2188.15 3653.96" stroke="black" stroke-width="2.2" stroke-linecap="round" stroke-linejoin="round"/>
<path d="M1585.32 3434.33L1545.44 3502.47" stroke="black" stroke-width="2.2" stroke-linecap="round" stroke-linejoin="round"/>
<path d="M3114.34 3670.88L3209.68 3780.73" stroke="black" stroke-width="2.2" stroke-linecap="round" stroke-linejoin="round"/>
<path d="M2233.25 2441.84L2245.76 2531.15" stroke="black" stroke-width="2.2" stroke-linecap="round" stroke-linejoin="round"/>
<path d="M1688.49 3753.5L1599.59 3972.73" stroke="black" stroke-width="2.2" stroke-linecap="round" stroke-linejoin="round"/>
<path d="M468.629 1113.05L581.99 1170.12" stroke="black" stroke-width="2.2" stroke-linecap="round" stroke-linejoin="round"/>
<path d="M603.938 1451.32L857.636 1567.99" stroke="black" stroke-width="2.2" stroke-linecap="round" stroke-linejoin="round"/>
</svg>
