<svg width="4576" height="4544" viewBox="0 0 4576 4544" fill="none" xmlns="http://www.w3.org/2000/svg">
<path opacity="0.8" d="M2302.45 4540C3661.45 4579 4572.95 3464.54 4572.95 2256.45C4572.95 1048.35 3510.55 2.5 2302.45 2.5C1094.36 2.5 84.1499 941.844 7.45323 2147.5C-83.5467 3578 1094.36 4540 2302.45 4540Z" stroke="black" stroke-width="5" stroke-linecap="round" stroke-linejoin="round" stroke-dasharray="19 30"/>
<path d="M2912.02 2342.76C2927.94 2229.49 2912.22 2114.04 2866.61 2009.15C2821 1904.26 2747.28 1814.02 2653.58 1748.43" stroke="black" stroke-width="2.2" stroke-linecap="round" stroke-linejoin="round"/>
<path d="M2509.99 1673.67C2390.4 1630.15 2260.32 1624.48 2137.4 1657.42C2014.48 1690.36 1904.66 1760.32 1822.86 1857.8" stroke="black" stroke-width="2.2" stroke-linecap="round" stroke-linejoin="round"/>
<path d="M1708.07 2064.82C1672.74 2173.59 1668.17 2290.01 1694.88 2401.22C1721.58 2512.43 1778.52 2614.08 1859.39 2694.95" stroke="black" stroke-width="2.2" stroke-linecap="round" stroke-linejoin="round"/>
<path d="M2035.8 2818.47C2159.52 2876.17 2298.82 2891.43 2432.1 2861.89C2565.37 2832.35 2685.18 2759.66 2772.94 2655.09" stroke="black" stroke-width="2.2" stroke-linecap="round" stroke-linejoin="round"/>
<path d="M3169.21 2489.91C3205.36 2354.97 3209.69 2213.48 3181.83 2076.59C3153.98 1939.7 3094.71 1811.15 3008.7 1701.07" stroke="black" stroke-width="2.2" stroke-linecap="round" stroke-linejoin="round"/>
<path d="M2815.27 1517.56C2679 1422.14 2519 1366.26 2352.95 1356.1C2186.9 1345.94 2021.28 1381.9 1874.39 1460" stroke="black" stroke-width="2.2" stroke-linecap="round" stroke-linejoin="round"/>
<path d="M1660.04 1618.59C1538.63 1740.01 1454.4 1893.56 1417.24 2061.19C1380.08 2228.83 1391.53 2403.59 1450.26 2564.94" stroke="black" stroke-width="2.2" stroke-linecap="round" stroke-linejoin="round"/>
<path d="M1587.09 2811.82C1707.69 2966.17 1875.25 3077.07 2064.45 3127.76C2253.65 3178.45 2454.21 3166.18 2635.82 3092.8" stroke="black" stroke-width="2.2" stroke-linecap="round" stroke-linejoin="round"/>
<path d="M2856.04 2966.8C3008.06 2842.33 3118.58 2670.64 3171.75 2476.32" stroke="black" stroke-width="2.2" stroke-linecap="round" stroke-linejoin="round"/>
<path d="M3473.3 2459.4C3490.4 2289.31 3481.68 2114.31 3448 1952.01" stroke="black" stroke-width="2.2" stroke-linecap="round" stroke-linejoin="round"/>
<path d="M3255.7 1560.58C3121.17 1375.41 2935.85 1233.21 2722.18 1151.18C2508.5 1069.15 2275.63 1050.82 2051.75 1098.4" stroke="black" stroke-width="2.2" stroke-linecap="round" stroke-linejoin="round"/>
<path d="M1705.93 1231.11C1507.71 1345.55 1346.91 1514.99 1243 1718.93C1139.09 1922.87 1096.52 2152.56 1120.45 2380.19" stroke="black" stroke-width="2.2" stroke-linecap="round" stroke-linejoin="round"/>
<path d="M1224.92 2756.79C1320.16 2961.04 1471.72 3133.86 1661.79 3254.95C1851.86 3376.04 2072.54 3440.37 2297.9 3440.37" stroke="black" stroke-width="2.2" stroke-linecap="round" stroke-linejoin="round"/>
<path d="M2624.21 3394.48C2797.1 3344.92 2956.42 3256.61 3090.09 3136.27C3223.75 3015.93 3328.24 2866.72 3395.62 2699.97" stroke="black" stroke-width="2.2" stroke-linecap="round" stroke-linejoin="round"/>
<path d="M3753.45 2467C3766.91 2283.32 3752.93 2056.82 3712.97 1878.72" stroke="black" stroke-width="2.2" stroke-linecap="round" stroke-linejoin="round"/>
<path d="M3567.35 1523.54C3451.69 1323.2 3290.26 1153.09 3096.26 1027.1C2902.26 901.105 2681.19 822.818 2451.13 798.637" stroke="black" stroke-width="2.2" stroke-linecap="round" stroke-linejoin="round"/>
<path d="M2093.87 804.893C1787.34 847.979 1502.32 986.999 1279.65 1202.03C1056.99 1417.06 908.108 1697.06 854.355 2001.9" stroke="black" stroke-width="2.2" stroke-linecap="round" stroke-linejoin="round"/>
<path d="M846.348 2460.48C879.745 2698.11 970.973 2923.91 1112.02 3118.05C1253.07 3312.19 1439.63 3468.73 1655.31 3573.93" stroke="black" stroke-width="2.2" stroke-linecap="round" stroke-linejoin="round"/>
<path d="M1993.46 3699.72C2240.08 3741.81 2496.68 3724.69 2731.27 3650.5C2965.87 3576.31 3168.07 3448.33 3312.69 3282.51" stroke="black" stroke-width="2.2" stroke-linecap="round" stroke-linejoin="round"/>
<path d="M4028.57 2013.23C3983 1688.92 3847.23 1383.94 3636.72 1133.05C3426.22 882.169 3149.46 695.48 2837.99 594.268" stroke="black" stroke-width="2.2" stroke-linecap="round" stroke-linejoin="round"/>
<path d="M2297.9 508.742C1965.21 508.738 1639.43 603.691 1358.84 782.444C1078.25 961.197 854.513 1216.32 713.914 1517.84" stroke="black" stroke-width="2.2" stroke-linecap="round" stroke-linejoin="round"/>
<path d="M567.221 2013.23C520.209 2347.81 571.185 2688.85 713.978 2995.05C856.77 3301.26 1085.26 3559.51 1371.78 3738.55" stroke="black" stroke-width="2.2" stroke-linecap="round" stroke-linejoin="round"/>
<path d="M1757.8 3918.62C2000.52 3997.48 2257.57 4022.22 2510.87 3991.11C2764.17 3960 3007.59 3873.8 3224.01 3738.55" stroke="black" stroke-width="2.2" stroke-linecap="round" stroke-linejoin="round"/>
<path d="M3594.58 3423.46C4047.45 2911.5 4047.45 2331.5 4047.45 2331.5" stroke="black" stroke-width="2.2" stroke-linecap="round" stroke-linejoin="round"/>
<path d="M3557.99 3020.19C3668.75 2883.34 3745.58 2607.52 3754.96 2469" stroke="black" stroke-width="2.2" stroke-linecap="round" stroke-linejoin="round"/>
<path d="M4225.45 1510.5C4225.45 1510.5 4016.95 824 3312.7 498.764" stroke="black" stroke-width="2.2" stroke-linecap="round" stroke-linejoin="round"/>
<path d="M2788.89 287.122C2454.85 203.84 2105.12 206.897 1772.58 296.005C1440.05 385.112 1135.65 557.341 888.012 796.492" stroke="black" stroke-width="2.2" stroke-linecap="round" stroke-linejoin="round"/>
<path d="M576.691 1180.93C368.773 1513.68 261.764 1899.57 268.618 2291.88C275.472 2684.18 395.895 3066.1 615.31 3391.38" stroke="black" stroke-width="2.2" stroke-linecap="round" stroke-linejoin="round"/>
<path d="M993.324 3811.22C1257.05 4032.51 1572.72 4183.07 1910.66 4248.75C2248.6 4314.44 2597.69 4293.08 2925.1 4186.7" stroke="black" stroke-width="2.2" stroke-linecap="round" stroke-linejoin="round"/>
<path d="M3432.45 3939C4270.45 3484.5 4332.95 2230 4332.95 2230" stroke="black" stroke-width="2.2" stroke-linecap="round" stroke-linejoin="round"/>
<path d="M2644.06 2207.79C2633.78 2134.69 2600.63 2066.72 2549.36 2013.62C2498.08 1960.52 2431.31 1925.02 2358.62 1912.2" stroke="black" stroke-width="1.4" stroke-linecap="round" stroke-linejoin="round"/>
<path d="M2237.18 1912.2C2166.54 1924.66 2101.44 1958.55 2050.72 2009.27C2000 2059.99 1966.11 2125.08 1953.66 2195.72" stroke="black" stroke-width="1.4" stroke-linecap="round" stroke-linejoin="round"/>
<path d="M1969.44 2376.02C1990.43 2433.67 2026.22 2484.78 2073.21 2524.22C2120.21 2563.66 2176.76 2590.03 2237.18 2600.69" stroke="black" stroke-width="1.4" stroke-linecap="round" stroke-linejoin="round"/>
<path d="M2358.62 2600.69C2419.04 2590.03 2475.58 2563.66 2522.58 2524.22C2569.58 2484.78 2605.37 2433.67 2626.35 2376.02" stroke="black" stroke-width="1.4" stroke-linecap="round" stroke-linejoin="round"/>
<path d="M1876.95 1458.31L1548.08 1010.5" stroke="black" stroke-width="2.2" stroke-linecap="round" stroke-linejoin="round"/>
<path d="M1119.56 2383.63L1035.04 2384.9" stroke="black" stroke-width="2.2" stroke-linecap="round" stroke-linejoin="round"/>
<path d="M845.868 2461.39L567.111 2476.32" stroke="black" stroke-width="2.2" stroke-linecap="round" stroke-linejoin="round"/>
<path d="M567.663 2013.46L292.451 1966.7" stroke="black" stroke-width="2.2" stroke-linecap="round" stroke-linejoin="round"/>
<path d="M2912.41 2346.65L3188.66 2363.56" stroke="black" stroke-width="2.2" stroke-linecap="round" stroke-linejoin="round"/>
<path d="M3186.01 3209.22L3433.15 3353.74" stroke="black" stroke-width="2.2" stroke-linecap="round" stroke-linejoin="round"/>
<path d="M3880.92 2994L4124.27 3100.72" stroke="black" stroke-width="2.2" stroke-linecap="round" stroke-linejoin="round"/>
<path d="M3480.45 2459.63L3755.32 2465.68" stroke="black" stroke-width="2.2" stroke-linecap="round" stroke-linejoin="round"/>
<path d="M2743.28 858.282L2837.27 593.305" stroke="black" stroke-width="2.2" stroke-linecap="round" stroke-linejoin="round"/>
<path d="M3256.31 1562.5L3501.45 1426" stroke="black" stroke-width="2.2" stroke-linecap="round" stroke-linejoin="round"/>
<path d="M3924.45 1622.43L4227.98 1511.79" stroke="black" stroke-width="2.2" stroke-linecap="round" stroke-linejoin="round"/>
<path d="M2765.83 1584.43L2816.64 1516.81" stroke="black" stroke-width="2.2" stroke-linecap="round" stroke-linejoin="round"/>
<path d="M1710.31 719.735L1668.38 631.285" stroke="black" stroke-width="2.2" stroke-linecap="round" stroke-linejoin="round"/>
<path d="M1260.55 847.007L1083.78 627.135" stroke="black" stroke-width="2.2" stroke-linecap="round" stroke-linejoin="round"/>
<path d="M1551.13 2517.51L1345.12 2618.24" stroke="black" stroke-width="2.2" stroke-linecap="round" stroke-linejoin="round"/>
<path d="M2158.45 2582L2038.45 2815" stroke="black" stroke-width="2.2" stroke-linecap="round" stroke-linejoin="round"/>
<path d="M2298.07 3440.37L2297.9 3722.26" stroke="black" stroke-width="2.2" stroke-linecap="round" stroke-linejoin="round"/>
<path d="M2600.75 3690.06L2673.37 3958.87" stroke="black" stroke-width="2.2" stroke-linecap="round" stroke-linejoin="round"/>
<path d="M3224.09 3739.18L3319.43 3849.03" stroke="black" stroke-width="2.2" stroke-linecap="round" stroke-linejoin="round"/>
<path d="M2343 2510.14L2355.52 2599.45" stroke="black" stroke-width="2.2" stroke-linecap="round" stroke-linejoin="round"/>
<path d="M1798.24 3821.8L1709.34 4041.03" stroke="black" stroke-width="2.2" stroke-linecap="round" stroke-linejoin="round"/>
<path d="M578.383 1181.35L691.744 1238.42" stroke="black" stroke-width="2.2" stroke-linecap="round" stroke-linejoin="round"/>
<path d="M713.691 1519.62L967.39 1636.29" stroke="black" stroke-width="2.2" stroke-linecap="round" stroke-linejoin="round"/>
</svg>
