<svg width="728" height="751" viewBox="0 0 728 751" fill="none" xmlns="http://www.w3.org/2000/svg">
<path d="M725 79.2002C726.657 79.2002 728 77.857 728 76.2002C728 74.5433 726.657 73.2002 725 73.2002C723.343 73.2002 722 74.5433 722 76.2002C722 77.857 723.343 79.2002 725 79.2002Z" fill="#111111"/>
<path d="M223.001 26.4C224.768 26.4 226.201 24.9673 226.201 23.2C226.201 21.4327 224.768 20 223.001 20C221.233 20 219.801 21.4327 219.801 23.2C219.801 24.9673 221.233 26.4 223.001 26.4Z" fill="#111111"/>
<path d="M419.001 6.39999C420.768 6.39999 422.201 4.96731 422.201 3.2C422.201 1.43269 420.768 0 419.001 0C417.233 0 415.801 1.43269 415.801 3.2C415.801 4.96731 417.233 6.39999 419.001 6.39999Z" fill="#111111"/>
<path d="M568.001 73.4C569.768 73.4 571.201 71.9673 571.201 70.2C571.201 68.4327 569.768 67 568.001 67C566.233 67 564.801 68.4327 564.801 70.2C564.801 71.9673 566.233 73.4 568.001 73.4Z" fill="#111111"/>
<path d="M653.001 223.4C654.768 223.4 656.201 221.967 656.201 220.2C656.201 218.433 654.768 217 653.001 217C651.233 217 649.801 218.433 649.801 220.2C649.801 221.967 651.233 223.4 653.001 223.4Z" fill="#111111"/>
<path d="M695.001 346.4C696.768 346.4 698.201 344.967 698.201 343.2C698.201 341.433 696.768 340 695.001 340C693.233 340 691.801 341.433 691.801 343.2C691.801 344.967 693.233 346.4 695.001 346.4Z" fill="#111111"/>
<path d="M689.001 514.4C690.768 514.4 692.201 512.967 692.201 511.2C692.201 509.433 690.768 508 689.001 508C687.233 508 685.801 509.433 685.801 511.2C685.801 512.967 687.233 514.4 689.001 514.4Z" fill="#111111"/>
<path d="M605.001 653.4C606.768 653.4 608.201 651.967 608.201 650.2C608.201 648.433 606.768 647 605.001 647C603.233 647 601.801 648.433 601.801 650.2C601.801 651.967 603.233 653.4 605.001 653.4Z" fill="#111111"/>
<path d="M423.001 736.4C424.768 736.4 426.201 734.967 426.201 733.2C426.201 731.433 424.768 730 423.001 730C421.233 730 419.801 731.433 419.801 733.2C419.801 734.967 421.233 736.4 423.001 736.4Z" fill="#111111"/>
<path d="M263.001 750.4C264.768 750.4 266.201 748.967 266.201 747.2C266.201 745.433 264.768 744 263.001 744C261.233 744 259.801 745.433 259.801 747.2C259.801 748.967 261.233 750.4 263.001 750.4Z" fill="#111111"/>
<path d="M85.0008 668.4C86.7681 668.4 88.2008 666.967 88.2008 665.2C88.2008 663.433 86.7681 662 85.0008 662C83.2335 662 81.8008 663.433 81.8008 665.2C81.8008 666.967 83.2335 668.4 85.0008 668.4Z" fill="#111111"/>
<path d="M27.0008 194.4C28.7681 194.4 30.2008 192.967 30.2008 191.2C30.2008 189.433 28.7681 188 27.0008 188C25.2335 188 23.8008 189.433 23.8008 191.2C23.8008 192.967 25.2335 194.4 27.0008 194.4Z" fill="#111111"/>
<path d="M106.999 158C108.546 158 109.799 156.747 109.799 155.2C109.799 153.654 108.546 152.4 106.999 152.4C105.453 152.4 104.199 153.654 104.199 155.2C104.199 156.747 105.453 158 106.999 158Z" fill="#111111"/>
<path d="M510.999 163C512.546 163 513.799 161.747 513.799 160.2C513.799 158.654 512.546 157.4 510.999 157.4C509.453 157.4 508.199 158.654 508.199 160.2C508.199 161.747 509.453 163 510.999 163Z" fill="#111111"/>
<path d="M483 638.2C484.657 638.2 486 636.857 486 635.2C486 633.543 484.657 632.2 483 632.2C481.343 632.2 480 633.543 480 635.2C480 636.857 481.343 638.2 483 638.2Z" fill="#111111"/>
<path d="M6 446.2C8.76142 446.2 11 443.962 11 441.2C11 438.439 8.76142 436.2 6 436.2C3.23858 436.2 1 438.439 1 441.2C1 443.962 3.23858 446.2 6 446.2Z" stroke="#111111" stroke-width="2" stroke-linecap="round" stroke-linejoin="round"/>
<path d="M559 662.2C562.866 662.2 566 659.066 566 655.2C566 651.334 562.866 648.2 559 648.2C555.134 648.2 552 651.334 552 655.2C552 659.066 555.134 662.2 559 662.2Z" stroke="#111111" stroke-width="2" stroke-linecap="round" stroke-linejoin="round"/>
</svg>
