<svg width="948" height="237" viewBox="0 0 948 237" fill="none" xmlns="http://www.w3.org/2000/svg">
<path d="M17.6348 229.998H559.791L696.943 7.5H933.33" stroke="black" stroke-width="1.6" stroke-linecap="round" stroke-linejoin="round"/>
<path d="M7.5 235.5C10.8137 235.5 13.5 232.814 13.5 229.5C13.5 226.186 10.8137 223.5 7.5 223.5C4.18629 223.5 1.5 226.186 1.5 229.5C1.5 232.814 4.18629 235.5 7.5 235.5Z" fill="black" stroke="black" stroke-width="3" stroke-linecap="round" stroke-linejoin="round"/>
<path d="M940.5 13.5C943.814 13.5 946.5 10.8137 946.5 7.5C946.5 4.18629 943.814 1.5 940.5 1.5C937.186 1.5 934.5 4.18629 934.5 7.5C934.5 10.8137 937.186 13.5 940.5 13.5Z" fill="black" stroke="black" stroke-width="3" stroke-linecap="round" stroke-linejoin="round"/>
</svg>
