<svg width="702" height="645" viewBox="0 0 702 645" fill="none" xmlns="http://www.w3.org/2000/svg">
<path d="M5.5 609.939C28.4751 612.045 86.0288 616.215 113.163 618.711C155.339 622.589 214.572 621.859 233.904 626.071C263.812 632.587 292.405 628.892 315.001 630.64C323.404 630.998 333.954 633.083 354.897 636.242C369.586 637.316 392.519 637.316 416.147 639.422" stroke="black" stroke-width="11" stroke-linecap="round"/>
<path d="M426.679 635.208C426.679 606 425.289 542.634 416.539 513.531C410.123 492.187 401.451 468.97 394.765 445.405C386.838 417.468 369.862 374.879 365.619 357.295C360.197 334.826 346.024 302.606 333.02 281.505C316.909 255.361 309.508 243.557 301.758 231.627C293.37 218.714 275.856 206.367 260.378 193.037C237.391 173.24 224.599 162.143 210.532 151.603C206.146 148.317 200.76 143.233 197.896 137.947C188.32 120.272 202.024 102.505 213.585 85.9841C223.888 71.2624 236.392 61.0611 249.385 51.9111C262.255 42.8482 277.077 32.2526 291.503 24.5346C304.315 17.6796 317.805 7.02417 359.817 5.52895C390.38 4.44123 406.884 34.2322 431.165 56.0176C455.053 77.4508 495.373 107.264 511.209 122.016C528.643 138.256 539.596 164.755 550.894 183.792C559.562 198.397 569.121 215.38 589.106 247.947C600.518 266.545 611.238 285.506 620.388 302.079C627.412 314.8 635.119 328.382 642.848 347.661C656.71 382.239 665.991 404.867 671.646 422.104C677.154 438.895 680.775 456.84 687.082 476.488C691.304 495.462 694.821 510.224 695.874 517.226C696.232 520.754 696.232 524.228 696.232 527.808" stroke="black" stroke-width="11" stroke-linecap="round"/>
</svg>
