<svg width="1509" height="1652" viewBox="0 0 1509 1652" fill="none" xmlns="http://www.w3.org/2000/svg">
<path d="M1502.6 183.152C1499.65 170.324 1485.81 150.472 1452.14 129.652C1426.4 113.74 1384.74 97.9097 1352.4 80.0367C1331.65 68.5704 1318.19 43.3831 1294.84 25.9565C1285.03 18.6376 1274.46 11.5659 1264.57 6.08951C1260.18 3.66019 1254.67 9.45284 1251.65 13.9322C1238.41 33.5695 1237.71 65.9438 1235.24 95.2161C1234.36 105.594 1234.73 120.351 1230.31 128.432C1198 187.498 1064.19 140.471 1038.87 143.939C1033.76 144.639 1033.35 151.305 1033.34 156.782C1033.28 178.712 1052.1 201.844 1082.33 258.841C1096.45 285.465 1106.69 307.087 1116.14 330.392C1127.05 357.295 1142.4 394.353 1153.83 415.724C1165.28 437.118 1173.18 459.833 1189.03 486.635C1203.1 510.429 1222.71 524.36 1235.21 541.236C1250.78 562.262 1210.98 591.804 1185.72 619.574C1164.6 642.805 1149.49 663.236 1132.61 683.104C1113.96 705.061 1095.91 720.799 1077.09 737.199C1041.86 767.883 1006.62 718.954 978.868 691.72C960.944 674.132 949.061 652.522 936.649 627.223C924.781 603.031 911.38 584.066 903.388 561.728C895.604 539.969 882.569 519.598 866.735 503.154C846.742 482.391 810.244 517.396 788.844 533.81C771.009 547.49 747.681 555.136 699.196 582.369C662.854 602.783 639.58 609.722 619.192 620.63C601.466 630.114 592.881 646.42 582.985 653.861C578.517 657.221 573.089 656.391 568.594 654.918C549.216 648.565 541.301 621.746 526.911 608.323C511.986 594.401 503.561 575.137 500.079 552.799C497.045 533.338 488.68 513.645 482.251 493.749C480.625 488.718 472.905 486.799 466.922 485.772C443.111 481.685 415.402 497.633 387.573 499.627C351.254 502.229 326.052 510.55 295.813 513.512C282.338 514.831 269.472 517.485 257.581 520.937C252.213 522.496 249.62 527.337 247.611 533.289C233.324 575.619 255.394 659.01 272.82 697.956C284.175 723.33 297.122 740.621 313.477 761.471C333.66 787.2 357.542 809.018 380.921 841.267C419.445 894.405 429.034 924.143 443.469 947.983C458.031 972.034 475.703 992.599 497.013 1023.85C512.209 1046.13 530.229 1068.97 544.159 1092.83C565.766 1129.83 598.685 1148.38 618.061 1159.85C640.879 1173.37 670.118 1197.97 692.946 1218.85C714.371 1238.44 733.633 1250.59 761.372 1269.44C790.566 1289.29 818.875 1298.27 846.719 1310.14C870.466 1320.27 900.248 1333.93 929.059 1344.39C949.351 1351.76 969.716 1366.67 996.518 1372.68C1003.59 1374.26 1010.37 1378.57 1014.41 1384.03C1032.96 1409.15 999.658 1447.03 977.365 1473.78C941.186 1517.21 885.605 1580.9 873.64 1602.79C862.394 1623.37 851.794 1634.57 846.362 1641.52C831.728 1660.24 793.338 1616.86 775.45 1602.42C749.145 1581.19 715.953 1557.33 674.85 1534.99C643.633 1518.03 624.698 1502.74 602.837 1483.89C578.167 1462.61 553.266 1444.23 532.893 1419.93C503.525 1384.9 482.786 1361.84 464.422 1336.59C448.215 1314.3 415.462 1277.73 393.972 1250.74C371.492 1222.5 342.898 1197.19 321.097 1172.91C284.549 1132.19 262.597 1099.09 239.723 1073.66C214.037 1045.1 195.093 1016.71 181.64 995.263C165.526 969.576 136.638 906.761 119.643 866.848C101.529 824.307 85.9207 801.398 76.962 777.022C66.7236 749.164 58.1217 724.966 47.2134 694.711C35.9592 663.497 28.3583 641.628 24.8611 614.826C23.3878 607.847 20.4412 600.971 17.9411 593.501C15.4409 586.03 13.4765 578.173 5.5 558.172" stroke="#FF0404" stroke-width="11" stroke-linecap="round"/>
</svg>
