<svg width="1240" height="1240" viewBox="0 0 1240 1240" fill="none" xmlns="http://www.w3.org/2000/svg">
<path opacity="0.85" d="M619.998 1179.68C929.101 1179.68 1179.68 929.103 1179.68 620C1179.68 310.898 929.101 60.3203 619.998 60.3203C310.896 60.3203 60.3184 310.898 60.3184 620C60.3184 929.103 310.896 1179.68 619.998 1179.68Z" stroke="black" stroke-width="1.9008" stroke-linecap="round" stroke-linejoin="round" stroke-dasharray="4.22 8.45"/>
<path d="M269.98 269.98C333.494 206.467 413.093 161.433 500.247 139.704C587.4 117.974 678.824 120.368 764.72 146.63" stroke="black" stroke-width="2.2" stroke-linecap="round" stroke-linejoin="round"/>
<path d="M938.18 240.81C1004.74 296.661 1055.43 369.05 1085.15 450.7" stroke="black" stroke-width="2.2" stroke-linecap="round" stroke-linejoin="round"/>
<path d="M1114.7 602.72C1114.9 608.478 1115 614.238 1115 620" stroke="black" stroke-width="2.2" stroke-linecap="round" stroke-linejoin="round"/>
<path d="M1115 620C1115 703.962 1093.64 786.544 1052.94 859.979C1012.23 933.413 953.514 995.287 882.311 1039.78" stroke="black" stroke-width="2.2" stroke-linecap="round" stroke-linejoin="round"/>
<path d="M619.999 1115C541.883 1115 464.877 1096.51 395.275 1061.05C325.674 1025.58 265.454 974.147 219.539 910.95" stroke="black" stroke-width="2.2" stroke-linecap="round" stroke-linejoin="round"/>
<path d="M126.879 663.14C119.308 576.579 134.655 489.549 171.379 410.8" stroke="black" stroke-width="2.2" stroke-linecap="round" stroke-linejoin="round"/>
<path d="M230.289 438.27C262.189 369.864 311.534 311.059 373.363 267.766C435.192 224.474 507.327 198.219 582.519 191.64" stroke="black" stroke-width="2.2" stroke-linecap="round" stroke-linejoin="round"/>
<path d="M709.4 199.4C786.97 215.887 858.469 253.504 915.993 308.091C973.517 362.678 1014.83 432.11 1035.35 508.71" stroke="black" stroke-width="2.2" stroke-linecap="round" stroke-linejoin="round"/>
<path d="M1024.07 767.07C1002.59 826.074 968.458 879.658 924.058 924.058C879.659 968.457 826.074 1002.59 767.07 1024.07" stroke="black" stroke-width="2.2" stroke-linecap="round" stroke-linejoin="round"/>
<path d="M582.52 1048.36C504.789 1041.56 430.374 1013.74 367.249 967.873C304.124 922.01 254.667 859.835 224.18 788.01" stroke="black" stroke-width="2.2" stroke-linecap="round" stroke-linejoin="round"/>
<path d="M265.471 557.49C275.52 500.495 299.163 446.762 334.395 400.847C369.626 354.933 415.408 318.189 467.861 293.73" stroke="black" stroke-width="2.2" stroke-linecap="round" stroke-linejoin="round"/>
<path d="M526.83 272.27C593.023 254.534 662.903 256.059 728.259 276.665C793.615 297.272 851.731 336.105 895.78 388.6" stroke="black" stroke-width="2.2" stroke-linecap="round" stroke-linejoin="round"/>
<path d="M943.57 462.19C967.542 511.343 980.001 565.312 980 620" stroke="black" stroke-width="2.2" stroke-linecap="round" stroke-linejoin="round"/>
<path d="M980.001 620C980.001 667.276 970.69 714.089 952.598 757.767C934.507 801.444 907.99 841.131 874.561 874.56" stroke="black" stroke-width="2.2" stroke-linecap="round" stroke-linejoin="round"/>
<path d="M799.999 931.77C749.879 960.706 693.522 977.133 635.703 979.657C577.885 982.181 520.31 970.728 467.859 946.27" stroke="black" stroke-width="2.2" stroke-linecap="round" stroke-linejoin="round"/>
<path d="M413.511 914.89C335.301 860.126 282.05 776.536 265.471 682.51" stroke="black" stroke-width="2.2" stroke-linecap="round" stroke-linejoin="round"/>
<path d="M357.17 742.56C337.467 700.307 328.241 653.927 330.274 607.351C332.307 560.775 345.54 515.375 368.85 475" stroke="black" stroke-width="2.2" stroke-linecap="round" stroke-linejoin="round"/>
<path d="M397.85 433.59C433.333 391.302 480.15 360.02 532.798 343.421C585.446 326.821 641.738 325.592 695.06 339.88" stroke="black" stroke-width="2.2" stroke-linecap="round" stroke-linejoin="round"/>
<path d="M765 368.85C801.673 390.024 833.263 418.973 857.552 453.661C881.84 488.35 898.237 527.937 905.59 569.64" stroke="black" stroke-width="2.2" stroke-linecap="round" stroke-linejoin="round"/>
<path d="M908.9 645.28C905.208 687.465 892.322 728.328 871.149 765C849.975 801.672 821.027 833.262 786.34 857.55" stroke="black" stroke-width="2.2" stroke-linecap="round" stroke-linejoin="round"/>
<path d="M670.359 905.59C624.447 913.686 577.26 910.594 532.797 896.576C488.334 882.557 447.906 858.025 414.939 825.06" stroke="black" stroke-width="2.2" stroke-linecap="round" stroke-linejoin="round"/>
<path d="M460.9 779.1C428.249 746.45 406.434 704.544 398.416 659.071C390.398 613.598 396.565 566.759 416.08 524.91" stroke="black" stroke-width="2.2" stroke-linecap="round" stroke-linejoin="round"/>
<path d="M460.9 460.9C495.923 425.876 541.524 403.387 590.631 396.922C639.738 390.456 689.606 400.375 732.5 425.14" stroke="black" stroke-width="2.2" stroke-linecap="round" stroke-linejoin="round"/>
<path d="M779.1 460.9C799.993 481.793 816.566 506.597 827.873 533.896C839.18 561.194 845 590.452 845 620" stroke="black" stroke-width="2.2" stroke-linecap="round" stroke-linejoin="round"/>
<path d="M844.999 620C845 672.899 826.362 724.107 792.359 764.63" stroke="black" stroke-width="2.2" stroke-linecap="round" stroke-linejoin="round"/>
<path d="M732.501 814.86C704.047 831.286 672.342 841.282 639.612 844.144C606.883 847.007 573.924 842.667 543.051 831.43" stroke="black" stroke-width="2.2" stroke-linecap="round" stroke-linejoin="round"/>
<path d="M540 758.56C505.341 738.55 479.44 706.278 467.406 668.11C455.371 629.943 458.077 588.651 474.99 552.38" stroke="black" stroke-width="2.2" stroke-linecap="round" stroke-linejoin="round"/>
<path d="M488.939 528.23C509.141 499.38 538.298 478.001 571.887 467.41C605.477 456.818 641.623 457.606 674.719 469.65" stroke="black" stroke-width="2.2" stroke-linecap="round" stroke-linejoin="round"/>
<path d="M711.77 488.94C730.908 502.341 746.88 519.771 758.562 540.004C770.244 560.238 777.353 582.785 779.39 606.06" stroke="black" stroke-width="2.2" stroke-linecap="round" stroke-linejoin="round"/>
<path d="M770.349 674.72C759.933 703.341 741.563 728.394 717.399 746.935C693.235 765.477 664.281 776.736 633.939 779.39" stroke="black" stroke-width="2.2" stroke-linecap="round" stroke-linejoin="round"/>
<path d="M595.41 711.76C582.686 708.35 570.81 702.331 560.537 694.086C550.264 685.84 541.818 675.548 535.736 663.864C529.653 652.179 526.067 639.358 525.205 626.213C524.344 613.068 526.225 599.888 530.73 587.51" stroke="black" stroke-width="2.2" stroke-linecap="round" stroke-linejoin="round"/>
<path d="M542.18 565.51C550.538 553.574 561.53 543.722 574.306 536.714C587.081 529.706 601.297 525.73 615.855 525.095C630.412 524.46 644.921 527.182 658.258 533.051C671.595 538.92 683.403 547.778 692.77 558.94" stroke="black" stroke-width="2.2" stroke-linecap="round" stroke-linejoin="round"/>
<path d="M706.1 579.85C711.962 592.423 715 606.127 715 620" stroke="black" stroke-width="2.2" stroke-linecap="round" stroke-linejoin="round"/>
<path d="M715 620C715.001 642.335 707.132 663.956 692.777 681.066C678.421 698.176 658.495 709.681 636.5 713.56" stroke="black" stroke-width="2.2" stroke-linecap="round" stroke-linejoin="round"/>
<path d="M272.119 872.75L219.539 910.95" stroke="black" stroke-width="2.2" stroke-linecap="round" stroke-linejoin="round"/>
<path d="M1024.07 472.93L1085.15 450.7" stroke="black" stroke-width="2.2" stroke-linecap="round" stroke-linejoin="round"/>
<path d="M230.291 438.27L171.381 410.8" stroke="black" stroke-width="2.2" stroke-linecap="round" stroke-linejoin="round"/>
<path d="M847.869 984.66L882.309 1039.78" stroke="black" stroke-width="2.2" stroke-linecap="round" stroke-linejoin="round"/>
<path d="M958.289 743.13L1024.07 767.07" stroke="black" stroke-width="2.2" stroke-linecap="round" stroke-linejoin="round"/>
<path d="M743.131 958.29L767.071 1024.07" stroke="black" stroke-width="2.2" stroke-linecap="round" stroke-linejoin="round"/>
<path d="M265.469 682.51L196.529 694.67" stroke="black" stroke-width="2.2" stroke-linecap="round" stroke-linejoin="round"/>
<path d="M588.62 261.37L582.52 191.64" stroke="black" stroke-width="2.2" stroke-linecap="round" stroke-linejoin="round"/>
<path d="M747.635 209.27L764.73 147" stroke="black" stroke-width="2.2" stroke-linecap="round" stroke-linejoin="round"/>
<path d="M497.439 882.83L467.859 946.27" stroke="black" stroke-width="2.2" stroke-linecap="round" stroke-linejoin="round"/>
<path d="M497.439 357.17L467.859 293.73" stroke="black" stroke-width="2.2" stroke-linecap="round" stroke-linejoin="round"/>
<path d="M905.59 569.64L974.53 557.49" stroke="black" stroke-width="2.2" stroke-linecap="round" stroke-linejoin="round"/>
<path d="M825.061 825.06L874.561 874.56" stroke="black" stroke-width="2.2" stroke-linecap="round" stroke-linejoin="round"/>
<path d="M460.899 779.1L414.939 825.06" stroke="black" stroke-width="2.2" stroke-linecap="round" stroke-linejoin="round"/>
<path d="M678.23 402.67L695.06 339.88" stroke="black" stroke-width="2.2" stroke-linecap="round" stroke-linejoin="round"/>
<path d="M749.051 804.31L786.341 857.55" stroke="black" stroke-width="2.2" stroke-linecap="round" stroke-linejoin="round"/>
<path d="M474.99 552.38L416.08 524.91" stroke="black" stroke-width="2.2" stroke-linecap="round" stroke-linejoin="round"/>
<path d="M562 470L537 411" stroke="black" stroke-width="2.2" stroke-linecap="round" stroke-linejoin="round"/>
<path d="M779.391 606.06L844.141 600.39" stroke="black" stroke-width="2.2" stroke-linecap="round" stroke-linejoin="round"/>
<path d="M572.5 702.27L540 758.56" stroke="black" stroke-width="2.2" stroke-linecap="round" stroke-linejoin="round"/>
<path d="M692.77 558.94L742.57 517.15" stroke="black" stroke-width="2.2" stroke-linecap="round" stroke-linejoin="round"/>
</svg>
