<svg width="863" height="476" viewBox="0 0 863 476" fill="none" xmlns="http://www.w3.org/2000/svg">
<path d="M155 156.2H175.4V216.2H248.4V156.2H268.8V296H248.4V233.4H175.4V296H155V156.2ZM304.213 335.6C297.013 335.6 291.013 334.867 286.213 333.4V317.6C289.679 318.933 293.946 319.6 299.013 319.6C303.679 319.6 307.346 318.4 310.013 316C312.679 313.733 315.079 310 317.213 304.8L321.813 293.6L279.813 200H300.613L332.613 273.8L362.413 200H383.213L340.013 306.8C336.013 316.8 331.213 324.067 325.613 328.6C320.146 333.267 313.013 335.6 304.213 335.6ZM430.317 299C417.384 299 407.584 295.533 400.917 288.6C394.384 281.667 391.117 272.4 391.117 260.8V200H411.317V260C411.317 275.333 418.984 283 434.317 283C447.784 283 458.317 276.933 465.917 264.8V200H486.117V296H466.517V282.4C461.984 288.133 456.584 292.333 450.317 295C444.184 297.667 437.517 299 430.317 299ZM508.039 200H527.639V213.8C532.172 208.067 537.706 203.867 544.239 201.2C550.906 198.4 557.839 197 565.039 197C577.839 197 587.372 200.4 593.639 207.2C599.906 214 603.039 223.133 603.039 234.6V296H582.839V236.6C582.839 221 575.372 213.2 560.439 213.2C554.039 213.2 548.039 214.733 542.439 217.8C536.972 220.733 532.239 225.267 528.239 231.4V296H508.039V200ZM637.161 299C633.428 299 629.494 298.667 625.361 298C621.228 297.333 618.094 296.533 615.961 295.6V278.2C617.961 279 620.494 279.667 623.561 280.2C626.761 280.733 629.761 281 632.561 281C646.294 281 653.161 274.333 653.161 261V156.2H673.561V262.4C673.561 273.867 670.294 282.867 663.761 289.4C657.228 295.8 648.361 299 637.161 299ZM706.37 181.2C703.037 181.2 700.237 180.067 697.97 177.8C695.704 175.533 694.57 172.733 694.57 169.4C694.57 166.067 695.704 163.267 697.97 161C700.237 158.733 703.037 157.6 706.37 157.6C709.837 157.6 712.704 158.733 714.97 161C717.37 163.267 718.57 166.067 718.57 169.4C718.57 172.733 717.37 175.533 714.97 177.8C712.704 180.067 709.837 181.2 706.37 181.2ZM696.17 200H716.77V296H696.17V200Z" fill="#BDBAB6"/>
<path d="M92.5106 343.824C72.3099 314.977 60.7627 280.963 59.2259 245.78C57.689 210.596 66.2265 175.705 83.8349 145.206C101.443 114.708 127.391 89.8686 158.629 73.6078C189.867 57.3471 225.098 50.3404 260.181 53.4111" stroke="#BDBAB6" stroke-width="5" stroke-linecap="round"/>
<path d="M769.67 131.591C789.871 160.439 801.418 194.452 802.955 229.636C804.492 264.819 795.954 299.71 778.346 330.209C760.737 360.708 734.789 385.547 703.551 401.808C672.313 418.068 637.083 425.075 602 422.004" stroke="#BDBAB6" stroke-width="5" stroke-linecap="round"/>
<path d="M110.047 348.538C115.846 348.538 120.547 353.239 120.547 359.038C120.547 364.837 115.846 369.538 110.047 369.538C104.248 369.538 99.5474 364.837 99.5474 359.038C99.5474 353.239 104.248 348.538 110.047 348.538Z" stroke="#BDBAB6"/>
<path d="M742 87.5376C747.247 87.5376 751.5 91.7909 751.5 97.0376C751.5 102.284 747.247 106.538 742 106.538C736.753 106.538 732.5 102.284 732.5 97.0376C732.5 91.7909 736.753 87.5376 742 87.5376Z" stroke="#BDBAB6"/>
<path d="M761.498 107.538C764.812 107.538 767.498 110.224 767.498 113.538C767.498 116.851 764.812 119.538 761.498 119.538C758.184 119.538 755.498 116.851 755.498 113.538C755.498 110.224 758.184 107.538 761.498 107.538Z" stroke="#BDBAB6"/>
</svg>
