<svg width="891" height="240" viewBox="0 0 891 240" fill="none" xmlns="http://www.w3.org/2000/svg">
<path d="M139.5 99.751L134.374 94.626L130.374 90.626L125.249 85.5H48.5889L39.335 97.0674L35.5 101.861V222.5H32.1309L22.5449 217.707L17.752 222.5H17.5V17.5H35.5V57.1387L39.335 61.9326L48.5889 73.5H155.5V195.249L160.626 200.374L165.626 205.374L170.751 210.5H317.196L322.444 204.203L327.444 198.203L331.5 193.336V172.664L327.444 167.797L322.444 161.797L317.196 155.5H209.5V73.5H224.5V127.299L227.439 131.707L229.439 134.707L232.017 138.574L236.174 140.652L243.869 144.5H309.84L312.534 143.602L315.534 142.602L319.453 141.296L322.374 138.374L325.374 135.374L328.296 132.453L329.602 128.534L330.602 125.534L331.5 122.84V73.5H346.5V222.5H143.154L141.244 222.022L139.5 221.586V99.751Z" stroke="black" stroke-width="35"/>
<path d="M711 102.738L707.713 98.6299L699.209 88H621.787L609 100.787V225H398V208H571.541L574.708 206.416L576.708 205.416L579.875 203.833L582 201L588 193V71H733V158H711V102.738Z" stroke="black" stroke-width="30"/>
<path d="M537 74V155H401V74.3652L414 74.9297V122.921L417.268 132.724L420.272 135.728L423.272 138.728L426.276 141.732L436.079 145H500.921L510.724 141.732L513.728 138.728L516.728 135.728L519.732 132.724L523 122.921V74H537Z" stroke="black" stroke-width="36"/>
<path d="M794 87V215H774.333L777 213L781 210L785.722 206.459L788.36 201.181L792 193.901V87H794Z" stroke="black" stroke-width="50"/>
<mask id="path-5-inside-1_323_106" fill="white">
<path d="M768 4L767 7V39L768 42L773 46H813L817 43L819 39V7L816 2L813 0H773L768 4Z"/>
</mask>
<path d="M768 4L736.765 -35.0434L725.235 -25.8194L720.566 -11.8114L768 4ZM767 7L719.566 -8.81139L717 -1.11388V7H767ZM767 39H717V47.1139L719.566 54.8114L767 39ZM768 42L720.566 57.8114L725.235 71.8194L736.765 81.0434L768 42ZM773 46L741.765 85.0434L755.461 96H773V46ZM813 46V96H829.667L843 86L813 46ZM817 43L847 83L856.443 75.918L861.721 65.3607L817 43ZM819 39L863.721 61.3607L869 50.8034V39H819ZM819 7H869V-6.8492L861.875 -18.7248L819 7ZM816 2L858.875 -23.7248L853.09 -33.3658L843.735 -39.6025L816 2ZM813 0L840.735 -41.6025L828.139 -50H813V0ZM773 0V-50H755.461L741.765 -39.0434L773 0ZM768 4L720.566 -11.8114L719.566 -8.81139L767 7L814.434 22.8114L815.434 19.8114L768 4ZM767 7H717V39H767H817V7H767ZM767 39L719.566 54.8114L720.566 57.8114L768 42L815.434 26.1886L814.434 23.1886L767 39ZM768 42L736.765 81.0434L741.765 85.0434L773 46L804.235 6.95656L799.235 2.95656L768 42ZM773 46V96H813V46V-4H773V46ZM813 46L843 86L847 83L817 43L787 3L783 6L813 46ZM817 43L861.721 65.3607L863.721 61.3607L819 39L774.279 16.6393L772.279 20.6393L817 43ZM819 39H869V7H819H769V39H819ZM819 7L861.875 -18.7248L858.875 -23.7248L816 2L773.125 27.7248L776.125 32.7248L819 7ZM816 2L843.735 -39.6025L840.735 -41.6025L813 0L785.265 41.6025L788.265 43.6025L816 2ZM813 0V-50H773V0V50H813V0ZM773 0L741.765 -39.0434L736.765 -35.0434L768 4L799.235 43.0434L804.235 39.0434L773 0Z" fill="black" mask="url(#path-5-inside-1_323_106)"/>
<path d="M866 87V215H863V87H866Z" stroke="black" stroke-width="50"/>
<mask id="path-8-inside-2_323_106" fill="white">
<path d="M841 3L839 8V38L843 45L845 46H885L889 43L891 38V7L887 1L885 0H845L841 3Z"/>
</mask>
<path d="M841 3L811 -37L799.783 -28.5875L794.576 -15.5695L841 3ZM839 8L792.576 -10.5695L789 -1.62912V8H839ZM839 38H789V51.2782L795.588 62.8069L839 38ZM843 45L799.588 69.8069L807.099 82.9511L820.639 89.7214L843 45ZM845 46L822.639 90.7214L833.197 96H845V46ZM885 46V96H901.667L915 86L885 46ZM889 43L919 83L930.217 74.5875L935.424 61.5695L889 43ZM891 38L937.424 56.5695L941 47.6291V38H891ZM891 7H941V-8.13878L932.603 -20.735L891 7ZM887 1L928.603 -26.735L921.237 -37.7832L909.361 -43.7214L887 1ZM885 0L907.361 -44.7214L896.803 -50H885V0ZM845 0V-50H828.333L815 -40L845 0ZM841 3L794.576 -15.5695L792.576 -10.5695L839 8L885.424 26.5695L887.424 21.5695L841 3ZM839 8H789V38H839H889V8H839ZM839 38L795.588 62.8069L799.588 69.8069L843 45L886.412 20.1931L882.412 13.1931L839 38ZM843 45L820.639 89.7214L822.639 90.7214L845 46L867.361 1.27864L865.361 0.27864L843 45ZM845 46V96H885V46V-4H845V46ZM885 46L915 86L919 83L889 43L859 3L855 6L885 46ZM889 43L935.424 61.5695L937.424 56.5695L891 38L844.576 19.4305L842.576 24.4305L889 43ZM891 38H941V7H891H841V38H891ZM891 7L932.603 -20.735L928.603 -26.735L887 1L845.397 28.735L849.397 34.735L891 7ZM887 1L909.361 -43.7214L907.361 -44.7214L885 0L862.639 44.7214L864.639 45.7214L887 1ZM885 0V-50H845V0V50H885V0ZM845 0L815 -40L811 -37L841 3L871 43L875 40L845 0Z" fill="black" mask="url(#path-8-inside-2_323_106)"/>
</svg>
