<svg width="1868" height="1702" viewBox="0 0 1868 1702" fill="none" xmlns="http://www.w3.org/2000/svg">
<path d="M1419.21 105.64C1419.21 120.493 1422.17 150.424 1424.44 175.845C1426.59 199.981 1431.15 229.671 1436.4 252.893C1440.56 271.297 1444.61 292.494 1454.32 311.992C1463.75 330.899 1474.5 352.356 1486.48 374.053C1497.23 393.52 1510.39 410.692 1520.13 429.404C1543.29 454.085 1567.2 475.041 1585.18 490.747C1589.69 494.516 1594.13 497.478 1603.19 505.017" stroke="black" stroke-width="5" stroke-linecap="round" stroke-dasharray="88 88"/>
<path d="M1603.19 505.017C1594.26 510.985 1576.36 519.915 1557.65 533.377C1533.97 550.413 1518.02 564.789 1500.05 576.77C1477.64 594.675 1447.75 624.561 1424.53 647.042C1419.26 651.575 1414.81 654.536 1401.26 662.075" stroke="black" stroke-width="5" stroke-linecap="round"/>
<path d="M1396.77 662.075C1387.84 659.113 1369.94 644.215 1348.24 623.259C1330.3 605.93 1311.6 588.841 1295.87 570.914C1272.48 544.244 1259.19 527.543 1245.75 509.571C1242.72 505.062 1241.24 500.619 1239 496.109C1236.75 491.599 1233.79 487.157 1221.77 473.605" stroke="black" stroke-width="5" stroke-linecap="round"/>
<path d="M1216.79 467.707C1203.93 472.043 1183.94 486.626 1165.25 494.684C1144.75 503.524 1126.58 518.77 1109.35 532.608C1093.4 545.43 1074.98 552.315 1054.18 564.008C1044.88 569.833 1036.23 574.256 1026.94 577.89C1021.91 580.08 1016.24 582.97 1001.79 594.707" stroke="black" stroke-width="5" stroke-linecap="round" stroke-dasharray="88 88"/>
<path d="M992.789 590.707C984.987 585.828 969.383 566.163 955.236 546.424C941.106 526.709 925.485 507.02 913.712 487.281C908.189 467.542 905.087 447.877 902.714 411.775C901.938 403.471 900.387 398.591 898.789 383.707" stroke="black" stroke-width="5" stroke-linecap="round"/>
<path d="M656.789 468.707C666.639 467.231 686.423 458.328 704.128 450.835C723.908 442.463 741.616 438.912 762.823 427.75C799.561 408.414 818.037 403.123 835.041 397.15C852.045 391.178 866.183 388.181 877.476 387.443C883.165 386.704 888.769 385.228 898.789 383.707" stroke="black" stroke-width="5" stroke-linecap="round"/>
<path d="M651.871 473.605C651.871 491.42 657.794 527.364 669.776 545.336C682.231 564.019 695.219 581.212 702.691 599.184C710.987 619.141 720.618 635.061 728.875 653.773C738.483 675.55 744.58 693.397 755.036 711.369C765.898 730.039 778.954 750.207 790.935 770.445C803.571 791.79 811.891 810.069 821.606 828.041C831.007 845.431 841.777 863.918 853.758 881.89C865.74 899.862 874.715 917.766 888.895 932.014C903.855 947.045 918.063 962.64 930.784 979.872C944.046 997.834 962.937 1012 978.642 1022.52C995.927 1034.11 1006.28 1053.91 1027.22 1073.32C1060.64 1104.31 1073.6 1124.19 1095.29 1144.4C1110.75 1158.8 1134.89 1163.14 1154.39 1172.85C1172.08 1181.67 1193.23 1193.02 1212.73 1201.28C1232.24 1209.54 1248.6 1221.47 1266.58 1227.46C1284.55 1233.45 1305.41 1242.38 1324.91 1249.9C1342.59 1256.71 1360.79 1261.86 1378.76 1267.85C1396.73 1275.32 1414.64 1287.26 1436.33 1294.77C1441.61 1296.28 1446.05 1297.76 1450.63 1303.77" stroke="black" stroke-width="5" stroke-linecap="round" stroke-dasharray="88 88"/>
<path d="M1450.62 1303.77C1450.62 1336.53 1444.7 1378.44 1437.18 1397.94C1430.18 1416.1 1414.81 1433.82 1397.58 1451.79C1382.33 1467.69 1369.94 1487.66 1355.69 1505.64C1341.44 1523.61 1329.55 1535.59 1317.55 1550.51C1298.03 1574.77 1271.22 1583.42 1249.52 1599.13C1230.78 1612.7 1190.62 1625.25 1159.77 1640.28C1141.08 1649.39 1123.13 1655.22 1102.94 1664.22C1074.09 1677.07 1052.86 1679.19 1028.16 1685.18C1000.45 1691.17 976.576 1694.17 951.895 1697.9C942.202 1698.66 927.394 1698.66 912.137 1698.66" stroke="black" stroke-width="5" stroke-linecap="round"/>
<path d="M18.8459 2.50049C14.5904 26.3071 11.7818 47.1603 9.63279 76.9634C6.73099 117.206 3.27083 173.89 2.52612 214.165C2.02331 241.357 8.88808 264.911 13.867 288.068C17.8616 306.648 23.1014 324.606 26.6335 346.981C30.1422 369.208 31.6124 390.209 39.3787 411.129C49.455 438.272 54.2517 466.283 61.3796 489.44C67.1236 508.102 72.7205 525.978 79.1038 543.9C87.6726 567.959 102.509 596.056 112.424 619.952C122.585 644.439 132.297 664.701 141.511 683.362C151.449 703.492 153.575 722.875 162.788 740.797C171.446 757.64 174.852 776.575 184.066 794.497C192.724 811.339 201.747 830.274 211.024 848.196C220.629 866.752 232.982 883.973 241.515 901.895C251.053 921.931 262.771 937.672 270.601 955.594C278.693 974.117 288.304 991.371 296.836 1013.01C305.664 1035.39 318.092 1054.02 332.987 1083.09C347.077 1110.58 369.158 1142 380.521 1161.44C391.669 1180.52 407.458 1197.22 415.99 1215.14C426.804 1237.86 448.566 1255.39 464.907 1273.31C480.724 1290.66 495.376 1313.57 514.505 1337.4C558.217 1391.85 587.55 1412.02 605.338 1426.22C621.353 1439.01 635.808 1453.81 652.851 1473.19C668.664 1491.17 716.407 1532.57 775.431 1593.16C798.009 1616.34 814.538 1625.38 835.816 1641C857.136 1659.7 874.115 1668.61 891.159 1681.29C895.435 1685.03 899.648 1689.46 912.5 1698.5" stroke="black" stroke-width="5" stroke-linecap="round" stroke-dasharray="88 88"/>
<path d="M1433.71 104.933H1864.65" stroke="black" stroke-width="5" stroke-linecap="round" stroke-dasharray="88 88"/>
</svg>
