<svg width="4384" height="4384" viewBox="0 0 4384 4384" fill="none" xmlns="http://www.w3.org/2000/svg">
<path d="M1642.99 2403.12C1642.99 2420.78 1646.51 2456.36 1649.2 2486.57C1651.76 2515.26 1657.18 2550.56 1663.42 2578.16C1668.36 2600.04 1673.18 2625.23 1684.73 2648.41C1695.93 2670.88 1708.7 2696.39 1722.95 2722.18C1735.72 2745.32 1751.38 2765.73 1762.95 2787.98C1790.48 2817.31 1818.91 2842.22 1840.27 2860.89C1845.63 2865.37 1850.91 2868.89 1861.69 2877.85" stroke="black" stroke-width="6.22263" stroke-linecap="round" stroke-dasharray="109.52 109.52"/>
<path d="M1862.17 2893.39C1851.55 2900.49 1830.27 2911.1 1808.03 2927.1C1779.88 2947.35 1760.93 2964.44 1739.56 2978.68C1712.92 2999.97 1677.39 3035.49 1649.79 3062.21C1643.52 3067.6 1638.24 3071.12 1622.13 3080.08" stroke="black" stroke-width="6.22263" stroke-linecap="round"/>
<path d="M1627.09 3079.21C1616.47 3075.69 1595.19 3057.98 1569.4 3033.07C1548.07 3012.47 1525.85 2992.15 1507.15 2970.84C1479.34 2939.14 1463.54 2919.29 1447.57 2897.93C1443.97 2892.57 1442.21 2887.29 1439.54 2881.93C1436.87 2876.57 1433.35 2871.28 1419.06 2855.18" stroke="black" stroke-width="6.22263" stroke-linecap="round"/>
<path d="M1423.81 2846.12C1408.53 2851.27 1384.76 2868.61 1362.55 2878.19C1338.19 2888.69 1316.58 2906.82 1296.11 2923.27C1277.14 2938.51 1255.24 2946.69 1230.53 2960.59C1219.46 2967.51 1209.19 2972.77 1198.15 2977.09C1192.17 2979.7 1185.42 2983.13 1168.25 2997.08" stroke="black" stroke-width="6.22263" stroke-linecap="round" stroke-dasharray="109.52 109.52"/>
<path d="M1166.27 2989.87C1156.99 2984.07 1138.45 2960.69 1121.63 2937.23C1104.83 2913.8 1086.26 2890.39 1072.27 2866.93C1065.7 2843.47 1062.02 2820.09 1059.2 2777.18C1058.27 2767.31 1056.43 2761.51 1054.53 2743.81" stroke="black" stroke-width="6.22263" stroke-linecap="round"/>
<path d="M775.832 2841.44C787.54 2839.69 811.058 2829.11 832.103 2820.2C855.615 2810.25 876.665 2806.03 901.873 2792.76C945.542 2769.78 967.505 2763.49 987.717 2756.39C1007.93 2749.29 1024.73 2745.72 1038.16 2744.85C1044.92 2743.97 1051.58 2742.21 1063.49 2740.41" stroke="black" stroke-width="6.22263" stroke-linecap="round"/>
<path d="M755.398 2873.09C755.398 2894.27 762.439 2936.99 776.681 2958.36C791.487 2980.57 806.926 3001 815.807 3022.37C825.669 3046.09 837.116 3065.01 846.931 3087.26C858.353 3113.14 865.6 3134.36 878.029 3155.72C890.94 3177.91 906.459 3201.88 920.701 3225.94C935.722 3251.31 945.612 3273.04 957.16 3294.4C968.334 3315.08 981.137 3337.05 995.379 3358.41C1009.62 3379.78 1020.29 3401.06 1037.14 3418C1054.93 3435.86 1071.82 3454.4 1086.94 3474.88C1102.7 3496.23 1125.16 3513.07 1143.83 3525.58C1164.37 3539.35 1176.68 3562.9 1201.57 3585.97C1241.3 3622.8 1256.69 3646.43 1282.49 3670.46C1300.86 3687.57 1329.56 3692.73 1352.73 3704.27C1373.77 3714.75 1398.9 3728.25 1422.08 3738.07C1445.27 3747.89 1464.72 3762.07 1486.09 3769.19C1507.45 3776.31 1532.25 3786.93 1555.43 3795.86C1576.44 3803.96 1598.08 3810.08 1619.44 3817.2C1640.8 3826.08 1662.08 3840.27 1687.88 3849.2C1694.14 3850.99 1699.42 3852.75 1704.86 3859.9" stroke="black" stroke-width="6.22263" stroke-linecap="round" stroke-dasharray="109.52 109.52"/>
<path d="M1697.92 3894.1C1697.92 3933.04 1690.88 3982.86 1681.95 4006.04C1673.62 4027.62 1655.36 4048.68 1634.87 4070.05C1616.75 4088.95 1602.01 4112.69 1585.08 4134.06C1568.14 4155.42 1554.01 4169.66 1539.74 4187.4C1516.54 4216.23 1484.66 4226.52 1458.87 4245.19C1436.59 4261.32 1388.86 4276.24 1352.19 4294.1C1329.97 4304.93 1308.64 4311.87 1284.64 4322.56C1250.34 4337.84 1225.11 4340.35 1195.74 4347.47C1162.81 4354.59 1134.43 4358.17 1105.09 4362.59C1093.57 4363.5 1075.97 4363.5 1057.83 4363.5" stroke="black" stroke-width="6.22263" stroke-linecap="round"/>
<path d="M23.5983 2358.5C18.2642 2386.87 14.7437 2411.73 12.05 2447.26C8.41273 2495.22 4.07557 2562.79 3.14211 2610.8C2.51187 2643.21 11.1166 2671.29 17.3574 2698.89C22.3645 2721.04 28.9324 2742.44 33.3597 2769.11C37.7576 2795.61 39.6005 2820.64 49.3352 2845.58C61.9654 2877.93 67.9778 2911.32 76.9124 2938.92C84.1123 2961.17 91.1277 2982.48 99.1288 3003.84C109.869 3032.52 128.466 3066.01 140.895 3094.49C153.63 3123.68 165.805 3147.83 177.353 3170.08C189.811 3194.07 192.475 3217.18 204.023 3238.54C214.876 3258.61 219.146 3281.18 230.694 3302.55C241.546 3322.62 252.857 3345.19 264.485 3366.56C276.525 3388.68 292.009 3409.2 302.704 3430.57C314.66 3454.45 329.348 3473.21 339.162 3494.57C349.306 3516.65 361.352 3537.22 372.047 3563.01C383.111 3589.69 398.691 3611.9 417.36 3646.54C435.021 3679.32 462.699 3716.77 476.941 3739.94C490.916 3762.68 510.706 3782.59 521.401 3803.95C534.956 3831.03 562.233 3851.93 582.716 3873.29C602.542 3893.97 620.908 3921.27 644.885 3949.68C699.676 4014.59 736.444 4038.62 758.741 4055.56C778.815 4070.81 796.933 4088.44 818.296 4111.54C838.117 4132.97 897.96 4182.32 971.944 4254.55C1000.24 4282.17 1020.96 4292.95 1047.63 4311.57C1074.36 4333.86 1095.64 4344.48 1117 4359.6C1122.36 4364.06 1127.65 4369.34 1143.75 4380.11" stroke="black" stroke-width="6.22263" stroke-linecap="round" stroke-dasharray="109.52 109.52"/>
<path d="M1664.36 2391.09H2153.63" stroke="black" stroke-width="6.22263" stroke-linecap="round" stroke-dasharray="109.52 109.52"/>
<path d="M1646.04 2322.65C1646.04 2296.15 1648.98 2242.58 1654.92 2224.74C1660.74 2207.3 1662.34 2189.14 1671.98 2171.3C1680.15 2153.47 1692 2135.7 1703.89 2114.17C1706.87 2108.93 1709.81 2104.53 1717.29 2095.53" stroke="black" stroke-width="6.22263" stroke-linecap="round"/>
<path d="M1419.96 1971.48C1448.11 1981.85 1471.8 1987.78 1499.25 1995.93C1542.32 2008.71 1557.93 2023.4 1575.76 2030.08C1594.76 2037.2 1611.37 2045.67 1632.9 2051.62C1652.96 2059.03 1673.71 2070.88 1691.55 2074.64C1696.03 2075.37 1700.44 2076.84 1709.43 2078.36" stroke="black" stroke-width="6.22263" stroke-linecap="round"/>
<path d="M1339.27 2470.45C1339.27 2461.59 1336.33 2443.82 1335.55 2355.75C1335.27 2323.12 1343.73 2291.07 1348.16 2261.23C1352.78 2230.12 1355.57 2191.49 1361.52 2167.71C1368.59 2139.43 1380.78 2106.88 1388.97 2086.79C1397.9 2064.92 1404.56 2047.47 1407.54 2029.63C1411.95 2020.75 1417.92 2011.8 1423.84 2002.91C1426.83 1998.44 1429.77 1994.03 1437.25 1985.03" stroke="black" stroke-width="6.22263" stroke-linecap="round" stroke-dasharray="109.52 109.52"/>
<path d="M2162.82 346.433C2162.82 362.04 2164.19 388.28 2165.24 405.72C2167.08 436.14 2168.35 479.933 2169.4 531.718C2169.75 542.808 2170.43 545.4 2170.79 570.932C2171.14 596.464 2171.14 644.858 2171.14 694.717" stroke="black" stroke-width="6.22263" stroke-linecap="round" stroke-dasharray="109.52 109.52"/>
<path d="M2156.25 339.356C2156.94 339.356 2157.63 339.356 2180.84 339.356C2204.05 339.356 2249.76 339.356 2274.35 339.524C2306.66 339.745 2320.57 341.047 2333.89 342.239C2342.91 343.047 2354.15 343.431 2369.55 345.123C2380.59 346.334 2394.69 346.488 2414.65 348.515C2433.94 350.563 2443.03 350.9 2449.31 351.577C2452.13 351.918 2454.21 352.255 2460.55 353.62" stroke="black" stroke-width="6.22263" stroke-linecap="round" stroke-dasharray="109.52 109.52"/>
<path d="M2518.84 60.3196C2515.74 74.7256 2512.63 87.0295 2507.96 102.858C2504.18 115.659 2499.41 132.371 2492.78 155.031C2486.27 177.295 2483.8 188.057 2479.92 198.362C2476.2 208.249 2476.79 219.631 2472.53 233.388C2467.35 250.102 2468.24 269.795 2467.06 285.592C2466.28 296.047 2462.02 306.892 2458.5 318.238C2458.1 324.74 2457.33 330.284 2455.39 334.736C2454.22 337.147 2452.68 339.867 2451.09 346.792" stroke="black" stroke-width="6.22263" stroke-linecap="round"/>
<path d="M1924.33 20.453C1929.19 20.453 1948.66 16.568 1962.4 14.2428C1973.21 12.4135 1983.02 11.3094 1996.65 10.3185C2010.34 9.32249 2027.07 7.38511 2035.47 6.39423C2048.73 4.83061 2066.93 3.46082 2120.6 3.11745C2145.94 2.95527 2171.1 6.05085 2186.46 8.34656C2209.33 11.7621 2229.04 10.6423 2245.58 12.2709C2257.81 13.4758 2267.59 14.5666 2279.49 16.1951C2293.39 18.0989 2321.25 19.7859 2349.02 23.7102C2370.91 26.8024 2386.4 26.3394 2399.06 27.968C2410.9 29.491 2419.34 31.5587 2431.22 32.5496C2441.29 33.389 2452.19 36.1502 2461.3 39.4073C2469.9 42.479 2481.55 43.3316 2493.45 47.2559C2507.46 48.5705 2515.83 49.8852 2523.16 50.2089C2526.34 50.5327 2528.42 51.1802 2530.56 51.8473" stroke="black" stroke-width="6.22263" stroke-linecap="round"/>
<path d="M2853.5 3458.55C2860.52 3454.76 2869.17 3452.6 2881.88 3447.2C2897.45 3440.58 2906.55 3437.46 2915.5 3432.03C2926.25 3425.5 2933.1 3420.1 2938.26 3415.23C2944.78 3409.08 2956.93 3405.47 2967.23 3398.45C2978.36 3390.86 2984.04 3382.2 2991.34 3373C3002.91 3358.41 3008.42 3352.94 3013.03 3346.7C3019.26 3342.09 3024.67 3336.69 3030.63 3331.8C3032.26 3330.71 3033.87 3329.64 3035.53 3328.53" stroke="black" stroke-width="6.22263" stroke-linecap="round"/>
<path d="M2926.98 2758.24C2949.28 2760.63 2993.97 2770.29 3122.52 2773.96C3199.81 2776.17 3274.04 2784.82 3337.5 2788.49C3390.49 2791.55 3442.07 2799.35 3496.18 2807.85C3546.26 2809.09 3587.82 2811.48 3610.16 2815.11C3621.42 2816.35 3632.51 2816.35 3666.35 2823.61" stroke="black" stroke-width="6.22263" stroke-linecap="round"/>
<path d="M3655.95 2839.39C3655.95 2851.26 3652.78 2878.47 3642.39 2900.7C3633.23 2920.3 3631.95 2944.98 3623.19 2967.21C3615.24 2987.39 3612.76 3008.11 3604 3028.6C3595.49 3048.52 3587.23 3069.51 3578.4 3095.09C3569.12 3121.97 3553.64 3141.13 3540.82 3161.62C3528.01 3182.11 3515.25 3202.52 3502.43 3223.01C3489.62 3243.5 3480.02 3263.91 3460.08 3288.65C3443.22 3310.01 3430.5 3327.05 3415.26 3344.95C3411.26 3349.25 3406.51 3352.63 3396.81 3361.22" stroke="black" stroke-width="6.22263" stroke-linecap="round"/>
<path d="M3396.53 3377.63C3406.42 3380.91 3426.27 3394.14 3446.19 3403.29C3468.1 3413.36 3494.21 3430.54 3519.95 3447.21C3540.64 3460.6 3560.55 3473.72 3580.47 3482.05C3600.38 3490.37 3620.24 3503.56 3640.16 3512.71C3650.08 3518.48 3660.08 3523.5 3670 3526.81C3675 3528.47 3679.92 3530.12 3689.97 3536.78" stroke="black" stroke-width="6.22263" stroke-linecap="round"/>
<path d="M4006.86 2287.35C4072.24 2278.02 4147.94 2275.97 4169.64 2274.4C4192.84 2272.72 4220.66 2269.75 4244.42 2265.6C4265.56 2261.91 4290.53 2257.31 4309.44 2253.68C4331.13 2252.12 4349.29 2249.01 4362.54 2247.46C4368.87 2246.93 4374.41 2246.93 4380.11 2246.93" stroke="black" stroke-width="6.22263" stroke-linecap="round"/>
<path d="M4281.45 1733.99C4287.12 1738.99 4296.2 1756.66 4307.58 1781.29C4318.35 1804.56 4324.67 1841.28 4329.79 1865.34C4333.74 1883.87 4340.58 1910.73 4349.13 1938.62C4355.96 1960.87 4356.56 1986.56 4362.79 2010.67C4367.94 2030.6 4369.05 2051.08 4373.61 2070.7C4377.04 2106.55 4378.17 2158.56 4379.88 2174.89C4380.46 2187.45 4380.46 2208.72 4373.63 2234.43" stroke="black" stroke-width="6.22263" stroke-linecap="round"/>
<path d="M3679.33 3514.47C3682.98 3510.22 3687.87 3501.67 3693.37 3494.03C3699.3 3485.77 3700.71 3476 3705.28 3466.83C3710.14 3457.1 3718.39 3443.07 3732.13 3422.59C3758.42 3383.41 3763.02 3370.31 3770.38 3358.95C3775 3351.82 3786.2 3328.24 3794.53 3311.27C3798.22 3303.76 3800.35 3296.3 3809.17 3272.23C3818.45 3246.91 3821.73 3239.45 3826.01 3231.81C3830.95 3222.96 3835.78 3214.4 3844.32 3203.11C3862.89 3178.53 3866.95 3166.1 3870.63 3159.06C3875.16 3150.4 3882.83 3140.43 3889.88 3125.48C3894.49 3115.67 3899.96 3102.58 3905.16 3089.11C3912.17 3070.94 3915.25 3062.2 3916.48 3053.03C3918.43 3038.45 3926.84 3023.15 3929.02 3012.06C3930.57 3004.12 3931.76 2994.36 3934.21 2984.87C3936.84 2974.67 3939.72 2964.38 3944.26 2944.38C3948.4 2926.1 3957.87 2891.71 3962.55 2872.73C3967.79 2851.46 3968.43 2845.2 3970.27 2838.79C3971.54 2834.34 3975.73 2807.52 3983.07 2768.41C3988.11 2741.54 3989.23 2722.97 3990.75 2710.74C3992.57 2696.13 3992.89 2681.45 3995.94 2667.64C3997.06 2662.54 4000.8 2642.41 4007.22 2614.31C4012.76 2590.05 4014.9 2567.72 4016.42 2546.41C4018.79 2513.16 4017.94 2485.21 4019.78 2472.1C4020.4 2457.19 4021.01 2446.66 4021.92 2422.42C4022.23 2400.6 4022.23 2359.45 4022.23 2317.05" stroke="black" stroke-width="6.22263" stroke-linecap="round"/>
<path d="M2183.67 2385.16H2706.59" stroke="black" stroke-width="6.22263" stroke-linecap="round"/>
<path d="M2635.28 2663.49C2644.04 2664.61 2663.85 2669.12 2678.21 2673.65C2691.55 2677.85 2706.82 2682.68 2723.93 2687.21C2739.31 2691.27 2754.23 2699.63 2770.76 2703.6C2787.11 2707.52 2802.7 2713.19 2821.44 2718.83C2845.64 2726.12 2862.21 2731.29 2879.32 2737.48C2894.21 2742.58 2911.8 2747.09 2927.25 2751.61C2931.67 2752.75 2937.12 2753.87 2952.66 2755.02" stroke="black" stroke-width="6.22263" stroke-linecap="round" stroke-dasharray="109.52 109.52"/>
<path d="M2950.97 2765.19C2950.97 2798.31 2946.14 2860.08 2940.01 2880.65C2934.22 2900.05 2926.59 2915.31 2918.07 2930.74C2909.21 2946.76 2898.56 2961.53 2890.01 2978.22C2876.91 3003.83 2855.88 3014.14 2838.79 3030.87C2823.57 3045.77 2808.31 3062.97 2793.65 3076.45C2780.62 3088.43 2764.39 3096.32 2728.47 3117.51C2709.45 3128.48 2697.26 3134.88 2687.53 3141.29C2682.62 3143.89 2677.79 3145.16 2672.82 3150.32" stroke="black" stroke-width="6.22263" stroke-linecap="round"/>
<path d="M2674.7 3166.31C2685.64 3180.16 2700.24 3195.23 2711.25 3211.67C2721.28 3226.65 2730.76 3241.93 2741.13 3259.61C2749.88 3274.52 2760.03 3289.85 2772.84 3309.44C2782.82 3324.71 2786.89 3340.35 2795.41 3355.5C2804.27 3371.25 2814.92 3385.77 2830.76 3404.07C2841.78 3419.87 2849.1 3431.22 2853.96 3438.77C2856.42 3442.58 2858.83 3446.33 2861.32 3453.97" stroke="black" stroke-width="6.22263" stroke-linecap="round"/>
<path d="M2176.93 2383.79V2943.46" stroke="black" stroke-width="6.22263" stroke-linecap="round"/>
<path d="M2164.7 2944.3C2171.75 2944.3 2180.84 2943.3 2190.69 2942.53C2202.12 2941.64 2211.17 2940.26 2218.01 2939.5C2225.9 2938.61 2238.92 2936.23 2253.87 2932.18C2271.47 2927.41 2281.93 2927.13 2293.3 2925.6C2308.82 2923.51 2314.81 2921.06 2332.96 2917.01C2350.21 2913.17 2373.38 2906.93 2388.83 2902.11C2412.69 2894.66 2419.45 2889.73 2437.36 2879.63C2449.31 2872.88 2463.86 2861.98 2481.85 2851.32C2497.4 2842.11 2505.87 2834.13 2515.5 2826.03C2526.03 2817.18 2545.72 2799.86 2557.47 2789.12C2564.64 2782.57 2569.59 2775.47 2573.15 2769.41C2578.55 2760.21 2584.76 2752.24 2590.83 2745.4C2602.32 2732.47 2618.64 2715.33 2625.46 2707.74C2633.01 2699.34 2639.87 2691.06 2644.93 2686.25C2645.95 2684.98 2646.45 2683.48 2647.46 2682.2C2648.47 2680.93 2649.97 2679.93 2653.03 2675.86" stroke="black" stroke-width="6.22263" stroke-linecap="round" stroke-dasharray="109.52 109.52"/>
<path d="M2351.43 3657.19C2367.98 3655.22 2392.32 3649.89 2416.28 3644.25C2429.86 3641.06 2437.77 3641.24 2445.46 3639.59C2454.27 3637.69 2465.91 3637.26 2482.82 3633.63C2520.14 3625.62 2527.99 3616 2540.77 3608.38C2546.13 3605.18 2551.67 3604.04 2570.71 3598.43C2617.09 3584.76 2650.85 3578.13 2655.32 3575.81C2665.82 3570.34 2677.05 3572.15 2689.2 3567.5C2708.46 3560.14 2723.08 3556.88 2736.57 3550.23C2746.15 3545.51 2756.41 3540.25 2765.69 3535.93C2774.01 3532.07 2785.81 3527.65 2795.12 3521.65C2805.61 3514.89 2820.98 3503.09 2830 3493.75C2837.81 3485.67 2847.89 3480.49 2857.82 3473.81C2860.08 3472.47 2861.98 3471.16 2863.91 3469.82C2865.84 3468.48 2867.74 3467.17 2869.7 3465.81" stroke="black" stroke-width="6.22263" stroke-linecap="round" stroke-dasharray="109.52 109.52"/>
<path d="M2361.36 3676.03C2363.83 3685.84 2365.45 3703.9 2370.39 3728.55C2373.64 3744.82 2373.69 3756.53 2376.15 3772.16C2378.85 3789.4 2380.25 3804.23 2381.5 3833.35C2382.96 3867.43 2385.18 3911.92 2386.43 3941.06C2387.05 3955.65 2390.12 3967.02 2391.36 3985.08C2392.23 3997.59 2395.05 4010.57 2396.3 4041.76C2397.25 4065.67 2399.98 4095.27 2401.23 4117.43C2402.03 4131.72 2405.75 4149.48 2408.21 4166.78C2411 4186.46 2412.32 4206.26 2413.56 4218.18C2414.9 4231.02 2417.25 4247.35 2418.49 4264.21C2418.9 4267.94 2419.71 4270.38 2420.13 4274.49C2420.55 4278.6 2420.55 4284.29 2420.55 4290.16" stroke="black" stroke-width="6.22263" stroke-linecap="round" stroke-dasharray="109.52 109.52"/>
<path d="M1557.25 856.41C1557.18 855.221 1557.81 853.397 1560.87 850.523C1563.95 847.622 1569.45 845.736 1572.76 844.069C1576.71 842.073 1580.1 839.756 1589.37 834.283C1594.08 831.501 1599.61 828.901 1608.95 824.552C1615.57 821.471 1621 819.062 1625.99 816.919C1632.54 814.109 1638.67 812.039 1644.13 809.885C1648.52 808.154 1655.52 805.291 1661.81 802.863C1668.46 800.299 1672.58 798.196 1679.01 795.79C1683.89 793.968 1689.14 791.531 1698.71 787.988C1712.77 782.781 1723.25 780.183 1728.28 778.774C1739.95 775.503 1748.59 772.195 1750.73 771.239C1760.09 767.06 1775.57 762.601 1786.64 758.979C1790.29 757.784 1792.89 757.315 1796.53 756.282C1801.89 754.761 1817.21 750.328 1836 744.371C1847.66 740.672 1856.72 738.334 1862.21 736.843C1872.01 734.186 1877.64 732.841 1887.29 729.953C1894.46 727.806 1909.12 724.096 1923.29 720.367C1934.46 717.43 1942.64 716.465 1945.82 715.916C1958.11 713.801 1973.49 711.306 1977.88 710.645C1983.48 709.802 1992.32 708.913 1997.71 708.411C2003.69 707.855 2008.93 708.057 2012.87 707.877C2018.29 707.63 2027.97 707.221 2033.47 706.617C2037.63 706.16 2041.73 706.064 2045.43 705.626C2049.84 705.102 2053.95 704.986 2060.96 704.835C2065.25 704.742 2068.88 704.663 2073.33 704.658C2077.09 704.653 2080.79 704.498 2084.45 704.409C2088.1 704.32 2091.74 704.232 2095.89 704.727C2100.44 705.269 2104.8 704.778 2108.75 705.136C2112.9 705.513 2116.94 705.349 2121.45 705.529C2125.96 705.71 2130.87 705.752 2134.47 705.483C2140.17 705.057 2147.18 705.937 2152.44 706.545C2162.42 707.701 2167.62 708.443 2173.05 709.138C2176.91 709.663 2179.6 710.419 2182.9 710.652C2183.7 710.734 2184.37 710.922 2185.05 711.115" stroke="black" stroke-width="6.22263" stroke-linecap="round"/>
<path d="M2162.92 1798.55V2362.35" stroke="black" stroke-width="6.22263" stroke-linecap="round"/>
<path d="M2156.16 1800.25C2194.6 1800.25 2275.87 1802.9 2312.88 1814.29C2339.43 1822.46 2386.7 1825.68 2424.85 1833.08C2431.06 1835.09 2436.29 1837.75 2441.61 1840.44C2446.92 1843.14 2452.16 1845.79 2462.84 1852.55" stroke="black" stroke-width="6.22263" stroke-linecap="round"/>
<path d="M2453.7 1847.48C2459.17 1829.24 2477.56 1803.63 2492.3 1777.07C2506.02 1752.34 2530.9 1728.58 2547.52 1700.15C2562.26 1677.21 2591.52 1644.41 2613.77 1616.8C2617.47 1611.27 2621.12 1605.83 2624.87 1600.23" stroke="black" stroke-width="6.22263" stroke-linecap="round" stroke-dasharray="109.52 109.52"/>
<path d="M2618 1597.33C2634.13 1605.06 2655.66 1612.8 2680.85 1627.32C2698.87 1647.71 2720.4 1663.19 2740.22 1679.68C2743.86 1684.54 2745.64 1690.3 2758.27 1707.87" stroke="black" stroke-width="6.22263" stroke-linecap="round" stroke-dasharray="109.52 109.52"/>
<path d="M2749.01 1703.54C2750.74 1691.63 2764.6 1671.09 2790.75 1649.7C2814.45 1630.31 2846.5 1616.35 2872.71 1595.78C2892.99 1579.86 2911.04 1559.86 2927.65 1540.14C2943.55 1521.26 2968.58 1508.51 2993.86 1484.53C3000.01 1479.34 3005.19 1475.95 3010.44 1471.67C3015.7 1467.38 3020.88 1462.29 3036.67 1446.79" stroke="black" stroke-width="6.22263" stroke-linecap="round" stroke-dasharray="109.52 109.52"/>
<path d="M1742.55 1173.76C1761.89 1164.1 1817.15 1138.05 1843.3 1131.5C1866.54 1125.68 1880.72 1119.31 1903.47 1112.8C1917.88 1108.67 1948.05 1100.63 1972.18 1097.33C2000.31 1093.49 2016.5 1090.04 2031.56 1087.57C2050.87 1084.42 2065.29 1080.28 2090.44 1076.6C2140.44 1069.27 2173.26 1073.74 2208.32 1071.72C2272.58 1068.01 2293.72 1073.74 2309.27 1076.17C2324.73 1078.58 2347.38 1081.84 2370.63 1085.52C2384.87 1087.78 2397.88 1090.82 2412.53 1093.25C2425.22 1095.35 2439.35 1102.19 2451.98 1103.42C2463.27 1104.52 2475.94 1109.5 2488.15 1113.16C2507.01 1118.82 2521.46 1124.14 2534.5 1129.83C2552.24 1137.56 2564.59 1137.95 2579.22 1142.03C2598.58 1147.44 2619.87 1153.41 2633.3 1158.7C2647.73 1164.37 2662.95 1168.83 2676.81 1173.75C2691.34 1178.9 2707.69 1185.13 2718.69 1190.81C2730.34 1196.83 2741.84 1201.37 2752.85 1206.27C2766.97 1212.55 2776.83 1221.72 2788.62 1227.4C2799.78 1232.78 2812.59 1239.58 2825.21 1246.92C2835.66 1253 2845.13 1261.53 2857.33 1270.9C2868.47 1279.46 2885.72 1285.93 2901.24 1295.7C2914.06 1303.77 2923.19 1311.15 2933.36 1318.47C2950.38 1330.71 2963.05 1349.35 2971.59 1355.07C2980.92 1361.32 2989.06 1371.31 2998.83 1380.67C3007.15 1388.65 3016.72 1393.26 3025.66 1401.01C3035.43 1409.56 3046.77 1416.05 3054.95 1424.99C3056.58 1427.44 3058.19 1429.85 3059.85 1432.34" stroke="black" stroke-width="6.22263" stroke-linecap="round" stroke-dasharray="109.52 109.52"/>
<path d="M1568.95 860.913C1576.45 881.503 1586.45 894.669 1598.56 907.068C1608.68 917.415 1623.19 929.316 1634.08 942.531C1644.64 955.345 1654.12 968.913 1662.07 984.182C1671.25 1001.79 1684.19 1020.88 1694.64 1038.21C1703.62 1053.08 1712.61 1061.32 1723.46 1075.34C1731.93 1086.27 1737.67 1098.44 1742.29 1108.36C1747.99 1120.63 1757.72 1133.09 1764.42 1143C1766.1 1145.49 1767.75 1147.94 1769.43 1150.43C1771.11 1152.91 1772.76 1155.36 1776.97 1162.84" stroke="black" stroke-width="6.22263" stroke-linecap="round"/>
<path d="M2149.03 717.033C2155.85 717.033 2193.47 717.033 2247.27 717.459C2280.96 717.726 2303.06 724.783 2319.49 726.927C2334.07 728.83 2351.32 729.95 2365.99 732.094C2379.7 734.098 2395.24 735.117 2410.76 737.688C2430.77 740.999 2452.9 747.156 2471.03 751.457C2495.7 757.307 2510.67 762.657 2529.15 768.25C2556.62 776.562 2589.82 783.325 2651.27 798.774C2685.7 807.429 2700.08 816.031 2712.61 822.503C2727.17 830.021 2744.88 835.872 2756.53 841.013C2769.24 846.62 2779.35 852.2 2793.98 859.098C2807.24 865.346 2820.68 872.867 2842.18 884.48C2858.41 893.252 2876.59 906.401 2896.43 918.065C2927.6 936.394 2949.75 950.32 2968.37 962.85C2984.75 973.881 2996.36 983.078 3009.27 991.281C3023.03 1000.02 3032.53 1009.79 3050.16 1019.69C3069.04 1030.29 3081.61 1042.5 3096.25 1050.27C3107.88 1056.46 3119.49 1065.75 3131.14 1072.23C3146.13 1080.58 3159.94 1094.99 3172.47 1102.81C3185.36 1110.85 3195.28 1120 3206.06 1126.06C3223.22 1135.71 3241.79 1148.42 3252.56 1154.9C3265.06 1164.83 3273.67 1171.67 3283.56 1180.3C3286.58 1182.88 3289.99 1186.29 3298.67 1189.81" stroke="black" stroke-width="6.22263" stroke-linecap="round"/>
</svg>
