<svg width="1375" height="1861" viewBox="0 0 1375 1861" fill="none" xmlns="http://www.w3.org/2000/svg">
<path d="M1372.48 1404.81V1857.84" stroke="black" stroke-width="5" stroke-linecap="round"/>
<path d="M1007.73 1561.21C1010.37 1555.92 1029.75 1536.54 1051.54 1522.25C1062.53 1515.04 1074.16 1509.84 1085.24 1502.74C1097.62 1494.82 1108.72 1490.33 1130.85 1477.07C1146.73 1467.55 1161.85 1457.57 1182.7 1449.12C1210.02 1438.06 1223.06 1434.49 1236.35 1430.94C1250.72 1427.1 1280.49 1415.93 1304.6 1411.87C1324.93 1409.65 1350.72 1408.77 1356.46 1407.44C1359.57 1406.99 1363.08 1406.99 1366.7 1406.99" stroke="black" stroke-width="5" stroke-linecap="round"/>
<path d="M1007.74 1561.21C1005.98 1555.92 997.153 1547.07 986.065 1540.41C971.889 1531.89 954.609 1527.55 943.082 1521.36C928.393 1513.46 912.118 1507.18 890.82 1497.88C870.576 1489.03 856.226 1482.35 842.931 1473.95C830.336 1465.98 819 1461.98 808.351 1457.09C805.679 1455.76 803.046 1454 800.374 1452.66C797.702 1451.32 795.069 1450.44 787.039 1449.54" stroke="black" stroke-width="5" stroke-linecap="round"/>
<path d="M792.357 1446.88C789.698 1438.08 793.207 1420.34 798.977 1408.81C807.294 1392.2 821.552 1385.77 837.054 1372.04C853.526 1357.45 860.586 1343.23 869.427 1329.93C878.576 1316.18 888.027 1306 899.102 1290.51C918.472 1263.42 930.571 1255.48 939.013 1245.27C941.234 1243.04 943.866 1241.28 946.538 1239.94C949.211 1238.6 951.843 1237.72 959.873 1234.16" stroke="black" stroke-width="5" stroke-linecap="round"/>
<path d="M963.534 1239.62C957.535 1236.63 943.519 1220.63 927.92 1209.5C911.036 1197.47 878.29 1176.44 859.602 1160.79C840.234 1144.58 822.948 1132.19 806.852 1119.09C791.855 1106.89 779.724 1098.97 764.155 1085.45C759.618 1080.92 754.645 1075.94 750.591 1072.39C746.536 1068.83 743.552 1066.84 734.449 1058.76" stroke="black" stroke-width="5" stroke-linecap="round"/>
<path d="M725.404 1061.78C703.46 1070.73 659.21 1100.84 644.561 1113.49C632.147 1124.2 615.986 1148.04 582.844 1184.23C570.664 1197.53 563.658 1206.4 553.635 1215.97C542.542 1226.56 529.597 1255.47 519.951 1276.24C513.216 1290.74 507.411 1304.85 502.86 1318.44C502.347 1321.97 502.347 1325.95 500.855 1329.49C499.363 1333.03 496.379 1336.01 493.305 1342.1" stroke="black" stroke-width="5" stroke-linecap="round"/>
<path d="M2.5 1049.4C12.1381 1056.3 31.4975 1067.35 48.1357 1075.68C68.4538 1085.85 85.5043 1100.58 106.962 1119.26C129.758 1139.1 151.974 1149.02 178.957 1161.53C199.808 1171.19 221.186 1186.41 240.608 1199.6C265.095 1216.23 287.656 1232.11 309.155 1248.75C327.428 1262.89 348.559 1283.29 368.708 1295.86C389.426 1308.78 413.616 1323.51 446.893 1336.7C455.243 1340.17 463.469 1344.28 469.763 1346.4C476.057 1348.52 480.169 1348.52 492.716 1356.82" stroke="black" stroke-width="5" stroke-linecap="round"/>
<path d="M2.5 1041.09C2.5 1031.45 7.98377 1006.61 23.2095 983.699C37.0697 962.843 56.4237 948.366 70.2993 933.14C88.1297 913.575 106.276 893.03 129.125 867.398C147.185 847.138 160.283 827.89 174.159 808.53C190.733 785.405 214.29 778.037 232.299 758.678C252.532 736.928 280.677 726.855 335.306 688.822C390.466 650.42 421.925 629.892 453.831 610.491C476.218 596.878 495.374 582.782 521.692 566.871C550.063 549.718 570.153 530.187 598.548 514.235C620.047 503.807 642.19 495.54 662.276 488.581C667.158 487.19 671.27 485.819 679.662 480.252" stroke="black" stroke-width="5" stroke-linecap="round"/>
<path d="M679.662 480.252C672.766 458.193 658.973 416.774 646.468 386.177C637.785 364.93 631.222 343.241 622.228 326.603C612.068 307.808 602.141 285.08 593.147 267.756C591.049 262.896 589.678 257.412 587.601 251.845C585.524 246.278 582.782 240.795 579.957 230.99" stroke="black" stroke-width="5" stroke-linecap="round"/>
<path d="M579.957 230.99C579.957 228.248 581.328 221.352 585.462 212.358C593.163 195.601 625.489 185.375 649.813 176.319C671.004 168.429 694.784 157.624 743.868 134.837C768.621 123.346 794.489 114.751 823.569 102.246C848.184 91.6622 881.647 78.7742 908.069 68.3052C933.174 58.3581 960.663 46.8687 983.533 39.9101C1007.36 32.6597 1029.88 28.8387 1054.16 23.2926C1078.44 16.3756 1092.27 9.4378 1104.7 6.67514C1111.63 5.28343 1119.86 3.91249 1136.64 2.5" stroke="black" stroke-width="5" stroke-linecap="round"/>
</svg>
