<svg width="684" height="1549" viewBox="0 0 684 1549" fill="none" xmlns="http://www.w3.org/2000/svg">
<path d="M413.605 225.52C420.976 226.461 437.635 230.254 449.72 234.061C460.944 237.597 473.792 241.662 488.185 245.469C501.119 248.89 513.675 255.921 527.581 259.257C541.334 262.557 554.448 267.328 570.218 272.077C590.571 278.205 604.51 282.557 618.903 287.762C631.433 292.054 646.229 295.847 659.232 299.654C662.945 300.609 667.534 301.55 680.605 302.52" stroke="black" stroke-width="5" stroke-linecap="round" stroke-dasharray="88 88"/>
<path d="M679.891 301.69C679.891 329.554 675.826 381.524 670.669 398.826C665.804 415.147 659.385 427.986 652.211 440.962C644.758 454.442 635.8 466.866 628.611 480.911C617.584 502.453 599.9 511.124 585.521 525.202C572.717 537.737 559.873 552.207 547.542 563.547C536.584 573.624 522.926 580.266 492.706 598.086C476.711 607.32 466.458 612.698 458.268 618.093C454.142 620.28 450.078 621.349 445.891 625.69" stroke="black" stroke-width="5" stroke-linecap="round"/>
<path d="M445.738 625.841C454.943 637.496 467.226 650.169 476.492 664.004C484.93 676.603 492.9 689.462 501.627 704.332C508.989 716.875 517.527 729.774 528.302 746.252C536.703 759.101 540.123 772.251 547.296 785.004C554.747 798.252 563.704 810.462 577.033 825.857C586.299 839.152 592.456 848.704 596.551 855.057C598.613 858.257 600.645 861.409 602.738 867.841" stroke="black" stroke-width="5" stroke-linecap="round"/>
<path d="M3.625 2.5V452.206" stroke="black" stroke-width="5" stroke-linecap="round"/>
<path d="M2.5 457.945C8.43266 457.945 16.0749 457.103 24.3679 456.459C33.9795 455.712 41.5917 454.552 47.3458 453.907C53.9859 453.164 64.9396 451.158 77.513 447.751C92.3202 443.74 101.122 443.503 110.691 442.214C123.748 440.456 128.783 438.399 144.054 434.993C158.562 431.757 178.056 426.509 191.056 422.451C211.126 416.188 216.816 412.041 231.877 403.543C241.938 397.867 254.172 388.693 269.31 379.724C282.387 371.975 289.513 365.268 297.615 358.455C306.478 351.002 323.042 336.434 332.923 327.401C338.956 321.887 343.124 315.919 346.116 310.822C350.659 303.081 355.882 296.373 360.992 290.619C370.652 279.74 384.384 265.319 390.119 258.94C396.475 251.87 402.246 244.906 406.501 240.855C407.362 239.789 407.783 238.526 408.632 237.455C409.48 236.383 410.743 235.541 413.321 232.122" stroke="black" stroke-width="5" stroke-linecap="round" stroke-dasharray="88 88"/>
<path d="M167.562 1029.31C181.482 1027.65 201.958 1023.18 222.119 1018.43C233.543 1015.74 240.197 1015.9 246.664 1014.51C254.083 1012.91 263.87 1012.54 278.097 1009.49C309.493 1002.76 316.093 994.666 326.848 988.251C331.359 985.56 336.02 984.603 352.039 979.882C391.055 968.384 419.457 962.801 423.212 960.848C432.046 956.25 441.5 957.77 451.721 953.862C467.919 947.67 480.223 944.924 491.567 939.331C499.624 935.358 508.256 930.937 516.064 927.306C523.064 924.05 532.995 920.338 540.827 915.29C549.649 909.604 562.578 899.676 570.168 891.819C576.738 885.018 585.218 880.658 593.575 875.04C595.472 873.916 597.071 872.809 598.694 871.685C600.317 870.562 601.915 869.455 603.562 868.314" stroke="black" stroke-width="5" stroke-linecap="round" stroke-dasharray="88 88"/>
<path d="M167.234 1029.25C169.309 1037.51 170.679 1052.69 174.829 1073.43C177.568 1087.12 177.609 1096.97 179.673 1110.12C181.952 1124.62 183.128 1137.1 184.176 1161.6C185.402 1190.27 187.278 1227.69 188.326 1252.21C188.851 1264.49 191.428 1274.05 192.476 1289.24C193.201 1299.77 195.578 1310.69 196.625 1336.93C197.429 1357.04 199.727 1381.94 200.775 1400.58C201.451 1412.61 204.583 1427.55 206.647 1442.1C208.995 1458.66 210.102 1475.31 211.15 1485.34C212.278 1496.14 214.252 1509.88 215.3 1524.06C215.642 1527.21 216.327 1529.26 216.679 1532.71C217.032 1536.17 217.032 1540.96 217.032 1545.9" stroke="black" stroke-width="5" stroke-linecap="round" stroke-dasharray="88 88"/>
</svg>
