<svg width="1508" height="1393" viewBox="0 0 1508 1393" fill="none" xmlns="http://www.w3.org/2000/svg">
<path d="M5.85238 183.208C5.78717 182.208 6.32451 180.673 8.89285 178.255C11.4845 175.815 16.1157 174.229 18.8935 172.826C22.2182 171.147 25.0754 169.198 32.8715 164.593C36.8342 162.253 41.4816 160.065 49.341 156.407C54.908 153.815 59.478 151.789 63.6794 149.986C69.1879 147.622 74.3483 145.88 78.9413 144.068C82.6306 142.612 88.5187 140.203 93.8121 138.161C99.4032 136.004 102.874 134.234 108.286 132.211C112.384 130.678 116.804 128.627 124.854 125.647C136.684 121.266 145.5 119.081 149.729 117.896C159.549 115.144 166.821 112.361 168.622 111.556C176.492 108.041 189.512 104.29 198.829 101.242C201.902 100.237 204.084 99.8423 207.145 98.9734C211.653 97.694 224.545 93.9646 240.349 88.9533C250.164 85.8413 257.78 83.8745 262.405 82.6203C270.647 80.3853 275.385 79.2537 283.5 76.8243C289.532 75.0181 301.865 71.8965 313.789 68.7595C323.181 66.2887 330.063 65.4773 332.744 65.0155C343.076 63.2354 356.016 61.1365 359.708 60.581C364.424 59.8713 371.857 59.1234 376.393 58.7018C381.425 58.234 385.837 58.4034 389.151 58.2522C393.711 58.0442 401.85 57.7006 406.482 57.1919C409.979 56.8078 413.426 56.727 416.535 56.3582C420.252 55.9175 423.708 55.8201 429.6 55.6927C433.211 55.6146 436.268 55.5485 440.009 55.544C443.174 55.5402 446.286 55.4093 449.362 55.3347C452.437 55.26 455.502 55.1856 458.991 55.6017C462.82 56.0585 466.485 55.645 469.809 55.9465C473.303 56.2635 476.701 56.1251 480.492 56.2769C484.283 56.4288 488.42 56.4646 491.447 56.2383C496.237 55.8801 502.139 56.6205 506.56 57.132C514.961 58.104 519.332 58.7284 523.904 59.3126C527.153 59.7543 529.416 60.391 532.188 60.5863C532.86 60.6558 533.421 60.8138 534 60.9766" stroke="black" stroke-width="5" stroke-linecap="round"/>
<path d="M527.051 937.08V1390.11" stroke="black" stroke-width="5" stroke-linecap="round"/>
<path d="M527.152 937.462C559.491 937.462 627.861 939.696 658.999 949.274C681.333 956.144 721.097 958.853 753.191 965.08C758.418 966.773 762.822 969.007 767.293 971.274C771.763 973.542 776.167 975.776 785.152 981.462" stroke="black" stroke-width="5" stroke-linecap="round"/>
<path d="M786.551 981.063C791.149 965.718 806.618 944.178 819.02 921.83C830.565 901.028 851.49 881.039 865.472 857.119C877.875 837.821 902.494 810.226 921.214 786.999C924.326 782.354 927.392 777.778 930.551 773.063" stroke="black" stroke-width="5" stroke-linecap="round" stroke-dasharray="88 88"/>
<path d="M930.652 773.309C944.222 779.819 962.331 786.329 983.525 798.541C998.684 815.698 1016.79 828.718 1033.47 842.594C1036.53 846.681 1038.03 851.527 1048.65 866.309" stroke="black" stroke-width="5" stroke-linecap="round" stroke-dasharray="88 88"/>
<path d="M1048.96 865.588C1050.41 855.566 1062.07 838.286 1084.07 820.293C1104.01 803.985 1130.97 792.235 1153.02 774.933C1170.08 761.538 1185.27 744.715 1199.24 728.126C1212.62 712.238 1233.67 701.515 1254.94 681.34C1260.11 676.977 1264.47 674.126 1268.89 670.519C1273.31 666.912 1277.67 662.635 1290.96 649.588" stroke="black" stroke-width="5" stroke-linecap="round" stroke-dasharray="88 88"/>
<path d="M182.82 432.121C199.094 423.994 245.578 402.076 267.577 396.566C287.128 391.669 299.059 386.315 318.196 380.836C330.325 377.363 355.7 370.595 376.007 367.825C399.666 364.597 413.286 361.689 425.958 359.616C442.203 356.959 454.33 353.48 475.489 350.381C517.554 344.22 545.162 347.98 574.663 346.276C628.722 343.155 646.501 347.98 659.584 350.022C672.59 352.052 691.65 354.793 711.208 357.892C723.184 359.79 734.131 362.345 746.455 364.387C757.134 366.157 769.019 371.909 779.64 372.945C789.144 373.873 799.803 378.065 810.074 381.144C825.942 385.899 838.097 390.379 849.066 395.16C863.992 401.667 874.381 401.994 886.684 405.432C902.971 409.982 920.884 415.005 932.182 419.449C944.32 424.222 957.127 427.976 968.783 432.111C981.013 436.449 994.765 441.684 1004.02 446.466C1013.82 451.53 1023.5 455.352 1032.75 459.467C1044.64 464.75 1052.92 472.468 1062.85 477.25C1072.23 481.772 1083.01 487.49 1093.63 493.667C1102.42 498.781 1110.39 505.96 1120.65 513.841C1130.02 521.04 1144.54 526.483 1157.59 534.702C1168.38 541.496 1176.06 547.703 1184.62 553.859C1198.93 564.157 1209.59 579.841 1216.77 584.653C1224.62 589.909 1231.47 598.311 1239.69 606.191C1246.69 612.904 1254.74 616.781 1262.26 623.297C1270.48 630.49 1280.02 635.949 1286.9 643.47C1288.27 645.532 1289.63 647.564 1291.02 649.657" stroke="black" stroke-width="5" stroke-linecap="round" stroke-dasharray="88 88"/>
<path d="M8 177.976C14.3042 195.298 22.7169 206.374 32.9111 216.804C41.4189 225.509 53.6265 235.521 62.7876 246.639C71.6702 257.418 79.6446 268.833 86.3389 281.678C94.0565 296.488 104.946 312.554 113.738 327.128C121.289 339.643 128.855 346.573 137.985 358.368C145.104 367.565 149.94 377.803 153.819 386.141C158.622 396.464 166.807 406.95 172.437 415.289C173.849 417.381 175.241 419.442 176.654 421.535C178.066 423.627 179.458 425.688 183 431.976" stroke="black" stroke-width="5" stroke-linecap="round"/>
<path d="M537.535 59.1406C543.273 59.1406 574.917 59.1406 620.178 59.4992C648.52 59.7238 667.112 65.6608 680.935 67.4647C693.202 69.0656 707.711 70.0076 720.056 71.8115C731.59 73.4969 744.659 74.3543 757.721 76.5169C774.55 79.303 793.169 84.4823 808.426 88.101C829.175 93.0221 841.766 97.5226 857.316 102.228C880.425 109.22 908.358 114.91 960.052 127.907C989.014 135.188 1001.12 142.425 1011.66 147.869C1023.91 154.194 1038.81 159.116 1048.61 163.441C1059.3 168.158 1067.8 172.852 1080.11 178.655C1091.26 183.911 1102.57 190.239 1120.65 200.009C1134.31 207.388 1149.6 218.45 1166.3 228.263C1192.52 243.682 1211.15 255.397 1226.81 265.938C1240.6 275.219 1250.36 282.956 1261.23 289.857C1272.81 297.207 1280.79 305.429 1295.62 313.753C1311.51 322.67 1322.08 332.944 1334.4 339.486C1344.18 344.686 1353.95 352.504 1363.75 357.96C1376.36 364.98 1387.98 377.107 1398.52 383.682C1409.36 390.442 1417.71 398.146 1426.78 403.242C1441.21 411.361 1456.83 422.053 1465.9 427.508C1476.42 435.854 1483.65 441.613 1491.98 448.872C1494.52 451.046 1497.39 453.915 1504.69 456.87" stroke="black" stroke-width="5" stroke-linecap="round"/>
</svg>
