<svg width="1940" height="1468" viewBox="0 0 1940 1468" fill="none" xmlns="http://www.w3.org/2000/svg">
<path d="M671.812 833.712C690.567 835.729 728.169 843.857 836.313 846.943C901.33 848.798 963.776 856.079 1017.16 859.165C1061.74 861.742 1105.14 868.301 1150.66 875.451C1192.78 876.49 1227.75 878.507 1246.55 881.562C1256.02 882.601 1265.35 882.601 1293.81 888.712" stroke="black" stroke-width="5" stroke-linecap="round"/>
<path d="M1294.14 890.305C1294.14 900.29 1291.48 923.187 1282.74 941.887C1275.04 958.369 1273.96 979.138 1266.59 997.838C1259.9 1014.82 1257.81 1032.25 1250.44 1049.49C1243.28 1066.24 1236.33 1083.9 1228.91 1105.41C1221.1 1128.03 1208.07 1144.15 1197.3 1161.39C1186.52 1178.62 1175.78 1195.8 1165 1213.03C1154.22 1230.27 1146.15 1247.44 1129.37 1268.25C1115.18 1286.22 1104.48 1300.55 1091.67 1315.62C1088.3 1319.23 1084.3 1322.07 1076.14 1329.3" stroke="black" stroke-width="5" stroke-linecap="round"/>
<path d="M1076.57 1329.63C1084.9 1332.4 1101.59 1343.52 1118.35 1351.22C1136.78 1359.69 1158.75 1374.15 1180.4 1388.17C1197.8 1399.44 1214.56 1410.47 1231.32 1417.48C1248.06 1424.48 1264.77 1435.57 1281.53 1443.27C1289.87 1448.13 1298.28 1452.35 1306.63 1455.14C1310.84 1456.54 1314.98 1457.92 1323.43 1463.52" stroke="black" stroke-width="5" stroke-linecap="round"/>
<path d="M1616.18 457.34C1671.18 449.494 1734.86 447.768 1753.12 446.447C1772.64 445.035 1796.04 442.537 1816.02 439.045C1833.81 435.938 1854.82 432.075 1870.73 429.015C1888.97 427.708 1904.24 425.092 1915.39 423.784C1920.72 423.34 1925.38 423.34 1930.18 423.34" stroke="black" stroke-width="5" stroke-linecap="round"/>
<path d="M1854.1 2.5C1858.87 6.71 1866.51 21.5726 1876.09 42.2877C1885.14 61.8702 1890.46 92.7598 1894.77 112.997C1898.09 128.59 1903.85 151.19 1911.04 174.648C1916.78 193.367 1917.29 214.977 1922.53 235.262C1926.86 252.024 1927.8 269.261 1931.64 285.766C1934.52 315.922 1935.47 359.68 1936.91 373.411C1937.39 383.983 1937.39 401.876 1931.65 423.5" stroke="black" stroke-width="5" stroke-linecap="round"/>
<path d="M1326.64 1465.2C1329.71 1461.62 1333.83 1454.43 1338.45 1448C1343.44 1441.05 1344.62 1432.83 1348.47 1425.12C1352.56 1416.93 1359.5 1405.13 1371.06 1387.9C1393.17 1354.94 1397.04 1343.91 1403.24 1334.36C1407.12 1328.36 1416.54 1308.53 1423.55 1294.25C1426.65 1287.93 1428.45 1281.65 1435.87 1261.41C1443.68 1240.1 1446.44 1233.83 1450.03 1227.4C1454.19 1219.95 1458.26 1212.76 1465.44 1203.26C1481.06 1182.58 1484.48 1172.13 1487.57 1166.2C1491.38 1158.91 1497.84 1150.53 1503.76 1137.95C1507.65 1129.7 1512.25 1118.69 1516.62 1107.35C1522.51 1092.07 1525.11 1084.72 1526.15 1077C1527.79 1064.73 1534.86 1051.86 1536.69 1042.53C1538 1035.85 1539 1027.64 1541.06 1019.66C1543.27 1011.08 1545.69 1002.42 1549.51 985.596C1553 970.222 1560.97 941.283 1564.9 925.316C1569.31 907.424 1569.85 902.161 1571.39 896.77C1572.47 893.02 1575.99 870.46 1582.16 837.563C1586.4 814.952 1587.34 799.328 1588.62 789.046C1590.16 776.753 1590.43 764.403 1592.99 752.786C1593.94 748.492 1597.08 731.56 1602.48 707.918C1607.14 687.508 1608.94 668.727 1610.22 650.794C1612.22 622.826 1611.5 599.308 1613.05 588.286C1613.57 575.737 1614.08 566.882 1614.85 546.488C1615.11 528.13 1615.11 493.513 1615.11 457.847" stroke="black" stroke-width="5" stroke-linecap="round"/>
<path d="M2.5 535.171H463.08" stroke="black" stroke-width="5" stroke-linecap="round"/>
<path d="M462.746 535.121C462.746 542.375 464.314 556.946 464.729 603.206C464.907 622.976 460.37 637.179 456.035 650.764C452.099 663.098 449.301 675.763 445.737 688.285C441.652 702.645 432.672 715.348 425.166 726.338C421.603 732.044 418.419 738.329 415.26 744.567C413.668 747.71 412.101 750.805 405.734 757.121" stroke="black" stroke-width="5" stroke-linecap="round"/>
<path d="M406.547 757.091C413.917 758.032 430.577 761.825 442.661 765.632C453.885 769.168 466.733 773.232 481.126 777.04C494.061 780.461 506.616 787.492 520.523 790.828C534.275 794.128 547.389 798.899 563.159 803.647C583.512 809.776 597.452 814.128 611.845 819.332C624.374 823.625 639.171 827.417 652.173 831.225C655.886 832.18 660.475 833.121 673.547 834.091" stroke="black" stroke-width="5" stroke-linecap="round" stroke-dasharray="88 88"/>
</svg>
