<svg width="1638" height="1579" viewBox="0 0 1638 1579" fill="none" xmlns="http://www.w3.org/2000/svg">
<path d="M547.711 1414.77H923.711" stroke="black" stroke-width="5" stroke-linecap="round"/>
<path d="M5.85238 183.208C5.78717 182.208 6.32451 180.673 8.89285 178.255C11.4845 175.815 16.1157 174.229 18.8935 172.826C22.2182 171.147 25.0754 169.198 32.8715 164.593C36.8342 162.253 41.4816 160.066 49.341 156.407C54.908 153.815 59.478 151.789 63.6794 149.986C69.1879 147.622 74.3483 145.881 78.9413 144.068C82.6306 142.612 88.5187 140.203 93.8121 138.161C99.4032 136.004 102.874 134.234 108.286 132.211C112.384 130.678 116.804 128.628 124.854 125.647C136.684 121.266 145.5 119.081 149.729 117.896C159.549 115.144 166.821 112.361 168.622 111.557C176.492 108.041 189.512 104.29 198.829 101.243C201.902 100.237 204.084 99.8425 207.145 98.9736C211.653 97.6942 224.545 93.9647 240.349 88.9535C250.164 85.8415 257.78 83.8747 262.405 82.6205C270.647 80.3854 275.385 79.2539 283.5 76.8245C289.532 75.0183 301.865 71.8967 313.789 68.7597C323.181 66.2889 330.063 65.4775 332.744 65.0157C343.076 63.2356 356.016 61.1367 359.708 60.5812C364.424 59.8715 371.857 59.1235 376.393 58.702C381.425 58.2342 385.837 58.4036 389.151 58.2524C393.711 58.0444 401.85 57.7008 406.482 57.1921C409.979 56.808 413.426 56.7271 416.535 56.3584C420.252 55.9176 423.708 55.8203 429.6 55.6928C433.211 55.6148 436.268 55.5487 440.009 55.5442C443.174 55.5404 446.286 55.4095 449.362 55.3349C452.437 55.2602 455.502 55.1858 458.991 55.6019C462.82 56.0587 466.485 55.6452 469.809 55.9467C473.303 56.2636 476.701 56.1252 480.492 56.2771C484.283 56.429 488.42 56.4648 491.447 56.2385C496.237 55.8803 502.139 56.6206 506.56 57.1322C514.961 58.1042 519.332 58.7285 523.904 59.3128C527.153 59.7545 529.416 60.3912 532.188 60.5865C532.86 60.656 533.421 60.814 534 60.9768" stroke="black" stroke-width="5" stroke-linecap="round"/>
<path d="M4 176.976C10.3042 194.298 18.7169 205.374 28.9111 215.804C37.4189 224.509 49.6265 234.521 58.7876 245.639C67.6702 256.419 75.6446 267.833 82.3389 280.679C90.0565 295.488 100.946 311.554 109.738 326.128C117.289 338.644 124.855 345.573 133.985 357.368C141.104 366.565 145.94 376.803 149.819 385.141C154.622 395.464 162.807 405.951 168.437 414.289C169.849 416.381 171.241 418.442 172.654 420.535C174.066 422.627 175.458 424.688 179 430.976" stroke="black" stroke-width="5" stroke-linecap="round"/>
<path d="M537.535 59.1408C543.273 59.1408 574.917 59.1408 620.178 59.4994C648.52 59.724 667.112 65.661 680.935 67.4649C693.202 69.0658 707.711 70.0077 720.056 71.8117C731.59 73.4971 744.659 74.3545 757.721 76.517C774.55 79.3032 793.169 84.4825 808.426 88.1012C829.175 93.0223 841.766 97.5228 857.316 102.228C880.425 109.221 908.358 114.91 960.052 127.907C989.014 135.188 1001.12 142.425 1011.66 147.869C1023.91 154.194 1038.81 159.117 1048.61 163.442C1059.3 168.158 1067.8 172.852 1080.11 178.655C1091.26 183.912 1102.57 190.24 1120.65 200.009C1134.31 207.388 1149.6 218.45 1166.3 228.263C1192.52 243.682 1211.15 255.398 1226.81 265.939C1240.6 275.219 1250.36 282.956 1261.23 289.857C1272.81 297.207 1280.79 305.429 1295.62 313.753C1311.51 322.67 1322.08 332.944 1334.4 339.486C1344.18 344.687 1353.95 352.505 1363.75 357.96C1376.36 364.98 1387.98 377.107 1398.52 383.682C1409.36 390.442 1417.71 398.146 1426.78 403.242C1441.21 411.361 1456.83 422.053 1465.9 427.508C1476.42 435.854 1483.65 441.613 1491.98 448.873C1494.52 451.046 1497.39 453.915 1504.69 456.871" stroke="black" stroke-width="5" stroke-linecap="round"/>
<path d="M920.355 1414.58H1056.19" stroke="black" stroke-width="5" stroke-linecap="round"/>
<path d="M1051.71 1413.77C1053.18 1413.77 1055.41 1418.18 1057.63 1426.7C1058.39 1434.48 1059.13 1441.94 1060.24 1465.14C1060.62 1484.67 1060.62 1519.94 1060.62 1556.28" stroke="black" stroke-width="5" stroke-linecap="round"/>
<path d="M1059.73 1555.64C1067.08 1557.11 1130.39 1557.87 1222.41 1558.97C1254.93 1559.36 1258.58 1562.28 1311.18 1563.41C1363.78 1564.55 1465.18 1564.55 1524.04 1564.92C1596.12 1566.02 1613.42 1567.51 1620.82 1569.73C1624.55 1571.21 1628.23 1573.41 1634.24 1575.68" stroke="black" stroke-width="5" stroke-linecap="round"/>
<path d="M187.754 428.127C217.993 417.817 268.541 395.527 284.195 386.219C300.908 376.282 319.801 372.458 335.399 367.292C355.008 360.798 368.033 349.478 385.869 346.115C411.404 341.302 456.257 341.283 490.037 339.435C535.952 336.923 570.712 336.852 595.763 333.512C698.184 319.856 727.254 343.466 744.756 347.953C761.713 352.3 783.635 366.446 803.386 373.549C825.432 381.478 843.802 390.985 860.904 399.881C899.141 419.771 959.46 430.265 1009.61 442.557C1059.63 454.818 1092.4 475.557 1113.28 485.989C1127.13 492.905 1137.78 503.792 1157.06 514.559C1172.2 523.01 1193.36 540.846 1213.49 552.792C1227.56 561.145 1237.98 576.518 1252.08 594.31C1273.66 621.549 1286.97 636.641 1296.65 649.267C1309.19 665.635 1321.84 684.873 1336.71 705.281C1348.72 721.772 1359.7 736.088 1371.97 752.054C1389.62 775.024 1402.76 790.287 1414.65 803.659C1424.79 815.061 1434.7 825.916 1443.61 841.87C1452.12 857.081 1462.17 871.163 1469.97 885.303C1478.89 901.488 1485.91 923.091 1494.83 945.771C1501.41 962.495 1510.41 978.048 1518.96 1001.06C1524.98 1017.28 1530.45 1036.66 1537.88 1061.92C1544.4 1084.05 1551.96 1104.22 1559.04 1127.57C1574.13 1177.37 1578.72 1195.51 1583.54 1211.89C1587.85 1226.51 1591.33 1243.03 1598.75 1260.87C1606.44 1279.33 1609.9 1299.46 1611.39 1317.64C1613.33 1341.27 1618.05 1360.29 1619.93 1385.91C1622.29 1418.07 1627.67 1483.34 1632.91 1527.27C1633.66 1535.52 1634.39 1540.66 1634.77 1547.72C1635.15 1554.78 1635.15 1563.6 1635.15 1572.68" stroke="black" stroke-width="5" stroke-linecap="round"/>
</svg>
