<svg width="752" height="870" viewBox="0 0 752 870" fill="none" xmlns="http://www.w3.org/2000/svg">
<path d="M2.5 2.5498H463.08" stroke="black" stroke-width="5" stroke-linecap="round"/>
<path d="M462.746 2.5C462.746 9.75408 464.314 24.3248 464.729 70.5852C464.907 90.3551 460.37 104.557 456.035 118.143C452.099 130.477 449.301 143.142 445.737 155.664C441.652 170.024 432.672 182.726 425.166 193.717C421.603 199.423 418.419 205.708 415.26 211.946C413.668 215.088 412.101 218.184 405.734 224.5" stroke="black" stroke-width="5" stroke-linecap="round"/>
<path d="M596.074 867.496C601.981 864.31 609.255 862.491 619.954 857.945C633.05 852.38 640.702 849.749 648.229 845.182C657.279 839.691 663.043 835.146 667.384 831.051C672.866 825.88 683.087 822.841 691.749 816.934C701.117 810.546 705.893 803.261 712.032 795.523C721.771 783.247 726.402 778.651 730.278 773.4C735.522 769.517 740.075 764.978 745.086 760.862C746.46 759.946 747.814 759.044 749.208 758.114" stroke="black" stroke-width="5" stroke-linecap="round"/>
<path d="M406.547 224.47C413.917 225.411 430.577 229.204 442.661 233.011C453.885 236.547 466.733 240.611 481.126 244.418C494.061 247.84 506.616 254.87 520.523 258.207C534.275 261.507 547.389 266.278 563.159 271.026C583.512 277.155 597.452 281.507 611.845 286.711C624.374 291.003 639.171 294.796 652.173 298.604C655.886 299.559 660.475 300.5 673.547 301.47" stroke="black" stroke-width="5" stroke-linecap="round" stroke-dasharray="88 88"/>
<path d="M672.832 300.64C672.832 328.504 668.768 380.474 663.611 397.775C658.746 414.097 652.326 426.935 645.152 439.912C637.7 453.392 628.742 465.815 621.552 479.861C610.526 501.403 592.841 510.074 578.462 524.152C565.659 536.687 552.815 551.157 540.483 562.497C529.525 572.574 515.867 579.215 485.647 597.035C469.652 606.269 459.399 611.648 451.209 617.042C447.084 619.229 443.019 620.299 438.832 624.64" stroke="black" stroke-width="5" stroke-linecap="round"/>
<path d="M438.68 624.791C447.884 636.445 460.167 649.118 469.433 662.954C477.871 675.553 485.841 688.412 494.569 703.282C501.93 715.825 510.469 728.724 521.243 745.202C529.645 758.051 533.064 771.201 540.237 783.954C547.688 797.202 556.645 809.412 569.975 824.807C579.241 838.101 585.398 847.654 589.492 854.006C591.555 857.207 593.586 860.359 595.68 866.791" stroke="black" stroke-width="5" stroke-linecap="round"/>
</svg>
