<svg width="1900" height="1706" viewBox="0 0 1900 1706" fill="none" xmlns="http://www.w3.org/2000/svg">
<path d="M1465.71 105.003H1896.65" stroke="black" stroke-width="5" stroke-linecap="round" stroke-dasharray="88 88"/>
<path d="M1451.21 105.71C1451.21 120.564 1454.17 150.495 1456.44 175.916C1458.59 200.052 1463.15 229.742 1468.4 252.964C1472.56 271.368 1476.61 292.565 1486.32 312.063C1495.75 330.97 1506.5 352.427 1518.48 374.123C1529.23 393.591 1542.39 410.763 1552.13 429.475C1575.29 454.156 1599.2 475.112 1617.18 490.818C1621.69 494.587 1626.13 497.549 1635.19 505.088" stroke="black" stroke-width="5" stroke-linecap="round" stroke-dasharray="88 88"/>
<path d="M1635.19 505.087C1626.26 511.056 1608.36 519.986 1589.65 533.448C1565.97 550.484 1550.02 564.859 1532.05 576.841C1509.64 594.745 1479.75 624.631 1456.53 647.113C1451.26 651.645 1446.81 654.607 1433.26 662.146" stroke="black" stroke-width="5" stroke-linecap="round"/>
<path d="M1428.77 662.146C1419.84 659.184 1401.94 644.286 1380.24 623.33C1362.3 606.001 1343.6 588.912 1327.87 570.985C1304.48 544.315 1291.19 527.614 1277.75 509.642C1274.72 505.132 1273.24 500.69 1271 496.18C1268.75 491.67 1265.79 487.228 1253.77 473.676" stroke="black" stroke-width="5" stroke-linecap="round"/>
<path d="M1248.79 467.778C1235.93 472.113 1215.94 486.696 1197.25 494.754C1176.75 503.595 1158.58 518.841 1141.35 532.679C1125.4 545.501 1106.98 552.386 1086.18 564.079C1076.88 569.903 1068.23 574.326 1058.94 577.961C1053.91 580.151 1048.24 583.041 1033.79 594.778" stroke="black" stroke-width="5" stroke-linecap="round" stroke-dasharray="88 88"/>
<path d="M1024.79 590.778C1016.99 585.899 1001.38 566.234 987.236 546.495C973.106 526.779 957.485 507.091 945.712 487.352C940.189 467.613 937.087 447.948 934.714 411.846C933.938 403.541 932.387 398.662 930.789 383.778" stroke="black" stroke-width="5" stroke-linecap="round"/>
<path d="M688.789 468.778C698.639 467.302 718.423 458.399 736.128 450.905C755.908 442.533 773.616 438.983 794.823 427.821C831.561 408.485 850.037 403.194 867.041 397.221C884.045 391.249 898.183 388.252 909.476 387.513C915.165 386.775 920.769 385.299 930.789 383.778" stroke="black" stroke-width="5" stroke-linecap="round"/>
<path d="M683.871 473.676C683.871 491.491 689.794 527.435 701.776 545.407C714.231 564.09 727.219 581.283 734.691 599.255C742.987 619.211 752.618 635.132 760.875 653.844C770.483 675.621 776.58 693.468 787.036 711.44C797.898 730.11 810.954 750.278 822.935 770.516C835.571 791.861 843.891 810.14 853.606 828.112C863.007 845.502 873.777 863.988 885.758 881.96C897.74 899.932 906.715 917.837 920.895 932.084C935.855 947.115 950.063 962.711 962.784 979.942C976.046 997.905 994.937 1012.07 1010.64 1022.6C1027.93 1034.18 1038.28 1053.98 1059.22 1073.39C1092.64 1104.38 1105.6 1124.26 1127.29 1144.47C1142.75 1158.87 1166.89 1163.21 1186.39 1172.92C1204.08 1181.74 1225.23 1193.09 1244.73 1201.35C1264.24 1209.61 1280.6 1221.54 1298.58 1227.53C1316.55 1233.52 1337.41 1242.45 1356.91 1249.97C1374.59 1256.78 1392.79 1261.93 1410.76 1267.92C1428.73 1275.39 1446.64 1287.33 1468.33 1294.84C1473.61 1296.35 1478.05 1297.83 1482.63 1303.84" stroke="black" stroke-width="5" stroke-linecap="round" stroke-dasharray="88 88"/>
<path d="M1482.62 1303.84C1482.62 1336.6 1476.7 1378.51 1469.18 1398.01C1462.18 1416.17 1446.81 1433.89 1429.58 1451.86C1414.33 1467.76 1401.94 1487.73 1387.69 1505.71C1373.44 1523.68 1361.55 1535.66 1349.55 1550.58C1330.03 1574.84 1303.22 1583.5 1281.52 1599.2C1262.78 1612.77 1222.62 1625.32 1191.77 1640.35C1173.08 1649.46 1155.13 1655.29 1134.94 1664.29C1106.09 1677.14 1084.86 1679.26 1060.16 1685.25C1032.45 1691.24 1008.58 1694.24 983.895 1697.97C974.202 1698.73 959.394 1698.73 944.137 1698.73" stroke="black" stroke-width="5" stroke-linecap="round"/>
<path d="M19.7367 2.50049C15.2493 26.3734 12.2876 47.2846 10.0215 77.1706C6.96154 117.525 3.31283 174.367 2.52754 214.754C1.99734 242.021 9.23618 265.641 14.4864 288.863C18.6987 307.494 24.224 325.502 27.9486 347.939C31.6485 370.228 33.1988 391.287 41.3883 412.266C52.0136 439.484 57.0717 467.573 64.5881 490.795C70.6451 509.509 76.5469 527.435 83.278 545.407C92.3138 569.532 107.959 597.707 118.414 621.67C129.128 646.225 139.37 666.544 149.085 685.256C159.566 705.442 161.807 724.88 171.522 742.852C180.652 759.741 184.244 778.728 193.959 796.7C203.089 813.589 212.604 832.577 222.387 850.549C232.516 869.157 245.542 886.425 254.539 904.397C264.597 924.489 276.954 940.274 285.21 958.246C293.744 976.82 303.878 994.123 312.875 1015.82C322.183 1038.27 335.289 1056.95 350.995 1086.09C365.853 1113.66 389.138 1145.17 401.119 1164.67C412.876 1183.8 429.525 1200.54 438.522 1218.51C449.925 1241.29 472.873 1258.88 490.104 1276.85C506.783 1294.25 522.234 1317.21 542.405 1341.11C588.499 1395.71 619.431 1415.94 638.188 1430.18C655.076 1443.01 670.318 1457.85 688.29 1477.28C704.964 1495.31 755.309 1536.83 817.549 1597.59C841.357 1620.83 858.788 1629.9 881.225 1645.56C903.706 1664.31 921.611 1673.24 939.583 1685.96C944.093 1689.71 948.535 1694.15 962.087 1703.22" stroke="black" stroke-width="5" stroke-linecap="round" stroke-dasharray="88 88"/>
</svg>
