<svg width="724" height="418" viewBox="0 0 724 418" fill="none" xmlns="http://www.w3.org/2000/svg">
<path d="M290.102 341.685H721.049" stroke="black" stroke-width="5" stroke-linecap="round" stroke-dasharray="88 88"/>
<path d="M300.09 296.773C300.09 274.482 302.563 229.412 307.564 214.407C312.456 199.731 313.802 184.454 321.913 169.449C328.788 154.444 338.754 139.496 348.757 121.382C351.267 116.98 353.74 113.271 360.034 105.703" stroke="black" stroke-width="5" stroke-linecap="round"/>
<path d="M80.5625 2.50049C104.24 11.2298 124.172 16.2126 147.269 23.0687C183.498 33.8229 196.629 46.1845 211.633 51.8042C227.615 57.7898 241.586 64.9169 259.701 69.9185C276.579 76.1564 294.037 86.1221 309.042 89.2878C312.807 89.906 316.516 91.1423 324.084 92.4162" stroke="black" stroke-width="5" stroke-linecap="round"/>
<path d="M5.63438 414.614C5.63438 407.159 3.1617 392.21 2.50606 318.123C2.26311 290.669 9.38087 263.706 13.1086 238.604C16.9951 212.434 19.3465 179.934 24.3481 159.928C30.2955 136.138 40.5516 108.751 47.4452 91.8543C54.9519 73.4546 60.5579 58.7728 63.068 43.7681C66.777 36.2939 71.7973 28.7635 76.7802 21.2892C79.2903 17.524 81.763 13.815 88.0571 6.24707" stroke="black" stroke-width="5" stroke-linecap="round" stroke-dasharray="88 88"/>
</svg>
