<svg width="267" height="92" viewBox="0 0 267 92" fill="none" xmlns="http://www.w3.org/2000/svg">
<g clip-path="url(#clip0_318_53)">
<path d="M72.7578 8.08008C86.8542 7.58377 97.2548 11.3922 105.265 14.2021H105.267C130.132 22.8218 152.277 30.5094 177.103 32.374L178.286 32.459C190.695 33.3016 199.975 32.3987 201.936 32.2178L201.935 32.2168C212.405 31.2741 224.716 29.0885 236.333 25.1279C247.292 21.3916 257.665 16.0636 265.288 8.68359C263.33 15.0809 259.147 20.0959 253.905 24.0068C254.565 23.2643 255.217 22.5392 255.86 21.7842L255.861 21.7832C257.462 19.8971 258.622 17.931 259.648 16.2275L260.584 14.6738L258.984 15.5293C257.676 16.2282 255.334 17.4743 252.354 18.8994H252.354C229.904 29.6566 210.207 32.5275 201.867 33.4023L200.354 33.5518C197.643 33.8009 193.397 34.1199 188.124 34.1797L188.065 35.1758L201.275 36.8955C214.91 38.6685 223.336 36.8984 235.292 34.0557C228.205 36.8203 221.131 37.6815 213.81 37.709C209.33 37.7258 204.763 37.4307 200.041 37.0713C195.325 36.7123 190.451 36.2887 185.384 36.0508L185.244 37.0361C187.255 37.5139 189.41 38.0567 191.631 38.499V38.5C194.089 38.9957 196.392 39.2071 198.458 39.3477V39.3486C201.054 39.5691 203.719 39.7494 206.444 39.8896H206.445C208.108 39.9722 209.749 40.0337 211.368 40.0781C209.454 40.078 207.491 40.0327 205.532 39.9453C198.602 39.6361 191.772 38.8233 187.382 37.8125H187.383L155.705 30.4961C151.599 29.4371 145.405 27.7884 137.913 25.5508C133.633 24.2722 130.854 23.3858 128.481 22.6191C126.109 21.8524 124.135 21.2031 121.475 20.4014H121.474C114.642 18.3472 104.502 15.2967 92.2939 13.7939L91.1064 13.6533C83.6949 12.8057 74.1537 11.7978 61.9902 13.7617V13.748L61.4062 13.8467C49.9583 15.7826 41.3819 19.4903 35.7178 22.2129L33.4688 23.3115C25.5392 27.2325 19.1276 31.5596 14.2129 35.377C18.0122 30.876 21.681 27.6092 24.5107 25.3613H24.5117C36.984 15.4412 49.5861 12.1919 56.0996 10.5859C59.542 9.73781 65.3107 8.33826 72.7568 8.08008H72.7578Z" stroke="#07000A"/>
<path d="M67.0376 42.8203C66.6674 43.9392 66.2966 45.6196 66.5435 47.6211C66.6905 48.839 67.0262 49.8356 67.3501 50.5879L77.4312 77.5156L77.9175 78.8135L78.3726 77.5039L88.9224 47.124L88.938 47.0781L88.9448 47.0293C89.0109 46.5557 89.0557 45.7559 88.7769 44.8525C88.5273 44.0332 88.1079 43.4034 87.7007 42.9434C90.5939 42.9069 93.5269 42.8733 96.4165 42.8369C95.9163 43.3462 95.3776 44.0468 94.98 44.9727C94.4524 46.1975 94.3865 47.3149 94.4146 48.0107L94.4312 48.2822C94.6359 54.5185 94.8383 60.7524 95.0405 66.9863C95.243 73.2288 95.4449 79.4717 95.6499 85.7168L95.6509 85.7432L95.6548 85.7686C95.72 86.2416 95.8711 86.9407 96.2417 87.71H96.1558L96.6616 88.4834C97.118 89.1816 97.6529 89.7075 98.1636 90.1006H88.5454C89.2954 89.259 90.1707 88.0061 90.6694 86.3125C90.9649 85.3155 91.0582 84.4005 91.0698 83.667V83.3555L90.1792 52.9756L89.2065 52.8301L76.8491 89.3477L62.8667 52.9609L61.8999 53.1318C61.8099 58.6318 61.7194 64.1295 61.6294 69.627C61.5394 75.1244 61.4499 80.6221 61.3599 86.1221V86.1406C61.371 86.6749 61.4813 87.522 61.9321 88.4238C62.3 89.1597 62.7877 89.7145 63.2573 90.124L55.6011 90.2822C56.0407 89.8107 56.5094 89.1991 56.897 88.4238C57.8256 86.5666 57.7931 84.8443 57.7212 84.0605L59.9487 49.1523L59.9497 49.1367V49.1201C59.9497 48.3263 59.8436 47.2084 59.4009 45.9541V45.9521L59.2563 45.5732C58.7756 44.3904 58.121 43.4783 57.5405 42.8203H67.0376Z" stroke="#07000A"/>
<path d="M114.618 43.1504C114.247 44.2693 113.877 45.9497 114.124 47.9512C114.271 49.169 114.606 50.1657 114.93 50.918L125.011 77.8457L125.498 79.1436L125.953 77.834L136.502 47.4541L136.518 47.4082L136.525 47.3594C136.591 46.8857 136.636 46.086 136.357 45.1826C136.107 44.3633 135.688 43.7334 135.281 43.2734C138.174 43.237 141.107 43.2034 143.997 43.167C143.496 43.6763 142.958 44.3768 142.56 45.3027C142.033 46.5276 141.967 47.645 141.995 48.3408L142.011 48.6123C142.216 54.8486 142.418 61.0825 142.621 67.3164C142.823 73.5589 143.025 79.8018 143.23 86.0469L143.231 86.0732L143.235 86.0986C143.3 86.5716 143.451 87.2708 143.822 88.04H143.736L144.242 88.8135C144.698 89.5117 145.233 90.0376 145.744 90.4307H136.125C136.875 89.5891 137.751 88.3362 138.25 86.6426C138.545 85.6455 138.638 84.7306 138.65 83.9971V83.6855L137.759 53.3057L136.787 53.1602L124.429 89.6777L110.447 53.291L109.48 53.4619C109.39 58.9619 109.299 64.4596 109.209 69.957C109.119 75.4545 109.03 80.9522 108.94 86.4521V86.4707C108.951 87.005 109.061 87.852 109.512 88.7539C109.88 89.4897 110.368 90.0446 110.837 90.4541C109.608 90.4794 108.378 90.5042 107.149 90.5303C105.826 90.5583 104.503 90.5853 103.181 90.6123C103.621 90.1408 104.089 89.5291 104.477 88.7539C105.406 86.8967 105.373 85.1743 105.301 84.3906L107.529 49.4824L107.53 49.4668V49.4502C107.53 48.6564 107.424 47.5384 106.981 46.2842V46.2822L106.836 45.9033C106.356 44.7204 105.701 43.8084 105.121 43.1504H114.618Z" stroke="#07000A"/>
<path d="M197.54 43.0234C202.061 54.0318 213.626 70.441 221.083 80.9297L221.974 82.1846L221.99 80.6455C222.075 72.3828 222.062 65.2307 221.976 59.8926C221.933 57.2238 221.872 55.0051 221.794 53.3271C221.718 51.6669 221.624 50.4944 221.509 49.9473V49.9463L221.458 49.7363C221.317 49.2046 221.024 48.3983 220.751 47.624C220.386 46.5824 219.817 45.7157 218.982 44.876C218.921 44.802 218.855 44.7178 218.783 44.6309L218.534 44.3477C218.228 44.0075 217.919 43.6932 217.611 43.4033C219.101 43.3606 220.59 43.3181 222.08 43.2754C223.554 43.2331 225.029 43.1907 226.505 43.1484C226.223 43.4551 225.935 43.8113 225.663 44.2246L225.662 44.2266C224.514 45.9797 224.303 47.7191 224.26 48.5957V48.6162V48.6172V48.6387C224.26 48.6535 224.259 48.6758 224.259 48.7051C224.259 48.7637 224.258 48.851 224.257 48.9648C224.256 49.1925 224.253 49.5273 224.25 49.9551C224.245 50.811 224.238 52.0407 224.232 53.5332C224.219 56.518 224.208 60.5569 224.215 64.7725C224.23 73.1849 224.319 82.3546 224.623 85.2129L224.624 85.2168C224.698 85.8631 224.868 86.7419 225.33 87.6973L225.367 87.7744L225.381 87.7891C225.897 88.8218 226.58 89.5857 227.206 90.1299H215.956C216.209 89.4259 216.464 88.4191 216.435 87.2051L216.418 86.8564C216.301 85.0657 215.619 83.7756 215.235 83.1562L215.229 83.1475L215.224 83.1396L195.154 53.5693L194.188 52.1465L194.24 53.8652C194.385 58.6202 194.53 63.3759 194.675 68.1309C194.82 72.8857 194.965 77.6406 195.11 82.3955V82.3965C195.13 83.0003 195.148 83.6024 195.166 84.2051C195.183 84.8073 195.2 85.4106 195.22 86.0166L195.221 86.0488L195.226 86.0811C195.313 86.6159 195.499 87.2808 195.87 87.9678L195.872 87.9697C196.41 88.9564 197.155 89.649 197.875 90.1299H188.343C189.293 89.5094 190.311 88.5811 190.944 87.2207V87.2188C191.129 86.8153 191.259 86.416 191.354 86.0449L191.37 85.9844V85.9219C191.39 79.6118 191.408 73.3042 191.425 66.998L191.48 48.082V48.0801C191.48 47.2298 191.038 46.353 190.462 45.543C190.063 44.9814 189.573 44.4182 189.052 43.873L197.54 43.0234Z" stroke="#07000A"/>
<path d="M5.98096 46.0215C10.5902 42.1563 15.0189 41.6344 19.4663 41.835C20.5837 41.8853 21.7004 41.9813 22.8257 42.082C23.9477 42.1824 25.0806 42.2881 26.2144 42.3545C28.1965 42.4706 30.2051 42.4686 32.2368 42.1133C31.793 43.3939 31.37 44.917 31.0962 46.6504C30.8584 48.1262 30.7689 49.5015 30.7642 50.7383C29.6174 48.5344 27.4815 45.6132 23.7603 44.0869L23.7554 44.085C22.754 43.6845 19.5764 42.6514 15.6626 43.5107V43.5117C13.8289 43.9163 12.0331 44.8634 10.6216 46.1416C9.21175 47.4184 8.15502 49.0537 7.85693 50.8477C7.57048 52.5669 7.9856 54.6043 8.8833 56.4062C9.78221 58.2106 11.1975 59.8436 12.9819 60.709V60.71L28.4224 68.1895C32.7394 70.2759 35.1895 74.5409 35.1704 78.6377C35.1513 83.397 32.3226 87.4253 27.0562 89.3809H27.0552C26.4496 89.6073 25.4041 90.0339 23.3667 90.3584C21.32 90.6844 18.262 90.9089 13.6519 90.71H13.6509C10.4329 90.5738 5.96972 90.2175 0.669434 89.2539C0.477126 87.3373 0.410749 85.0223 0.675293 82.4092L0.736816 81.8477C0.893067 80.5093 1.12006 79.274 1.38135 78.1514C2.98939 81.8554 4.98423 84.8103 7.54736 86.8145C10.3504 89.0062 13.7896 90.0284 18.0347 89.7031L18.4478 89.667C22.8335 89.2492 26.4052 86.3971 27.3081 82.2871C28.2014 78.2249 25.9102 73.5018 21.4976 71.6104L8.93701 66.2197C6.9849 65.3809 5.22634 64.0528 3.91064 62.5176C2.67431 61.0749 1.85011 59.4753 1.59912 57.9551L1.55713 57.6523C1.0348 53.066 2.60926 48.8553 5.98096 46.0215Z" stroke="#07000A"/>
<path d="M236.711 45.6328C241.32 41.7676 245.749 41.2458 250.196 41.4463C251.314 41.4967 252.43 41.5927 253.556 41.6934C254.678 41.7938 255.811 41.8994 256.944 41.9658C258.927 42.0819 260.935 42.0799 262.967 41.7246C262.523 43.0052 262.1 44.5284 261.826 46.2617C261.588 47.7375 261.499 49.1128 261.494 50.3496C260.347 48.1458 258.211 45.2246 254.49 43.6982L254.485 43.6963C253.484 43.2958 250.306 42.2627 246.393 43.1221V43.123C244.559 43.5276 242.763 44.4747 241.352 45.7529C239.942 47.0297 238.885 48.6651 238.587 50.459C238.3 52.1782 238.716 54.2156 239.613 56.0176C240.512 57.8219 241.927 59.4549 243.712 60.3203V60.3213L259.152 67.8008C263.469 69.8872 265.919 74.1523 265.9 78.249C265.881 83.0083 263.053 87.0366 257.786 88.9922H257.785C257.18 89.2186 256.134 89.6452 254.097 89.9697C252.05 90.2957 248.992 90.5202 244.382 90.3213H244.381C241.163 90.1852 236.7 89.8288 231.399 88.8652C231.207 86.9487 231.141 84.6336 231.405 82.0205L231.467 81.459C231.623 80.1207 231.85 78.8854 232.111 77.7627C233.719 81.4667 235.714 84.4216 238.277 86.4258C241.08 88.6175 244.52 89.6397 248.765 89.3145L249.178 89.2783C253.564 88.8605 257.135 86.0084 258.038 81.8984C258.931 77.8362 256.64 73.1131 252.228 71.2217L239.667 65.8311C237.715 64.9923 235.956 63.6641 234.641 62.1289C233.404 60.6862 232.58 59.0866 232.329 57.5664L232.287 57.2637C231.765 52.6773 233.339 48.4666 236.711 45.6328Z" stroke="#07000A"/>
<path d="M165.432 42.9395C172.135 42.7834 178.126 45.7721 181.606 51.7998C186.814 60.8178 187.311 72.6878 181.946 82.0615H181.945C181.14 83.4703 179.908 85.2845 177.746 86.9258L177.302 87.251C173.808 89.7205 169.882 90.2399 166.718 90.1016C163.564 89.9637 161.205 89.1741 160.865 89.0576H160.866C158.433 88.2012 156.749 87.0041 156.179 86.5791L156.17 86.5723L156.169 86.5713C156.168 86.5707 156.166 86.5699 156.164 86.5684C156.159 86.565 156.152 86.5592 156.142 86.5518C156.121 86.5369 156.09 86.5134 156.05 86.4824C155.968 86.4205 155.848 86.3268 155.696 86.2021C155.393 85.9526 154.965 85.5799 154.473 85.0928C153.487 84.1171 152.253 82.6893 151.247 80.877C146.641 72.5976 146.518 62.439 150.366 53.751L150.751 52.915C153.603 46.9287 159.084 43.3147 164.862 42.9629L165.422 42.9395H165.432ZM166.213 44.6396C163.247 44.621 160.667 46.1524 158.627 48.6152C156.59 51.0747 155.063 54.4911 154.175 58.3457C152.455 65.8093 153.098 75.0472 157.23 82.4463L157.641 83.1562C159.967 87.0548 164.397 88.9994 168.513 88.7285C171.373 88.5384 173.797 86.8676 175.665 84.3242C177.532 81.7829 178.872 78.3362 179.585 74.4863C181.009 66.7916 179.947 57.3498 175.364 50.0146H175.363C173.39 46.8612 169.517 44.6608 166.213 44.6396Z" stroke="#07000A"/>
<path d="M50.665 42.8477C49.9825 43.3172 49.2495 43.9028 48.5264 44.6367C47.5935 45.5696 46.9203 46.5017 46.4346 47.2871L46.3604 47.4082V48.8633C46.4305 60.3597 46.4885 71.7948 46.5586 83.3018C46.4877 84.007 46.4908 84.863 46.7129 85.8047L46.7139 85.8066C47.2383 87.9919 48.6816 89.4622 49.8457 90.3359C46.0751 90.3282 42.3042 90.3227 38.5332 90.3213C39.6591 89.2721 40.8653 87.7901 41.5244 85.7969L41.5254 85.7959C41.8938 84.6695 41.9671 83.7625 41.998 83.3916V83.3896C42.1798 81.1126 42.1577 79.392 42.2051 75.1387C42.2525 70.8761 42.3693 64.0409 42.8291 51.502C42.8713 50.5317 42.7875 48.9754 42.083 47.251L42.082 47.25L41.957 46.96C41.1107 45.0815 39.8323 43.8163 38.8018 43.0254C40.815 42.9946 42.8283 42.9651 44.8418 42.9355C46.7826 42.9071 48.724 42.8772 50.665 42.8477Z" stroke="#07000A"/>
</g>
<defs>
<clipPath id="clip0_318_53">
<rect width="266.4" height="91.28" fill="white"/>
</clipPath>
</defs>
</svg>
