<svg width="506" height="93" viewBox="0 0 506 93" fill="none" xmlns="http://www.w3.org/2000/svg">
<path d="M57.2158 0.500977L57.2393 0.50293H140.606L115.327 22.0635H63.7109C59.9632 22.1164 57.5514 23.5935 56.0723 25.1035C55.3139 25.8778 54.8064 26.6549 54.4873 27.2402C54.3276 27.5333 54.2146 27.7797 54.1406 27.9551C54.1037 28.0426 54.0761 28.1125 54.0576 28.1621C54.0553 28.1683 54.0528 28.1742 54.0508 28.1797H54.0498L34.6104 69.3594L34.2734 70.0732H77.792C78.9831 70.0732 80.0669 69.3947 80.5908 68.335V68.334L86.0908 57.1338L86.4453 56.4131H63.1875L73.1328 36.333H119.271L114.099 47.873H104.839L104.691 48.1035L103.291 50.2939L102.799 51.0635H112.66L106.711 63.5586L106.37 64.2734H109.03L103.643 74.9736V74.9746C103.636 74.9863 103.624 75.0041 103.61 75.0273C103.582 75.0737 103.541 75.1425 103.487 75.2305C103.379 75.4067 103.222 75.6608 103.025 75.9707C102.632 76.5909 102.082 77.4334 101.454 78.3223C100.826 79.2123 100.124 80.1433 99.4277 80.9434C98.7241 81.7518 98.0536 82.3927 97.4912 82.7363C95.5669 83.9128 87.3737 88.709 83.6309 90.8906C82.487 91.5563 81.1732 91.9131 79.8418 91.9131H8.78223C8.54723 91.9131 8.31704 91.8362 8.13965 91.6982L8.13672 91.6963L0.586914 85.8965C0.504584 85.8305 0.476084 85.7075 0.522461 85.6113V85.6104L30.623 23.0195L30.6318 23.001L30.6396 22.9805C32.4013 18.337 34.5581 15.2852 36.2764 13.3281C37.1362 12.3488 37.8896 11.6399 38.4375 11.1367C38.7066 10.8896 38.942 10.6774 39.1074 10.5137C39.1904 10.4316 39.2708 10.3478 39.334 10.2666C39.3696 10.2209 39.4298 10.1376 39.4707 10.0293C39.4741 10.0259 39.4781 10.0218 39.4824 10.0176C39.5357 9.96538 39.6241 9.88986 39.7529 9.79004C40.0084 9.59205 40.3819 9.33006 40.8496 9.01855C41.7826 8.39717 43.0609 7.59787 44.4531 6.75293C47.2372 5.06325 50.4558 3.20282 52.2324 2.23242C53.983 1.27622 55.2583 0.845505 56.0801 0.65332C56.4907 0.557306 56.7887 0.521331 56.9766 0.507812C57.0704 0.501064 57.1371 0.499585 57.1768 0.5C57.1962 0.500206 57.2093 0.500641 57.2158 0.500977ZM39.5078 9.89258C39.5031 9.92598 39.4941 9.95382 39.4863 9.97559C39.494 9.94886 39.5037 9.92169 39.5078 9.89258Z" stroke="black"/>
<path d="M123.925 36.2329L119.1 47.9116L118.815 48.6011L119.561 48.603L127.865 48.6206L127.231 49.8931L118.531 49.9028H118.21L118.077 50.1958L112.12 63.2905L110.611 63.2847L122.726 36.2329H123.925Z" stroke="black"/>
<path d="M174.588 2L152.922 61.5117L152.901 61.5693L152.895 61.6299C152.636 64.0644 152.915 65.8535 153.525 67.1602C154.139 68.4759 155.072 69.2653 156.04 69.7227C156.998 70.1753 157.979 70.2982 158.708 70.3115C159.075 70.3182 159.385 70.2972 159.604 70.2744C159.714 70.263 159.801 70.2506 159.863 70.2412C159.881 70.2384 159.898 70.2357 159.912 70.2334H184.89L184.973 70.2031C189.395 68.5955 192.265 65.752 194.026 63.3174C194.906 62.1002 195.512 60.9828 195.898 60.167C196.091 59.759 196.23 59.4255 196.321 59.1924C196.366 59.0758 196.4 58.9835 196.422 58.9199C196.434 58.8885 196.442 58.8639 196.448 58.8467C196.451 58.8381 196.453 58.8311 196.455 58.8262V58.8242L196.456 58.8252L215.79 2.25293H242.783L218.551 70.0879C214.473 79.7336 207.923 84.6533 202.399 87.168C199.633 88.4269 197.122 89.0839 195.304 89.4258C194.396 89.5967 193.662 89.6891 193.158 89.7383C192.906 89.7629 192.711 89.7765 192.581 89.7842C192.515 89.788 192.466 89.7907 192.434 89.792C192.418 89.7927 192.406 89.7927 192.399 89.793H132.537C128.824 88.8892 126.357 87.2758 124.728 85.3877C123.088 83.4871 122.268 81.2768 121.91 79.1562C121.551 77.0335 121.656 75.0145 121.853 73.5215C121.951 72.7764 122.072 72.1657 122.167 71.7432C122.215 71.532 122.257 71.3678 122.287 71.2578C122.301 71.2032 122.312 71.1619 122.32 71.1348C122.322 71.1274 122.323 71.1205 122.325 71.1152L149.359 1.92383L174.588 2Z" stroke="black"/>
<path d="M284.1 1.80322L311.47 53.7466L312.024 54.8003L312.388 53.6655L328.937 1.91357H355.716L327.307 90.2437H299.91L271.321 37.2856L270.773 36.27L270.407 37.3647L252.632 90.5835H225.626L255.361 1.80322H284.1Z" stroke="black"/>
<path d="M396.863 2.03271C396.83 2.13718 396.794 2.25386 396.754 2.38232C396.552 3.03339 396.256 3.98909 395.878 5.20459C395.123 7.63548 394.045 11.1083 392.75 15.2769C390.162 23.6146 386.711 34.7355 383.259 45.8667C379.808 56.998 376.357 68.1404 373.768 76.521C372.474 80.7112 371.395 84.2119 370.64 86.6753C370.263 87.9067 369.966 88.8797 369.763 89.5503C369.663 89.8804 369.585 90.1381 369.533 90.3179C369.332 90.3354 369.039 90.3537 368.661 90.3706C367.872 90.4059 366.741 90.4373 365.379 90.4663C362.657 90.5244 359.025 90.57 355.392 90.605C351.759 90.64 348.126 90.6646 345.401 90.6802C344.039 90.688 342.904 90.6941 342.109 90.6978C341.896 90.6987 341.706 90.699 341.544 90.6997L369.957 2.03271H396.863Z" stroke="black"/>
<path d="M505.224 1.58301L499.023 23.833H465.384L465.274 24.1846L444.694 90.3525H415.895L436.709 24.2637L436.914 23.6133H401.134L408.089 1.58301H505.224Z" stroke="black"/>
</svg>
